<?xml version="1.0" encoding="utf-8" standalone="no"?>
<!DOCTYPE svg PUBLIC "-//W3C//DTD SVG 1.1//EN"
  "http://www.w3.org/Graphics/SVG/1.1/DTD/svg11.dtd">
<svg xmlns:xlink="http://www.w3.org/1999/xlink" width="1262.88pt" height="686.88pt" viewBox="0 0 1262.88 686.88" xmlns="http://www.w3.org/2000/svg" version="1.1">
 <metadata>
  <rdf:RDF xmlns:dc="http://purl.org/dc/elements/1.1/" xmlns:cc="http://creativecommons.org/ns#" xmlns:rdf="http://www.w3.org/1999/02/22-rdf-syntax-ns#">
   <cc:Work>
    <dc:type rdf:resource="http://purl.org/dc/dcmitype/StillImage"/>
    <dc:date>2023-06-23T16:04:08.281890</dc:date>
    <dc:format>image/svg+xml</dc:format>
    <dc:creator>
     <cc:Agent>
      <dc:title>Matplotlib v3.5.3, https://matplotlib.org/</dc:title>
     </cc:Agent>
    </dc:creator>
   </cc:Work>
  </rdf:RDF>
 </metadata>
 <defs>
  <style type="text/css">*{stroke-linejoin: round; stroke-linecap: butt}</style>
 </defs>
 <g id="figure_1">
  <g id="patch_1">
   <path d="M 0 686.88 
L 1262.88 686.88 
L 1262.88 0 
L 0 0 
z
" style="fill: #ffffff"/>
  </g>
  <g id="axes_1">
   <g id="patch_2">
    <path d="M 587.269063 626.09625 
L 1241.6825 626.09625 
L 1241.6825 33.259875 
L 587.269063 33.259875 
z
" style="fill: #ffffff"/>
   </g>
   <g id="patch_3">
    <path d="M 587.269063 614.69555 
L 657.073163 614.69555 
L 657.073163 591.894151 
L 587.269063 591.894151 
z
" clip-path="url(#pe2bfdae6ef)" style="fill: #1f77b4"/>
   </g>
   <g id="patch_4">
    <path d="M 587.269063 569.092752 
L 744.328288 569.092752 
L 744.328288 546.291353 
L 587.269063 546.291353 
z
" clip-path="url(#pe2bfdae6ef)" style="fill: #1f77b4"/>
   </g>
   <g id="patch_5">
    <path d="M 587.269063 523.489954 
L 805.406875 523.489954 
L 805.406875 500.688555 
L 587.269063 500.688555 
z
" clip-path="url(#pe2bfdae6ef)" style="fill: #1f77b4"/>
   </g>
   <g id="patch_6">
    <path d="M 587.269063 477.887156 
L 831.583413 477.887156 
L 831.583413 455.085757 
L 587.269063 455.085757 
z
" clip-path="url(#pe2bfdae6ef)" style="fill: #1f77b4"/>
   </g>
   <g id="patch_7">
    <path d="M 587.269063 432.284358 
L 849.034438 432.284358 
L 849.034438 409.482959 
L 587.269063 409.482959 
z
" clip-path="url(#pe2bfdae6ef)" style="fill: #1f77b4"/>
   </g>
   <g id="patch_8">
    <path d="M 587.269063 386.68156 
L 910.113025 386.68156 
L 910.113025 363.880161 
L 587.269063 363.880161 
z
" clip-path="url(#pe2bfdae6ef)" style="fill: #1f77b4"/>
   </g>
   <g id="patch_9">
    <path d="M 587.269063 341.078762 
L 918.838538 341.078762 
L 918.838538 318.277363 
L 587.269063 318.277363 
z
" clip-path="url(#pe2bfdae6ef)" style="fill: #1f77b4"/>
   </g>
   <g id="patch_10">
    <path d="M 587.269063 295.475964 
L 997.36815 295.475964 
L 997.36815 272.674565 
L 587.269063 272.674565 
z
" clip-path="url(#pe2bfdae6ef)" style="fill: #1f77b4"/>
   </g>
   <g id="patch_11">
    <path d="M 587.269063 249.873166 
L 997.36815 249.873166 
L 997.36815 227.071767 
L 587.269063 227.071767 
z
" clip-path="url(#pe2bfdae6ef)" style="fill: #1f77b4"/>
   </g>
   <g id="patch_12">
    <path d="M 587.269063 204.270368 
L 1006.093663 204.270368 
L 1006.093663 181.468969 
L 587.269063 181.468969 
z
" clip-path="url(#pe2bfdae6ef)" style="fill: #1f77b4"/>
   </g>
   <g id="patch_13">
    <path d="M 587.269063 158.66757 
L 1058.446738 158.66757 
L 1058.446738 135.866171 
L 587.269063 135.866171 
z
" clip-path="url(#pe2bfdae6ef)" style="fill: #1f77b4"/>
   </g>
   <g id="patch_14">
    <path d="M 587.269063 113.064772 
L 1084.623275 113.064772 
L 1084.623275 90.263373 
L 587.269063 90.263373 
z
" clip-path="url(#pe2bfdae6ef)" style="fill: #1f77b4"/>
   </g>
   <g id="patch_15">
    <path d="M 587.269063 67.461974 
L 1136.97635 67.461974 
L 1136.97635 44.660575 
L 587.269063 44.660575 
z
" clip-path="url(#pe2bfdae6ef)" style="fill: #1f77b4"/>
   </g>
   <g id="matplotlib.axis_1">
    <g id="xtick_1">
     <g id="line2d_1">
      <defs>
       <path id="m7e11f63f03" d="M 0 0 
L 0 3.5 
" style="stroke: #000000; stroke-width: 0.8"/>
      </defs>
      <g>
       <use xlink:href="#m7e11f63f03" x="587.269063" y="626.09625" style="stroke: #000000; stroke-width: 0.8"/>
      </g>
     </g>
     <g id="text_1">
      <!-- 0 -->
      <g transform="translate(580.270313 649.812812)scale(0.22 -0.22)">
       <defs>
        <path id="DejaVuSans-30" d="M 2034 4250 
Q 1547 4250 1301 3770 
Q 1056 3291 1056 2328 
Q 1056 1369 1301 889 
Q 1547 409 2034 409 
Q 2525 409 2770 889 
Q 3016 1369 3016 2328 
Q 3016 3291 2770 3770 
Q 2525 4250 2034 4250 
z
M 2034 4750 
Q 2819 4750 3233 4129 
Q 3647 3509 3647 2328 
Q 3647 1150 3233 529 
Q 2819 -91 2034 -91 
Q 1250 -91 836 529 
Q 422 1150 422 2328 
Q 422 3509 836 4129 
Q 1250 4750 2034 4750 
z
" transform="scale(0.015625)"/>
       </defs>
       <use xlink:href="#DejaVuSans-30"/>
      </g>
     </g>
    </g>
    <g id="xtick_2">
     <g id="line2d_2">
      <g>
       <use xlink:href="#m7e11f63f03" x="630.896625" y="626.09625" style="stroke: #000000; stroke-width: 0.8"/>
      </g>
     </g>
     <g id="text_2">
      <!-- 5 -->
      <g transform="translate(623.897875 649.812812)scale(0.22 -0.22)">
       <defs>
        <path id="DejaVuSans-35" d="M 691 4666 
L 3169 4666 
L 3169 4134 
L 1269 4134 
L 1269 2991 
Q 1406 3038 1543 3061 
Q 1681 3084 1819 3084 
Q 2600 3084 3056 2656 
Q 3513 2228 3513 1497 
Q 3513 744 3044 326 
Q 2575 -91 1722 -91 
Q 1428 -91 1123 -41 
Q 819 9 494 109 
L 494 744 
Q 775 591 1075 516 
Q 1375 441 1709 441 
Q 2250 441 2565 725 
Q 2881 1009 2881 1497 
Q 2881 1984 2565 2268 
Q 2250 2553 1709 2553 
Q 1456 2553 1204 2497 
Q 953 2441 691 2322 
L 691 4666 
z
" transform="scale(0.015625)"/>
       </defs>
       <use xlink:href="#DejaVuSans-35"/>
      </g>
     </g>
    </g>
    <g id="xtick_3">
     <g id="line2d_3">
      <g>
       <use xlink:href="#m7e11f63f03" x="674.524188" y="626.09625" style="stroke: #000000; stroke-width: 0.8"/>
      </g>
     </g>
     <g id="text_3">
      <!-- 10 -->
      <g transform="translate(660.526688 649.812812)scale(0.22 -0.22)">
       <defs>
        <path id="DejaVuSans-31" d="M 794 531 
L 1825 531 
L 1825 4091 
L 703 3866 
L 703 4441 
L 1819 4666 
L 2450 4666 
L 2450 531 
L 3481 531 
L 3481 0 
L 794 0 
L 794 531 
z
" transform="scale(0.015625)"/>
       </defs>
       <use xlink:href="#DejaVuSans-31"/>
       <use xlink:href="#DejaVuSans-30" x="63.623047"/>
      </g>
     </g>
    </g>
    <g id="xtick_4">
     <g id="line2d_4">
      <g>
       <use xlink:href="#m7e11f63f03" x="718.15175" y="626.09625" style="stroke: #000000; stroke-width: 0.8"/>
      </g>
     </g>
     <g id="text_4">
      <!-- 15 -->
      <g transform="translate(704.15425 649.812812)scale(0.22 -0.22)">
       <use xlink:href="#DejaVuSans-31"/>
       <use xlink:href="#DejaVuSans-35" x="63.623047"/>
      </g>
     </g>
    </g>
    <g id="xtick_5">
     <g id="line2d_5">
      <g>
       <use xlink:href="#m7e11f63f03" x="761.779313" y="626.09625" style="stroke: #000000; stroke-width: 0.8"/>
      </g>
     </g>
     <g id="text_5">
      <!-- 20 -->
      <g transform="translate(747.781813 649.812812)scale(0.22 -0.22)">
       <defs>
        <path id="DejaVuSans-32" d="M 1228 531 
L 3431 531 
L 3431 0 
L 469 0 
L 469 531 
Q 828 903 1448 1529 
Q 2069 2156 2228 2338 
Q 2531 2678 2651 2914 
Q 2772 3150 2772 3378 
Q 2772 3750 2511 3984 
Q 2250 4219 1831 4219 
Q 1534 4219 1204 4116 
Q 875 4013 500 3803 
L 500 4441 
Q 881 4594 1212 4672 
Q 1544 4750 1819 4750 
Q 2544 4750 2975 4387 
Q 3406 4025 3406 3419 
Q 3406 3131 3298 2873 
Q 3191 2616 2906 2266 
Q 2828 2175 2409 1742 
Q 1991 1309 1228 531 
z
" transform="scale(0.015625)"/>
       </defs>
       <use xlink:href="#DejaVuSans-32"/>
       <use xlink:href="#DejaVuSans-30" x="63.623047"/>
      </g>
     </g>
    </g>
    <g id="xtick_6">
     <g id="line2d_6">
      <g>
       <use xlink:href="#m7e11f63f03" x="805.406875" y="626.09625" style="stroke: #000000; stroke-width: 0.8"/>
      </g>
     </g>
     <g id="text_6">
      <!-- 25 -->
      <g transform="translate(791.409375 649.812812)scale(0.22 -0.22)">
       <use xlink:href="#DejaVuSans-32"/>
       <use xlink:href="#DejaVuSans-35" x="63.623047"/>
      </g>
     </g>
    </g>
    <g id="xtick_7">
     <g id="line2d_7">
      <g>
       <use xlink:href="#m7e11f63f03" x="849.034438" y="626.09625" style="stroke: #000000; stroke-width: 0.8"/>
      </g>
     </g>
     <g id="text_7">
      <!-- 30 -->
      <g transform="translate(835.036938 649.812812)scale(0.22 -0.22)">
       <defs>
        <path id="DejaVuSans-33" d="M 2597 2516 
Q 3050 2419 3304 2112 
Q 3559 1806 3559 1356 
Q 3559 666 3084 287 
Q 2609 -91 1734 -91 
Q 1441 -91 1130 -33 
Q 819 25 488 141 
L 488 750 
Q 750 597 1062 519 
Q 1375 441 1716 441 
Q 2309 441 2620 675 
Q 2931 909 2931 1356 
Q 2931 1769 2642 2001 
Q 2353 2234 1838 2234 
L 1294 2234 
L 1294 2753 
L 1863 2753 
Q 2328 2753 2575 2939 
Q 2822 3125 2822 3475 
Q 2822 3834 2567 4026 
Q 2313 4219 1838 4219 
Q 1578 4219 1281 4162 
Q 984 4106 628 3988 
L 628 4550 
Q 988 4650 1302 4700 
Q 1616 4750 1894 4750 
Q 2613 4750 3031 4423 
Q 3450 4097 3450 3541 
Q 3450 3153 3228 2886 
Q 3006 2619 2597 2516 
z
" transform="scale(0.015625)"/>
       </defs>
       <use xlink:href="#DejaVuSans-33"/>
       <use xlink:href="#DejaVuSans-30" x="63.623047"/>
      </g>
     </g>
    </g>
    <g id="xtick_8">
     <g id="line2d_8">
      <g>
       <use xlink:href="#m7e11f63f03" x="892.662" y="626.09625" style="stroke: #000000; stroke-width: 0.8"/>
      </g>
     </g>
     <g id="text_8">
      <!-- 35 -->
      <g transform="translate(878.6645 649.812812)scale(0.22 -0.22)">
       <use xlink:href="#DejaVuSans-33"/>
       <use xlink:href="#DejaVuSans-35" x="63.623047"/>
      </g>
     </g>
    </g>
    <g id="xtick_9">
     <g id="line2d_9">
      <g>
       <use xlink:href="#m7e11f63f03" x="936.289563" y="626.09625" style="stroke: #000000; stroke-width: 0.8"/>
      </g>
     </g>
     <g id="text_9">
      <!-- 40 -->
      <g transform="translate(922.292063 649.812812)scale(0.22 -0.22)">
       <defs>
        <path id="DejaVuSans-34" d="M 2419 4116 
L 825 1625 
L 2419 1625 
L 2419 4116 
z
M 2253 4666 
L 3047 4666 
L 3047 1625 
L 3713 1625 
L 3713 1100 
L 3047 1100 
L 3047 0 
L 2419 0 
L 2419 1100 
L 313 1100 
L 313 1709 
L 2253 4666 
z
" transform="scale(0.015625)"/>
       </defs>
       <use xlink:href="#DejaVuSans-34"/>
       <use xlink:href="#DejaVuSans-30" x="63.623047"/>
      </g>
     </g>
    </g>
    <g id="xtick_10">
     <g id="line2d_10">
      <g>
       <use xlink:href="#m7e11f63f03" x="979.917125" y="626.09625" style="stroke: #000000; stroke-width: 0.8"/>
      </g>
     </g>
     <g id="text_10">
      <!-- 45 -->
      <g transform="translate(965.919625 649.812812)scale(0.22 -0.22)">
       <use xlink:href="#DejaVuSans-34"/>
       <use xlink:href="#DejaVuSans-35" x="63.623047"/>
      </g>
     </g>
    </g>
    <g id="xtick_11">
     <g id="line2d_11">
      <g>
       <use xlink:href="#m7e11f63f03" x="1023.544688" y="626.09625" style="stroke: #000000; stroke-width: 0.8"/>
      </g>
     </g>
     <g id="text_11">
      <!-- 50 -->
      <g transform="translate(1009.547188 649.812812)scale(0.22 -0.22)">
       <use xlink:href="#DejaVuSans-35"/>
       <use xlink:href="#DejaVuSans-30" x="63.623047"/>
      </g>
     </g>
    </g>
    <g id="xtick_12">
     <g id="line2d_12">
      <g>
       <use xlink:href="#m7e11f63f03" x="1067.17225" y="626.09625" style="stroke: #000000; stroke-width: 0.8"/>
      </g>
     </g>
     <g id="text_12">
      <!-- 55 -->
      <g transform="translate(1053.17475 649.812812)scale(0.22 -0.22)">
       <use xlink:href="#DejaVuSans-35"/>
       <use xlink:href="#DejaVuSans-35" x="63.623047"/>
      </g>
     </g>
    </g>
    <g id="xtick_13">
     <g id="line2d_13">
      <g>
       <use xlink:href="#m7e11f63f03" x="1110.799813" y="626.09625" style="stroke: #000000; stroke-width: 0.8"/>
      </g>
     </g>
     <g id="text_13">
      <!-- 60 -->
      <g transform="translate(1096.802313 649.812812)scale(0.22 -0.22)">
       <defs>
        <path id="DejaVuSans-36" d="M 2113 2584 
Q 1688 2584 1439 2293 
Q 1191 2003 1191 1497 
Q 1191 994 1439 701 
Q 1688 409 2113 409 
Q 2538 409 2786 701 
Q 3034 994 3034 1497 
Q 3034 2003 2786 2293 
Q 2538 2584 2113 2584 
z
M 3366 4563 
L 3366 3988 
Q 3128 4100 2886 4159 
Q 2644 4219 2406 4219 
Q 1781 4219 1451 3797 
Q 1122 3375 1075 2522 
Q 1259 2794 1537 2939 
Q 1816 3084 2150 3084 
Q 2853 3084 3261 2657 
Q 3669 2231 3669 1497 
Q 3669 778 3244 343 
Q 2819 -91 2113 -91 
Q 1303 -91 875 529 
Q 447 1150 447 2328 
Q 447 3434 972 4092 
Q 1497 4750 2381 4750 
Q 2619 4750 2861 4703 
Q 3103 4656 3366 4563 
z
" transform="scale(0.015625)"/>
       </defs>
       <use xlink:href="#DejaVuSans-36"/>
       <use xlink:href="#DejaVuSans-30" x="63.623047"/>
      </g>
     </g>
    </g>
    <g id="xtick_14">
     <g id="line2d_14">
      <g>
       <use xlink:href="#m7e11f63f03" x="1154.427375" y="626.09625" style="stroke: #000000; stroke-width: 0.8"/>
      </g>
     </g>
     <g id="text_14">
      <!-- 65 -->
      <g transform="translate(1140.429875 649.812812)scale(0.22 -0.22)">
       <use xlink:href="#DejaVuSans-36"/>
       <use xlink:href="#DejaVuSans-35" x="63.623047"/>
      </g>
     </g>
    </g>
    <g id="xtick_15">
     <g id="line2d_15">
      <g>
       <use xlink:href="#m7e11f63f03" x="1198.054938" y="626.09625" style="stroke: #000000; stroke-width: 0.8"/>
      </g>
     </g>
     <g id="text_15">
      <!-- 70 -->
      <g transform="translate(1184.057438 649.812812)scale(0.22 -0.22)">
       <defs>
        <path id="DejaVuSans-37" d="M 525 4666 
L 3525 4666 
L 3525 4397 
L 1831 0 
L 1172 0 
L 2766 4134 
L 525 4134 
L 525 4666 
z
" transform="scale(0.015625)"/>
       </defs>
       <use xlink:href="#DejaVuSans-37"/>
       <use xlink:href="#DejaVuSans-30" x="63.623047"/>
      </g>
     </g>
    </g>
    <g id="xtick_16">
     <g id="line2d_16">
      <g>
       <use xlink:href="#m7e11f63f03" x="1241.6825" y="626.09625" style="stroke: #000000; stroke-width: 0.8"/>
      </g>
     </g>
     <g id="text_16">
      <!-- 75 -->
      <g transform="translate(1227.685 649.812812)scale(0.22 -0.22)">
       <use xlink:href="#DejaVuSans-37"/>
       <use xlink:href="#DejaVuSans-35" x="63.623047"/>
      </g>
     </g>
    </g>
    <g id="text_17">
     <!-- Number of responses -->
     <g transform="translate(797.004375 675.104687)scale(0.22 -0.22)">
      <defs>
       <path id="DejaVuSans-4e" d="M 628 4666 
L 1478 4666 
L 3547 763 
L 3547 4666 
L 4159 4666 
L 4159 0 
L 3309 0 
L 1241 3903 
L 1241 0 
L 628 0 
L 628 4666 
z
" transform="scale(0.015625)"/>
       <path id="DejaVuSans-75" d="M 544 1381 
L 544 3500 
L 1119 3500 
L 1119 1403 
Q 1119 906 1312 657 
Q 1506 409 1894 409 
Q 2359 409 2629 706 
Q 2900 1003 2900 1516 
L 2900 3500 
L 3475 3500 
L 3475 0 
L 2900 0 
L 2900 538 
Q 2691 219 2414 64 
Q 2138 -91 1772 -91 
Q 1169 -91 856 284 
Q 544 659 544 1381 
z
M 1991 3584 
L 1991 3584 
z
" transform="scale(0.015625)"/>
       <path id="DejaVuSans-6d" d="M 3328 2828 
Q 3544 3216 3844 3400 
Q 4144 3584 4550 3584 
Q 5097 3584 5394 3201 
Q 5691 2819 5691 2113 
L 5691 0 
L 5113 0 
L 5113 2094 
Q 5113 2597 4934 2840 
Q 4756 3084 4391 3084 
Q 3944 3084 3684 2787 
Q 3425 2491 3425 1978 
L 3425 0 
L 2847 0 
L 2847 2094 
Q 2847 2600 2669 2842 
Q 2491 3084 2119 3084 
Q 1678 3084 1418 2786 
Q 1159 2488 1159 1978 
L 1159 0 
L 581 0 
L 581 3500 
L 1159 3500 
L 1159 2956 
Q 1356 3278 1631 3431 
Q 1906 3584 2284 3584 
Q 2666 3584 2933 3390 
Q 3200 3197 3328 2828 
z
" transform="scale(0.015625)"/>
       <path id="DejaVuSans-62" d="M 3116 1747 
Q 3116 2381 2855 2742 
Q 2594 3103 2138 3103 
Q 1681 3103 1420 2742 
Q 1159 2381 1159 1747 
Q 1159 1113 1420 752 
Q 1681 391 2138 391 
Q 2594 391 2855 752 
Q 3116 1113 3116 1747 
z
M 1159 2969 
Q 1341 3281 1617 3432 
Q 1894 3584 2278 3584 
Q 2916 3584 3314 3078 
Q 3713 2572 3713 1747 
Q 3713 922 3314 415 
Q 2916 -91 2278 -91 
Q 1894 -91 1617 61 
Q 1341 213 1159 525 
L 1159 0 
L 581 0 
L 581 4863 
L 1159 4863 
L 1159 2969 
z
" transform="scale(0.015625)"/>
       <path id="DejaVuSans-65" d="M 3597 1894 
L 3597 1613 
L 953 1613 
Q 991 1019 1311 708 
Q 1631 397 2203 397 
Q 2534 397 2845 478 
Q 3156 559 3463 722 
L 3463 178 
Q 3153 47 2828 -22 
Q 2503 -91 2169 -91 
Q 1331 -91 842 396 
Q 353 884 353 1716 
Q 353 2575 817 3079 
Q 1281 3584 2069 3584 
Q 2775 3584 3186 3129 
Q 3597 2675 3597 1894 
z
M 3022 2063 
Q 3016 2534 2758 2815 
Q 2500 3097 2075 3097 
Q 1594 3097 1305 2825 
Q 1016 2553 972 2059 
L 3022 2063 
z
" transform="scale(0.015625)"/>
       <path id="DejaVuSans-72" d="M 2631 2963 
Q 2534 3019 2420 3045 
Q 2306 3072 2169 3072 
Q 1681 3072 1420 2755 
Q 1159 2438 1159 1844 
L 1159 0 
L 581 0 
L 581 3500 
L 1159 3500 
L 1159 2956 
Q 1341 3275 1631 3429 
Q 1922 3584 2338 3584 
Q 2397 3584 2469 3576 
Q 2541 3569 2628 3553 
L 2631 2963 
z
" transform="scale(0.015625)"/>
       <path id="DejaVuSans-20" transform="scale(0.015625)"/>
       <path id="DejaVuSans-6f" d="M 1959 3097 
Q 1497 3097 1228 2736 
Q 959 2375 959 1747 
Q 959 1119 1226 758 
Q 1494 397 1959 397 
Q 2419 397 2687 759 
Q 2956 1122 2956 1747 
Q 2956 2369 2687 2733 
Q 2419 3097 1959 3097 
z
M 1959 3584 
Q 2709 3584 3137 3096 
Q 3566 2609 3566 1747 
Q 3566 888 3137 398 
Q 2709 -91 1959 -91 
Q 1206 -91 779 398 
Q 353 888 353 1747 
Q 353 2609 779 3096 
Q 1206 3584 1959 3584 
z
" transform="scale(0.015625)"/>
       <path id="DejaVuSans-66" d="M 2375 4863 
L 2375 4384 
L 1825 4384 
Q 1516 4384 1395 4259 
Q 1275 4134 1275 3809 
L 1275 3500 
L 2222 3500 
L 2222 3053 
L 1275 3053 
L 1275 0 
L 697 0 
L 697 3053 
L 147 3053 
L 147 3500 
L 697 3500 
L 697 3744 
Q 697 4328 969 4595 
Q 1241 4863 1831 4863 
L 2375 4863 
z
" transform="scale(0.015625)"/>
       <path id="DejaVuSans-73" d="M 2834 3397 
L 2834 2853 
Q 2591 2978 2328 3040 
Q 2066 3103 1784 3103 
Q 1356 3103 1142 2972 
Q 928 2841 928 2578 
Q 928 2378 1081 2264 
Q 1234 2150 1697 2047 
L 1894 2003 
Q 2506 1872 2764 1633 
Q 3022 1394 3022 966 
Q 3022 478 2636 193 
Q 2250 -91 1575 -91 
Q 1294 -91 989 -36 
Q 684 19 347 128 
L 347 722 
Q 666 556 975 473 
Q 1284 391 1588 391 
Q 1994 391 2212 530 
Q 2431 669 2431 922 
Q 2431 1156 2273 1281 
Q 2116 1406 1581 1522 
L 1381 1569 
Q 847 1681 609 1914 
Q 372 2147 372 2553 
Q 372 3047 722 3315 
Q 1072 3584 1716 3584 
Q 2034 3584 2315 3537 
Q 2597 3491 2834 3397 
z
" transform="scale(0.015625)"/>
       <path id="DejaVuSans-70" d="M 1159 525 
L 1159 -1331 
L 581 -1331 
L 581 3500 
L 1159 3500 
L 1159 2969 
Q 1341 3281 1617 3432 
Q 1894 3584 2278 3584 
Q 2916 3584 3314 3078 
Q 3713 2572 3713 1747 
Q 3713 922 3314 415 
Q 2916 -91 2278 -91 
Q 1894 -91 1617 61 
Q 1341 213 1159 525 
z
M 3116 1747 
Q 3116 2381 2855 2742 
Q 2594 3103 2138 3103 
Q 1681 3103 1420 2742 
Q 1159 2381 1159 1747 
Q 1159 1113 1420 752 
Q 1681 391 2138 391 
Q 2594 391 2855 752 
Q 3116 1113 3116 1747 
z
" transform="scale(0.015625)"/>
       <path id="DejaVuSans-6e" d="M 3513 2113 
L 3513 0 
L 2938 0 
L 2938 2094 
Q 2938 2591 2744 2837 
Q 2550 3084 2163 3084 
Q 1697 3084 1428 2787 
Q 1159 2491 1159 1978 
L 1159 0 
L 581 0 
L 581 3500 
L 1159 3500 
L 1159 2956 
Q 1366 3272 1645 3428 
Q 1925 3584 2291 3584 
Q 2894 3584 3203 3211 
Q 3513 2838 3513 2113 
z
" transform="scale(0.015625)"/>
      </defs>
      <use xlink:href="#DejaVuSans-4e"/>
      <use xlink:href="#DejaVuSans-75" x="74.804688"/>
      <use xlink:href="#DejaVuSans-6d" x="138.183594"/>
      <use xlink:href="#DejaVuSans-62" x="235.595703"/>
      <use xlink:href="#DejaVuSans-65" x="299.072266"/>
      <use xlink:href="#DejaVuSans-72" x="360.595703"/>
      <use xlink:href="#DejaVuSans-20" x="401.708984"/>
      <use xlink:href="#DejaVuSans-6f" x="433.496094"/>
      <use xlink:href="#DejaVuSans-66" x="494.677734"/>
      <use xlink:href="#DejaVuSans-20" x="529.882812"/>
      <use xlink:href="#DejaVuSans-72" x="561.669922"/>
      <use xlink:href="#DejaVuSans-65" x="600.533203"/>
      <use xlink:href="#DejaVuSans-73" x="662.056641"/>
      <use xlink:href="#DejaVuSans-70" x="714.15625"/>
      <use xlink:href="#DejaVuSans-6f" x="777.632812"/>
      <use xlink:href="#DejaVuSans-6e" x="838.814453"/>
      <use xlink:href="#DejaVuSans-73" x="902.193359"/>
      <use xlink:href="#DejaVuSans-65" x="954.292969"/>
      <use xlink:href="#DejaVuSans-73" x="1015.816406"/>
     </g>
    </g>
   </g>
   <g id="matplotlib.axis_2">
    <g id="ytick_1">
     <g id="line2d_17">
      <defs>
       <path id="mf81380181a" d="M 0 0 
L -3.5 0 
" style="stroke: #000000; stroke-width: 0.8"/>
      </defs>
      <g>
       <use xlink:href="#mf81380181a" x="587.269063" y="603.294851" style="stroke: #000000; stroke-width: 0.8"/>
      </g>
     </g>
     <g id="text_18">
      <!-- Others -->
      <g transform="translate(506.342188 611.653132)scale(0.22 -0.22)">
       <defs>
        <path id="DejaVuSans-4f" d="M 2522 4238 
Q 1834 4238 1429 3725 
Q 1025 3213 1025 2328 
Q 1025 1447 1429 934 
Q 1834 422 2522 422 
Q 3209 422 3611 934 
Q 4013 1447 4013 2328 
Q 4013 3213 3611 3725 
Q 3209 4238 2522 4238 
z
M 2522 4750 
Q 3503 4750 4090 4092 
Q 4678 3434 4678 2328 
Q 4678 1225 4090 567 
Q 3503 -91 2522 -91 
Q 1538 -91 948 565 
Q 359 1222 359 2328 
Q 359 3434 948 4092 
Q 1538 4750 2522 4750 
z
" transform="scale(0.015625)"/>
        <path id="DejaVuSans-74" d="M 1172 4494 
L 1172 3500 
L 2356 3500 
L 2356 3053 
L 1172 3053 
L 1172 1153 
Q 1172 725 1289 603 
Q 1406 481 1766 481 
L 2356 481 
L 2356 0 
L 1766 0 
Q 1100 0 847 248 
Q 594 497 594 1153 
L 594 3053 
L 172 3053 
L 172 3500 
L 594 3500 
L 594 4494 
L 1172 4494 
z
" transform="scale(0.015625)"/>
        <path id="DejaVuSans-68" d="M 3513 2113 
L 3513 0 
L 2938 0 
L 2938 2094 
Q 2938 2591 2744 2837 
Q 2550 3084 2163 3084 
Q 1697 3084 1428 2787 
Q 1159 2491 1159 1978 
L 1159 0 
L 581 0 
L 581 4863 
L 1159 4863 
L 1159 2956 
Q 1366 3272 1645 3428 
Q 1925 3584 2291 3584 
Q 2894 3584 3203 3211 
Q 3513 2838 3513 2113 
z
" transform="scale(0.015625)"/>
       </defs>
       <use xlink:href="#DejaVuSans-4f"/>
       <use xlink:href="#DejaVuSans-74" x="78.710938"/>
       <use xlink:href="#DejaVuSans-68" x="117.919922"/>
       <use xlink:href="#DejaVuSans-65" x="181.298828"/>
       <use xlink:href="#DejaVuSans-72" x="242.822266"/>
       <use xlink:href="#DejaVuSans-73" x="283.935547"/>
      </g>
     </g>
    </g>
    <g id="ytick_2">
     <g id="line2d_18">
      <g>
       <use xlink:href="#mf81380181a" x="587.269063" y="557.692053" style="stroke: #000000; stroke-width: 0.8"/>
      </g>
     </g>
     <g id="text_19">
      <!-- Predictive metagenomics -->
      <g transform="translate(301.762812 566.050334)scale(0.22 -0.22)">
       <defs>
        <path id="DejaVuSans-50" d="M 1259 4147 
L 1259 2394 
L 2053 2394 
Q 2494 2394 2734 2622 
Q 2975 2850 2975 3272 
Q 2975 3691 2734 3919 
Q 2494 4147 2053 4147 
L 1259 4147 
z
M 628 4666 
L 2053 4666 
Q 2838 4666 3239 4311 
Q 3641 3956 3641 3272 
Q 3641 2581 3239 2228 
Q 2838 1875 2053 1875 
L 1259 1875 
L 1259 0 
L 628 0 
L 628 4666 
z
" transform="scale(0.015625)"/>
        <path id="DejaVuSans-64" d="M 2906 2969 
L 2906 4863 
L 3481 4863 
L 3481 0 
L 2906 0 
L 2906 525 
Q 2725 213 2448 61 
Q 2172 -91 1784 -91 
Q 1150 -91 751 415 
Q 353 922 353 1747 
Q 353 2572 751 3078 
Q 1150 3584 1784 3584 
Q 2172 3584 2448 3432 
Q 2725 3281 2906 2969 
z
M 947 1747 
Q 947 1113 1208 752 
Q 1469 391 1925 391 
Q 2381 391 2643 752 
Q 2906 1113 2906 1747 
Q 2906 2381 2643 2742 
Q 2381 3103 1925 3103 
Q 1469 3103 1208 2742 
Q 947 2381 947 1747 
z
" transform="scale(0.015625)"/>
        <path id="DejaVuSans-69" d="M 603 3500 
L 1178 3500 
L 1178 0 
L 603 0 
L 603 3500 
z
M 603 4863 
L 1178 4863 
L 1178 4134 
L 603 4134 
L 603 4863 
z
" transform="scale(0.015625)"/>
        <path id="DejaVuSans-63" d="M 3122 3366 
L 3122 2828 
Q 2878 2963 2633 3030 
Q 2388 3097 2138 3097 
Q 1578 3097 1268 2742 
Q 959 2388 959 1747 
Q 959 1106 1268 751 
Q 1578 397 2138 397 
Q 2388 397 2633 464 
Q 2878 531 3122 666 
L 3122 134 
Q 2881 22 2623 -34 
Q 2366 -91 2075 -91 
Q 1284 -91 818 406 
Q 353 903 353 1747 
Q 353 2603 823 3093 
Q 1294 3584 2113 3584 
Q 2378 3584 2631 3529 
Q 2884 3475 3122 3366 
z
" transform="scale(0.015625)"/>
        <path id="DejaVuSans-76" d="M 191 3500 
L 800 3500 
L 1894 563 
L 2988 3500 
L 3597 3500 
L 2284 0 
L 1503 0 
L 191 3500 
z
" transform="scale(0.015625)"/>
        <path id="DejaVuSans-61" d="M 2194 1759 
Q 1497 1759 1228 1600 
Q 959 1441 959 1056 
Q 959 750 1161 570 
Q 1363 391 1709 391 
Q 2188 391 2477 730 
Q 2766 1069 2766 1631 
L 2766 1759 
L 2194 1759 
z
M 3341 1997 
L 3341 0 
L 2766 0 
L 2766 531 
Q 2569 213 2275 61 
Q 1981 -91 1556 -91 
Q 1019 -91 701 211 
Q 384 513 384 1019 
Q 384 1609 779 1909 
Q 1175 2209 1959 2209 
L 2766 2209 
L 2766 2266 
Q 2766 2663 2505 2880 
Q 2244 3097 1772 3097 
Q 1472 3097 1187 3025 
Q 903 2953 641 2809 
L 641 3341 
Q 956 3463 1253 3523 
Q 1550 3584 1831 3584 
Q 2591 3584 2966 3190 
Q 3341 2797 3341 1997 
z
" transform="scale(0.015625)"/>
        <path id="DejaVuSans-67" d="M 2906 1791 
Q 2906 2416 2648 2759 
Q 2391 3103 1925 3103 
Q 1463 3103 1205 2759 
Q 947 2416 947 1791 
Q 947 1169 1205 825 
Q 1463 481 1925 481 
Q 2391 481 2648 825 
Q 2906 1169 2906 1791 
z
M 3481 434 
Q 3481 -459 3084 -895 
Q 2688 -1331 1869 -1331 
Q 1566 -1331 1297 -1286 
Q 1028 -1241 775 -1147 
L 775 -588 
Q 1028 -725 1275 -790 
Q 1522 -856 1778 -856 
Q 2344 -856 2625 -561 
Q 2906 -266 2906 331 
L 2906 616 
Q 2728 306 2450 153 
Q 2172 0 1784 0 
Q 1141 0 747 490 
Q 353 981 353 1791 
Q 353 2603 747 3093 
Q 1141 3584 1784 3584 
Q 2172 3584 2450 3431 
Q 2728 3278 2906 2969 
L 2906 3500 
L 3481 3500 
L 3481 434 
z
" transform="scale(0.015625)"/>
       </defs>
       <use xlink:href="#DejaVuSans-50"/>
       <use xlink:href="#DejaVuSans-72" x="58.552734"/>
       <use xlink:href="#DejaVuSans-65" x="97.416016"/>
       <use xlink:href="#DejaVuSans-64" x="158.939453"/>
       <use xlink:href="#DejaVuSans-69" x="222.416016"/>
       <use xlink:href="#DejaVuSans-63" x="250.199219"/>
       <use xlink:href="#DejaVuSans-74" x="305.179688"/>
       <use xlink:href="#DejaVuSans-69" x="344.388672"/>
       <use xlink:href="#DejaVuSans-76" x="372.171875"/>
       <use xlink:href="#DejaVuSans-65" x="431.351562"/>
       <use xlink:href="#DejaVuSans-20" x="492.875"/>
       <use xlink:href="#DejaVuSans-6d" x="524.662109"/>
       <use xlink:href="#DejaVuSans-65" x="622.074219"/>
       <use xlink:href="#DejaVuSans-74" x="683.597656"/>
       <use xlink:href="#DejaVuSans-61" x="722.806641"/>
       <use xlink:href="#DejaVuSans-67" x="784.085938"/>
       <use xlink:href="#DejaVuSans-65" x="847.5625"/>
       <use xlink:href="#DejaVuSans-6e" x="909.085938"/>
       <use xlink:href="#DejaVuSans-6f" x="972.464844"/>
       <use xlink:href="#DejaVuSans-6d" x="1033.646484"/>
       <use xlink:href="#DejaVuSans-69" x="1131.058594"/>
       <use xlink:href="#DejaVuSans-63" x="1158.841797"/>
       <use xlink:href="#DejaVuSans-73" x="1213.822266"/>
      </g>
     </g>
    </g>
    <g id="ytick_3">
     <g id="line2d_19">
      <g>
       <use xlink:href="#mf81380181a" x="587.269063" y="512.089255" style="stroke: #000000; stroke-width: 0.8"/>
      </g>
     </g>
     <g id="text_20">
      <!-- Combination of multiomic approaches -->
      <g transform="translate(160.928438 520.447536)scale(0.22 -0.22)">
       <defs>
        <path id="DejaVuSans-43" d="M 4122 4306 
L 4122 3641 
Q 3803 3938 3442 4084 
Q 3081 4231 2675 4231 
Q 1875 4231 1450 3742 
Q 1025 3253 1025 2328 
Q 1025 1406 1450 917 
Q 1875 428 2675 428 
Q 3081 428 3442 575 
Q 3803 722 4122 1019 
L 4122 359 
Q 3791 134 3420 21 
Q 3050 -91 2638 -91 
Q 1578 -91 968 557 
Q 359 1206 359 2328 
Q 359 3453 968 4101 
Q 1578 4750 2638 4750 
Q 3056 4750 3426 4639 
Q 3797 4528 4122 4306 
z
" transform="scale(0.015625)"/>
        <path id="DejaVuSans-6c" d="M 603 4863 
L 1178 4863 
L 1178 0 
L 603 0 
L 603 4863 
z
" transform="scale(0.015625)"/>
       </defs>
       <use xlink:href="#DejaVuSans-43"/>
       <use xlink:href="#DejaVuSans-6f" x="69.824219"/>
       <use xlink:href="#DejaVuSans-6d" x="131.005859"/>
       <use xlink:href="#DejaVuSans-62" x="228.417969"/>
       <use xlink:href="#DejaVuSans-69" x="291.894531"/>
       <use xlink:href="#DejaVuSans-6e" x="319.677734"/>
       <use xlink:href="#DejaVuSans-61" x="383.056641"/>
       <use xlink:href="#DejaVuSans-74" x="444.335938"/>
       <use xlink:href="#DejaVuSans-69" x="483.544922"/>
       <use xlink:href="#DejaVuSans-6f" x="511.328125"/>
       <use xlink:href="#DejaVuSans-6e" x="572.509766"/>
       <use xlink:href="#DejaVuSans-20" x="635.888672"/>
       <use xlink:href="#DejaVuSans-6f" x="667.675781"/>
       <use xlink:href="#DejaVuSans-66" x="728.857422"/>
       <use xlink:href="#DejaVuSans-20" x="764.0625"/>
       <use xlink:href="#DejaVuSans-6d" x="795.849609"/>
       <use xlink:href="#DejaVuSans-75" x="893.261719"/>
       <use xlink:href="#DejaVuSans-6c" x="956.640625"/>
       <use xlink:href="#DejaVuSans-74" x="984.423828"/>
       <use xlink:href="#DejaVuSans-69" x="1023.632812"/>
       <use xlink:href="#DejaVuSans-6f" x="1051.416016"/>
       <use xlink:href="#DejaVuSans-6d" x="1112.597656"/>
       <use xlink:href="#DejaVuSans-69" x="1210.009766"/>
       <use xlink:href="#DejaVuSans-63" x="1237.792969"/>
       <use xlink:href="#DejaVuSans-20" x="1292.773438"/>
       <use xlink:href="#DejaVuSans-61" x="1324.560547"/>
       <use xlink:href="#DejaVuSans-70" x="1385.839844"/>
       <use xlink:href="#DejaVuSans-70" x="1449.316406"/>
       <use xlink:href="#DejaVuSans-72" x="1512.792969"/>
       <use xlink:href="#DejaVuSans-6f" x="1551.65625"/>
       <use xlink:href="#DejaVuSans-61" x="1612.837891"/>
       <use xlink:href="#DejaVuSans-63" x="1674.117188"/>
       <use xlink:href="#DejaVuSans-68" x="1729.097656"/>
       <use xlink:href="#DejaVuSans-65" x="1792.476562"/>
       <use xlink:href="#DejaVuSans-73" x="1854"/>
      </g>
     </g>
    </g>
    <g id="ytick_4">
     <g id="line2d_20">
      <g>
       <use xlink:href="#mf81380181a" x="587.269063" y="466.486457" style="stroke: #000000; stroke-width: 0.8"/>
      </g>
     </g>
     <g id="text_21">
      <!-- Pathogen tracking -->
      <g transform="translate(380.038125 474.844738)scale(0.22 -0.22)">
       <defs>
        <path id="DejaVuSans-6b" d="M 581 4863 
L 1159 4863 
L 1159 1991 
L 2875 3500 
L 3609 3500 
L 1753 1863 
L 3688 0 
L 2938 0 
L 1159 1709 
L 1159 0 
L 581 0 
L 581 4863 
z
" transform="scale(0.015625)"/>
       </defs>
       <use xlink:href="#DejaVuSans-50"/>
       <use xlink:href="#DejaVuSans-61" x="55.802734"/>
       <use xlink:href="#DejaVuSans-74" x="117.082031"/>
       <use xlink:href="#DejaVuSans-68" x="156.291016"/>
       <use xlink:href="#DejaVuSans-6f" x="219.669922"/>
       <use xlink:href="#DejaVuSans-67" x="280.851562"/>
       <use xlink:href="#DejaVuSans-65" x="344.328125"/>
       <use xlink:href="#DejaVuSans-6e" x="405.851562"/>
       <use xlink:href="#DejaVuSans-20" x="469.230469"/>
       <use xlink:href="#DejaVuSans-74" x="501.017578"/>
       <use xlink:href="#DejaVuSans-72" x="540.226562"/>
       <use xlink:href="#DejaVuSans-61" x="581.339844"/>
       <use xlink:href="#DejaVuSans-63" x="642.619141"/>
       <use xlink:href="#DejaVuSans-6b" x="697.599609"/>
       <use xlink:href="#DejaVuSans-69" x="755.509766"/>
       <use xlink:href="#DejaVuSans-6e" x="783.292969"/>
       <use xlink:href="#DejaVuSans-67" x="846.671875"/>
      </g>
     </g>
    </g>
    <g id="ytick_5">
     <g id="line2d_21">
      <g>
       <use xlink:href="#mf81380181a" x="587.269063" y="420.883659" style="stroke: #000000; stroke-width: 0.8"/>
      </g>
     </g>
     <g id="text_22">
      <!-- Metagenome assembled genome (MAG) building -->
      <g transform="translate(42.998125 429.24194)scale(0.22 -0.22)">
       <defs>
        <path id="DejaVuSans-4d" d="M 628 4666 
L 1569 4666 
L 2759 1491 
L 3956 4666 
L 4897 4666 
L 4897 0 
L 4281 0 
L 4281 4097 
L 3078 897 
L 2444 897 
L 1241 4097 
L 1241 0 
L 628 0 
L 628 4666 
z
" transform="scale(0.015625)"/>
        <path id="DejaVuSans-28" d="M 1984 4856 
Q 1566 4138 1362 3434 
Q 1159 2731 1159 2009 
Q 1159 1288 1364 580 
Q 1569 -128 1984 -844 
L 1484 -844 
Q 1016 -109 783 600 
Q 550 1309 550 2009 
Q 550 2706 781 3412 
Q 1013 4119 1484 4856 
L 1984 4856 
z
" transform="scale(0.015625)"/>
        <path id="DejaVuSans-41" d="M 2188 4044 
L 1331 1722 
L 3047 1722 
L 2188 4044 
z
M 1831 4666 
L 2547 4666 
L 4325 0 
L 3669 0 
L 3244 1197 
L 1141 1197 
L 716 0 
L 50 0 
L 1831 4666 
z
" transform="scale(0.015625)"/>
        <path id="DejaVuSans-47" d="M 3809 666 
L 3809 1919 
L 2778 1919 
L 2778 2438 
L 4434 2438 
L 4434 434 
Q 4069 175 3628 42 
Q 3188 -91 2688 -91 
Q 1594 -91 976 548 
Q 359 1188 359 2328 
Q 359 3472 976 4111 
Q 1594 4750 2688 4750 
Q 3144 4750 3555 4637 
Q 3966 4525 4313 4306 
L 4313 3634 
Q 3963 3931 3569 4081 
Q 3175 4231 2741 4231 
Q 1884 4231 1454 3753 
Q 1025 3275 1025 2328 
Q 1025 1384 1454 906 
Q 1884 428 2741 428 
Q 3075 428 3337 486 
Q 3600 544 3809 666 
z
" transform="scale(0.015625)"/>
        <path id="DejaVuSans-29" d="M 513 4856 
L 1013 4856 
Q 1481 4119 1714 3412 
Q 1947 2706 1947 2009 
Q 1947 1309 1714 600 
Q 1481 -109 1013 -844 
L 513 -844 
Q 928 -128 1133 580 
Q 1338 1288 1338 2009 
Q 1338 2731 1133 3434 
Q 928 4138 513 4856 
z
" transform="scale(0.015625)"/>
       </defs>
       <use xlink:href="#DejaVuSans-4d"/>
       <use xlink:href="#DejaVuSans-65" x="86.279297"/>
       <use xlink:href="#DejaVuSans-74" x="147.802734"/>
       <use xlink:href="#DejaVuSans-61" x="187.011719"/>
       <use xlink:href="#DejaVuSans-67" x="248.291016"/>
       <use xlink:href="#DejaVuSans-65" x="311.767578"/>
       <use xlink:href="#DejaVuSans-6e" x="373.291016"/>
       <use xlink:href="#DejaVuSans-6f" x="436.669922"/>
       <use xlink:href="#DejaVuSans-6d" x="497.851562"/>
       <use xlink:href="#DejaVuSans-65" x="595.263672"/>
       <use xlink:href="#DejaVuSans-20" x="656.787109"/>
       <use xlink:href="#DejaVuSans-61" x="688.574219"/>
       <use xlink:href="#DejaVuSans-73" x="749.853516"/>
       <use xlink:href="#DejaVuSans-73" x="801.953125"/>
       <use xlink:href="#DejaVuSans-65" x="854.052734"/>
       <use xlink:href="#DejaVuSans-6d" x="915.576172"/>
       <use xlink:href="#DejaVuSans-62" x="1012.988281"/>
       <use xlink:href="#DejaVuSans-6c" x="1076.464844"/>
       <use xlink:href="#DejaVuSans-65" x="1104.248047"/>
       <use xlink:href="#DejaVuSans-64" x="1165.771484"/>
       <use xlink:href="#DejaVuSans-20" x="1229.248047"/>
       <use xlink:href="#DejaVuSans-67" x="1261.035156"/>
       <use xlink:href="#DejaVuSans-65" x="1324.511719"/>
       <use xlink:href="#DejaVuSans-6e" x="1386.035156"/>
       <use xlink:href="#DejaVuSans-6f" x="1449.414062"/>
       <use xlink:href="#DejaVuSans-6d" x="1510.595703"/>
       <use xlink:href="#DejaVuSans-65" x="1608.007812"/>
       <use xlink:href="#DejaVuSans-20" x="1669.53125"/>
       <use xlink:href="#DejaVuSans-28" x="1701.318359"/>
       <use xlink:href="#DejaVuSans-4d" x="1740.332031"/>
       <use xlink:href="#DejaVuSans-41" x="1826.611328"/>
       <use xlink:href="#DejaVuSans-47" x="1893.269531"/>
       <use xlink:href="#DejaVuSans-29" x="1970.759766"/>
       <use xlink:href="#DejaVuSans-20" x="2009.773438"/>
       <use xlink:href="#DejaVuSans-62" x="2041.560547"/>
       <use xlink:href="#DejaVuSans-75" x="2105.037109"/>
       <use xlink:href="#DejaVuSans-69" x="2168.416016"/>
       <use xlink:href="#DejaVuSans-6c" x="2196.199219"/>
       <use xlink:href="#DejaVuSans-64" x="2223.982422"/>
       <use xlink:href="#DejaVuSans-69" x="2287.458984"/>
       <use xlink:href="#DejaVuSans-6e" x="2315.242188"/>
       <use xlink:href="#DejaVuSans-67" x="2378.621094"/>
      </g>
     </g>
    </g>
    <g id="ytick_6">
     <g id="line2d_22">
      <g>
       <use xlink:href="#mf81380181a" x="587.269063" y="375.280861" style="stroke: #000000; stroke-width: 0.8"/>
      </g>
     </g>
     <g id="text_23">
      <!-- Single nucleotide polymorphism (SNP) identification -->
      <g transform="translate(7.2 383.639142)scale(0.22 -0.22)">
       <defs>
        <path id="DejaVuSans-53" d="M 3425 4513 
L 3425 3897 
Q 3066 4069 2747 4153 
Q 2428 4238 2131 4238 
Q 1616 4238 1336 4038 
Q 1056 3838 1056 3469 
Q 1056 3159 1242 3001 
Q 1428 2844 1947 2747 
L 2328 2669 
Q 3034 2534 3370 2195 
Q 3706 1856 3706 1288 
Q 3706 609 3251 259 
Q 2797 -91 1919 -91 
Q 1588 -91 1214 -16 
Q 841 59 441 206 
L 441 856 
Q 825 641 1194 531 
Q 1563 422 1919 422 
Q 2459 422 2753 634 
Q 3047 847 3047 1241 
Q 3047 1584 2836 1778 
Q 2625 1972 2144 2069 
L 1759 2144 
Q 1053 2284 737 2584 
Q 422 2884 422 3419 
Q 422 4038 858 4394 
Q 1294 4750 2059 4750 
Q 2388 4750 2728 4690 
Q 3069 4631 3425 4513 
z
" transform="scale(0.015625)"/>
        <path id="DejaVuSans-79" d="M 2059 -325 
Q 1816 -950 1584 -1140 
Q 1353 -1331 966 -1331 
L 506 -1331 
L 506 -850 
L 844 -850 
Q 1081 -850 1212 -737 
Q 1344 -625 1503 -206 
L 1606 56 
L 191 3500 
L 800 3500 
L 1894 763 
L 2988 3500 
L 3597 3500 
L 2059 -325 
z
" transform="scale(0.015625)"/>
       </defs>
       <use xlink:href="#DejaVuSans-53"/>
       <use xlink:href="#DejaVuSans-69" x="63.476562"/>
       <use xlink:href="#DejaVuSans-6e" x="91.259766"/>
       <use xlink:href="#DejaVuSans-67" x="154.638672"/>
       <use xlink:href="#DejaVuSans-6c" x="218.115234"/>
       <use xlink:href="#DejaVuSans-65" x="245.898438"/>
       <use xlink:href="#DejaVuSans-20" x="307.421875"/>
       <use xlink:href="#DejaVuSans-6e" x="339.208984"/>
       <use xlink:href="#DejaVuSans-75" x="402.587891"/>
       <use xlink:href="#DejaVuSans-63" x="465.966797"/>
       <use xlink:href="#DejaVuSans-6c" x="520.947266"/>
       <use xlink:href="#DejaVuSans-65" x="548.730469"/>
       <use xlink:href="#DejaVuSans-6f" x="610.253906"/>
       <use xlink:href="#DejaVuSans-74" x="671.435547"/>
       <use xlink:href="#DejaVuSans-69" x="710.644531"/>
       <use xlink:href="#DejaVuSans-64" x="738.427734"/>
       <use xlink:href="#DejaVuSans-65" x="801.904297"/>
       <use xlink:href="#DejaVuSans-20" x="863.427734"/>
       <use xlink:href="#DejaVuSans-70" x="895.214844"/>
       <use xlink:href="#DejaVuSans-6f" x="958.691406"/>
       <use xlink:href="#DejaVuSans-6c" x="1019.873047"/>
       <use xlink:href="#DejaVuSans-79" x="1047.65625"/>
       <use xlink:href="#DejaVuSans-6d" x="1106.835938"/>
       <use xlink:href="#DejaVuSans-6f" x="1204.248047"/>
       <use xlink:href="#DejaVuSans-72" x="1265.429688"/>
       <use xlink:href="#DejaVuSans-70" x="1306.542969"/>
       <use xlink:href="#DejaVuSans-68" x="1370.019531"/>
       <use xlink:href="#DejaVuSans-69" x="1433.398438"/>
       <use xlink:href="#DejaVuSans-73" x="1461.181641"/>
       <use xlink:href="#DejaVuSans-6d" x="1513.28125"/>
       <use xlink:href="#DejaVuSans-20" x="1610.693359"/>
       <use xlink:href="#DejaVuSans-28" x="1642.480469"/>
       <use xlink:href="#DejaVuSans-53" x="1681.494141"/>
       <use xlink:href="#DejaVuSans-4e" x="1744.970703"/>
       <use xlink:href="#DejaVuSans-50" x="1819.775391"/>
       <use xlink:href="#DejaVuSans-29" x="1880.078125"/>
       <use xlink:href="#DejaVuSans-20" x="1919.091797"/>
       <use xlink:href="#DejaVuSans-69" x="1950.878906"/>
       <use xlink:href="#DejaVuSans-64" x="1978.662109"/>
       <use xlink:href="#DejaVuSans-65" x="2042.138672"/>
       <use xlink:href="#DejaVuSans-6e" x="2103.662109"/>
       <use xlink:href="#DejaVuSans-74" x="2167.041016"/>
       <use xlink:href="#DejaVuSans-69" x="2206.25"/>
       <use xlink:href="#DejaVuSans-66" x="2234.033203"/>
       <use xlink:href="#DejaVuSans-69" x="2269.238281"/>
       <use xlink:href="#DejaVuSans-63" x="2297.021484"/>
       <use xlink:href="#DejaVuSans-61" x="2352.001953"/>
       <use xlink:href="#DejaVuSans-74" x="2413.28125"/>
       <use xlink:href="#DejaVuSans-69" x="2452.490234"/>
       <use xlink:href="#DejaVuSans-6f" x="2480.273438"/>
       <use xlink:href="#DejaVuSans-6e" x="2541.455078"/>
      </g>
     </g>
    </g>
    <g id="ytick_7">
     <g id="line2d_23">
      <g>
       <use xlink:href="#mf81380181a" x="587.269063" y="329.678062" style="stroke: #000000; stroke-width: 0.8"/>
      </g>
     </g>
     <g id="text_24">
      <!-- Antimicrobial resistance detection -->
      <g transform="translate(204.533125 338.036344)scale(0.22 -0.22)">
       <use xlink:href="#DejaVuSans-41"/>
       <use xlink:href="#DejaVuSans-6e" x="68.408203"/>
       <use xlink:href="#DejaVuSans-74" x="131.787109"/>
       <use xlink:href="#DejaVuSans-69" x="170.996094"/>
       <use xlink:href="#DejaVuSans-6d" x="198.779297"/>
       <use xlink:href="#DejaVuSans-69" x="296.191406"/>
       <use xlink:href="#DejaVuSans-63" x="323.974609"/>
       <use xlink:href="#DejaVuSans-72" x="378.955078"/>
       <use xlink:href="#DejaVuSans-6f" x="417.818359"/>
       <use xlink:href="#DejaVuSans-62" x="479"/>
       <use xlink:href="#DejaVuSans-69" x="542.476562"/>
       <use xlink:href="#DejaVuSans-61" x="570.259766"/>
       <use xlink:href="#DejaVuSans-6c" x="631.539062"/>
       <use xlink:href="#DejaVuSans-20" x="659.322266"/>
       <use xlink:href="#DejaVuSans-72" x="691.109375"/>
       <use xlink:href="#DejaVuSans-65" x="729.972656"/>
       <use xlink:href="#DejaVuSans-73" x="791.496094"/>
       <use xlink:href="#DejaVuSans-69" x="843.595703"/>
       <use xlink:href="#DejaVuSans-73" x="871.378906"/>
       <use xlink:href="#DejaVuSans-74" x="923.478516"/>
       <use xlink:href="#DejaVuSans-61" x="962.6875"/>
       <use xlink:href="#DejaVuSans-6e" x="1023.966797"/>
       <use xlink:href="#DejaVuSans-63" x="1087.345703"/>
       <use xlink:href="#DejaVuSans-65" x="1142.326172"/>
       <use xlink:href="#DejaVuSans-20" x="1203.849609"/>
       <use xlink:href="#DejaVuSans-64" x="1235.636719"/>
       <use xlink:href="#DejaVuSans-65" x="1299.113281"/>
       <use xlink:href="#DejaVuSans-74" x="1360.636719"/>
       <use xlink:href="#DejaVuSans-65" x="1399.845703"/>
       <use xlink:href="#DejaVuSans-63" x="1461.369141"/>
       <use xlink:href="#DejaVuSans-74" x="1516.349609"/>
       <use xlink:href="#DejaVuSans-69" x="1555.558594"/>
       <use xlink:href="#DejaVuSans-6f" x="1583.341797"/>
       <use xlink:href="#DejaVuSans-6e" x="1644.523438"/>
      </g>
     </g>
    </g>
    <g id="ytick_8">
     <g id="line2d_24">
      <g>
       <use xlink:href="#mf81380181a" x="587.269063" y="284.075264" style="stroke: #000000; stroke-width: 0.8"/>
      </g>
     </g>
     <g id="text_25">
      <!-- Comparative analyses -->
      <g transform="translate(335.257812 292.433546)scale(0.22 -0.22)">
       <use xlink:href="#DejaVuSans-43"/>
       <use xlink:href="#DejaVuSans-6f" x="69.824219"/>
       <use xlink:href="#DejaVuSans-6d" x="131.005859"/>
       <use xlink:href="#DejaVuSans-70" x="228.417969"/>
       <use xlink:href="#DejaVuSans-61" x="291.894531"/>
       <use xlink:href="#DejaVuSans-72" x="353.173828"/>
       <use xlink:href="#DejaVuSans-61" x="394.287109"/>
       <use xlink:href="#DejaVuSans-74" x="455.566406"/>
       <use xlink:href="#DejaVuSans-69" x="494.775391"/>
       <use xlink:href="#DejaVuSans-76" x="522.558594"/>
       <use xlink:href="#DejaVuSans-65" x="581.738281"/>
       <use xlink:href="#DejaVuSans-20" x="643.261719"/>
       <use xlink:href="#DejaVuSans-61" x="675.048828"/>
       <use xlink:href="#DejaVuSans-6e" x="736.328125"/>
       <use xlink:href="#DejaVuSans-61" x="799.707031"/>
       <use xlink:href="#DejaVuSans-6c" x="860.986328"/>
       <use xlink:href="#DejaVuSans-79" x="888.769531"/>
       <use xlink:href="#DejaVuSans-73" x="947.949219"/>
       <use xlink:href="#DejaVuSans-65" x="1000.048828"/>
       <use xlink:href="#DejaVuSans-73" x="1061.572266"/>
      </g>
     </g>
    </g>
    <g id="ytick_9">
     <g id="line2d_25">
      <g>
       <use xlink:href="#mf81380181a" x="587.269063" y="238.472466" style="stroke: #000000; stroke-width: 0.8"/>
      </g>
     </g>
     <g id="text_26">
      <!-- Phylogenetic tree construction -->
      <g transform="translate(243.610625 246.830748)scale(0.22 -0.22)">
       <use xlink:href="#DejaVuSans-50"/>
       <use xlink:href="#DejaVuSans-68" x="60.302734"/>
       <use xlink:href="#DejaVuSans-79" x="123.681641"/>
       <use xlink:href="#DejaVuSans-6c" x="182.861328"/>
       <use xlink:href="#DejaVuSans-6f" x="210.644531"/>
       <use xlink:href="#DejaVuSans-67" x="271.826172"/>
       <use xlink:href="#DejaVuSans-65" x="335.302734"/>
       <use xlink:href="#DejaVuSans-6e" x="396.826172"/>
       <use xlink:href="#DejaVuSans-65" x="460.205078"/>
       <use xlink:href="#DejaVuSans-74" x="521.728516"/>
       <use xlink:href="#DejaVuSans-69" x="560.9375"/>
       <use xlink:href="#DejaVuSans-63" x="588.720703"/>
       <use xlink:href="#DejaVuSans-20" x="643.701172"/>
       <use xlink:href="#DejaVuSans-74" x="675.488281"/>
       <use xlink:href="#DejaVuSans-72" x="714.697266"/>
       <use xlink:href="#DejaVuSans-65" x="753.560547"/>
       <use xlink:href="#DejaVuSans-65" x="815.083984"/>
       <use xlink:href="#DejaVuSans-20" x="876.607422"/>
       <use xlink:href="#DejaVuSans-63" x="908.394531"/>
       <use xlink:href="#DejaVuSans-6f" x="963.375"/>
       <use xlink:href="#DejaVuSans-6e" x="1024.556641"/>
       <use xlink:href="#DejaVuSans-73" x="1087.935547"/>
       <use xlink:href="#DejaVuSans-74" x="1140.035156"/>
       <use xlink:href="#DejaVuSans-72" x="1179.244141"/>
       <use xlink:href="#DejaVuSans-75" x="1220.357422"/>
       <use xlink:href="#DejaVuSans-63" x="1283.736328"/>
       <use xlink:href="#DejaVuSans-74" x="1338.716797"/>
       <use xlink:href="#DejaVuSans-69" x="1377.925781"/>
       <use xlink:href="#DejaVuSans-6f" x="1405.708984"/>
       <use xlink:href="#DejaVuSans-6e" x="1466.890625"/>
      </g>
     </g>
    </g>
    <g id="ytick_10">
     <g id="line2d_26">
      <g>
       <use xlink:href="#mf81380181a" x="587.269063" y="192.869668" style="stroke: #000000; stroke-width: 0.8"/>
      </g>
     </g>
     <g id="text_27">
      <!-- Taxonomic profiling -->
      <g transform="translate(367.185313 201.22795)scale(0.22 -0.22)">
       <defs>
        <path id="DejaVuSans-54" d="M -19 4666 
L 3928 4666 
L 3928 4134 
L 2272 4134 
L 2272 0 
L 1638 0 
L 1638 4134 
L -19 4134 
L -19 4666 
z
" transform="scale(0.015625)"/>
        <path id="DejaVuSans-78" d="M 3513 3500 
L 2247 1797 
L 3578 0 
L 2900 0 
L 1881 1375 
L 863 0 
L 184 0 
L 1544 1831 
L 300 3500 
L 978 3500 
L 1906 2253 
L 2834 3500 
L 3513 3500 
z
" transform="scale(0.015625)"/>
       </defs>
       <use xlink:href="#DejaVuSans-54"/>
       <use xlink:href="#DejaVuSans-61" x="44.583984"/>
       <use xlink:href="#DejaVuSans-78" x="105.863281"/>
       <use xlink:href="#DejaVuSans-6f" x="161.917969"/>
       <use xlink:href="#DejaVuSans-6e" x="223.099609"/>
       <use xlink:href="#DejaVuSans-6f" x="286.478516"/>
       <use xlink:href="#DejaVuSans-6d" x="347.660156"/>
       <use xlink:href="#DejaVuSans-69" x="445.072266"/>
       <use xlink:href="#DejaVuSans-63" x="472.855469"/>
       <use xlink:href="#DejaVuSans-20" x="527.835938"/>
       <use xlink:href="#DejaVuSans-70" x="559.623047"/>
       <use xlink:href="#DejaVuSans-72" x="623.099609"/>
       <use xlink:href="#DejaVuSans-6f" x="661.962891"/>
       <use xlink:href="#DejaVuSans-66" x="723.144531"/>
       <use xlink:href="#DejaVuSans-69" x="758.349609"/>
       <use xlink:href="#DejaVuSans-6c" x="786.132812"/>
       <use xlink:href="#DejaVuSans-69" x="813.916016"/>
       <use xlink:href="#DejaVuSans-6e" x="841.699219"/>
       <use xlink:href="#DejaVuSans-67" x="905.078125"/>
      </g>
     </g>
    </g>
    <g id="ytick_11">
     <g id="line2d_27">
      <g>
       <use xlink:href="#mf81380181a" x="587.269063" y="147.26687" style="stroke: #000000; stroke-width: 0.8"/>
      </g>
     </g>
     <g id="text_28">
      <!-- Assembly -->
      <g transform="translate(474.2325 155.625151)scale(0.22 -0.22)">
       <use xlink:href="#DejaVuSans-41"/>
       <use xlink:href="#DejaVuSans-73" x="68.408203"/>
       <use xlink:href="#DejaVuSans-73" x="120.507812"/>
       <use xlink:href="#DejaVuSans-65" x="172.607422"/>
       <use xlink:href="#DejaVuSans-6d" x="234.130859"/>
       <use xlink:href="#DejaVuSans-62" x="331.542969"/>
       <use xlink:href="#DejaVuSans-6c" x="395.019531"/>
       <use xlink:href="#DejaVuSans-79" x="422.802734"/>
      </g>
     </g>
    </g>
    <g id="ytick_12">
     <g id="line2d_28">
      <g>
       <use xlink:href="#mf81380181a" x="587.269063" y="101.664072" style="stroke: #000000; stroke-width: 0.8"/>
      </g>
     </g>
     <g id="text_29">
      <!-- Gene identification -->
      <g transform="translate(371.344688 110.022353)scale(0.22 -0.22)">
       <use xlink:href="#DejaVuSans-47"/>
       <use xlink:href="#DejaVuSans-65" x="77.490234"/>
       <use xlink:href="#DejaVuSans-6e" x="139.013672"/>
       <use xlink:href="#DejaVuSans-65" x="202.392578"/>
       <use xlink:href="#DejaVuSans-20" x="263.916016"/>
       <use xlink:href="#DejaVuSans-69" x="295.703125"/>
       <use xlink:href="#DejaVuSans-64" x="323.486328"/>
       <use xlink:href="#DejaVuSans-65" x="386.962891"/>
       <use xlink:href="#DejaVuSans-6e" x="448.486328"/>
       <use xlink:href="#DejaVuSans-74" x="511.865234"/>
       <use xlink:href="#DejaVuSans-69" x="551.074219"/>
       <use xlink:href="#DejaVuSans-66" x="578.857422"/>
       <use xlink:href="#DejaVuSans-69" x="614.0625"/>
       <use xlink:href="#DejaVuSans-63" x="641.845703"/>
       <use xlink:href="#DejaVuSans-61" x="696.826172"/>
       <use xlink:href="#DejaVuSans-74" x="758.105469"/>
       <use xlink:href="#DejaVuSans-69" x="797.314453"/>
       <use xlink:href="#DejaVuSans-6f" x="825.097656"/>
       <use xlink:href="#DejaVuSans-6e" x="886.279297"/>
      </g>
     </g>
    </g>
    <g id="ytick_13">
     <g id="line2d_29">
      <g>
       <use xlink:href="#mf81380181a" x="587.269063" y="56.061274" style="stroke: #000000; stroke-width: 0.8"/>
      </g>
     </g>
     <g id="text_30">
      <!-- Functional analysis -->
      <g transform="translate(371.045625 64.419555)scale(0.22 -0.22)">
       <defs>
        <path id="DejaVuSans-46" d="M 628 4666 
L 3309 4666 
L 3309 4134 
L 1259 4134 
L 1259 2759 
L 3109 2759 
L 3109 2228 
L 1259 2228 
L 1259 0 
L 628 0 
L 628 4666 
z
" transform="scale(0.015625)"/>
       </defs>
       <use xlink:href="#DejaVuSans-46"/>
       <use xlink:href="#DejaVuSans-75" x="52.019531"/>
       <use xlink:href="#DejaVuSans-6e" x="115.398438"/>
       <use xlink:href="#DejaVuSans-63" x="178.777344"/>
       <use xlink:href="#DejaVuSans-74" x="233.757812"/>
       <use xlink:href="#DejaVuSans-69" x="272.966797"/>
       <use xlink:href="#DejaVuSans-6f" x="300.75"/>
       <use xlink:href="#DejaVuSans-6e" x="361.931641"/>
       <use xlink:href="#DejaVuSans-61" x="425.310547"/>
       <use xlink:href="#DejaVuSans-6c" x="486.589844"/>
       <use xlink:href="#DejaVuSans-20" x="514.373047"/>
       <use xlink:href="#DejaVuSans-61" x="546.160156"/>
       <use xlink:href="#DejaVuSans-6e" x="607.439453"/>
       <use xlink:href="#DejaVuSans-61" x="670.818359"/>
       <use xlink:href="#DejaVuSans-6c" x="732.097656"/>
       <use xlink:href="#DejaVuSans-79" x="759.880859"/>
       <use xlink:href="#DejaVuSans-73" x="819.060547"/>
       <use xlink:href="#DejaVuSans-69" x="871.160156"/>
       <use xlink:href="#DejaVuSans-73" x="898.943359"/>
      </g>
     </g>
    </g>
   </g>
   <g id="patch_16">
    <path d="M 587.269063 626.09625 
L 587.269063 33.259875 
" style="fill: none; stroke: #000000; stroke-width: 0.8; stroke-linejoin: miter; stroke-linecap: square"/>
   </g>
   <g id="patch_17">
    <path d="M 1241.6825 626.09625 
L 1241.6825 33.259875 
" style="fill: none; stroke: #000000; stroke-width: 0.8; stroke-linejoin: miter; stroke-linecap: square"/>
   </g>
   <g id="patch_18">
    <path d="M 587.269063 626.09625 
L 1241.6825 626.09625 
" style="fill: none; stroke: #000000; stroke-width: 0.8; stroke-linejoin: miter; stroke-linecap: square"/>
   </g>
   <g id="patch_19">
    <path d="M 587.269063 33.259875 
L 1241.6825 33.259875 
" style="fill: none; stroke: #000000; stroke-width: 0.8; stroke-linejoin: miter; stroke-linecap: square"/>
   </g>
   <g id="text_31">
    <!-- 0.00% -->
    <g transform="translate(657.031306 610.135271)scale(0.22 -0.22)">
     <defs>
      <path id="DejaVuSans-2e" d="M 684 794 
L 1344 794 
L 1344 0 
L 684 0 
L 684 794 
z
" transform="scale(0.015625)"/>
      <path id="DejaVuSans-25" d="M 4653 2053 
Q 4381 2053 4226 1822 
Q 4072 1591 4072 1178 
Q 4072 772 4226 539 
Q 4381 306 4653 306 
Q 4919 306 5073 539 
Q 5228 772 5228 1178 
Q 5228 1588 5073 1820 
Q 4919 2053 4653 2053 
z
M 4653 2450 
Q 5147 2450 5437 2106 
Q 5728 1763 5728 1178 
Q 5728 594 5436 251 
Q 5144 -91 4653 -91 
Q 4153 -91 3862 251 
Q 3572 594 3572 1178 
Q 3572 1766 3864 2108 
Q 4156 2450 4653 2450 
z
M 1428 4353 
Q 1159 4353 1004 4120 
Q 850 3888 850 3481 
Q 850 3069 1003 2837 
Q 1156 2606 1428 2606 
Q 1700 2606 1854 2837 
Q 2009 3069 2009 3481 
Q 2009 3884 1853 4118 
Q 1697 4353 1428 4353 
z
M 4250 4750 
L 4750 4750 
L 1831 -91 
L 1331 -91 
L 4250 4750 
z
M 1428 4750 
Q 1922 4750 2215 4408 
Q 2509 4066 2509 3481 
Q 2509 2891 2217 2550 
Q 1925 2209 1428 2209 
Q 931 2209 642 2551 
Q 353 2894 353 3481 
Q 353 4063 643 4406 
Q 934 4750 1428 4750 
z
" transform="scale(0.015625)"/>
     </defs>
     <use xlink:href="#DejaVuSans-30"/>
     <use xlink:href="#DejaVuSans-2e" x="63.623047"/>
     <use xlink:href="#DejaVuSans-30" x="95.410156"/>
     <use xlink:href="#DejaVuSans-30" x="159.033203"/>
     <use xlink:href="#DejaVuSans-25" x="222.65625"/>
    </g>
   </g>
   <g id="text_32">
    <!-- 0.04% -->
    <g transform="translate(744.286431 564.532473)scale(0.22 -0.22)">
     <use xlink:href="#DejaVuSans-30"/>
     <use xlink:href="#DejaVuSans-2e" x="63.623047"/>
     <use xlink:href="#DejaVuSans-30" x="95.410156"/>
     <use xlink:href="#DejaVuSans-34" x="159.033203"/>
     <use xlink:href="#DejaVuSans-25" x="222.65625"/>
    </g>
   </g>
   <g id="text_33">
    <!-- 0.05% -->
    <g transform="translate(805.365019 518.929675)scale(0.22 -0.22)">
     <use xlink:href="#DejaVuSans-30"/>
     <use xlink:href="#DejaVuSans-2e" x="63.623047"/>
     <use xlink:href="#DejaVuSans-30" x="95.410156"/>
     <use xlink:href="#DejaVuSans-35" x="159.033203"/>
     <use xlink:href="#DejaVuSans-25" x="222.65625"/>
    </g>
   </g>
   <g id="text_34">
    <!-- 0.06% -->
    <g transform="translate(831.541556 473.326876)scale(0.22 -0.22)">
     <use xlink:href="#DejaVuSans-30"/>
     <use xlink:href="#DejaVuSans-2e" x="63.623047"/>
     <use xlink:href="#DejaVuSans-30" x="95.410156"/>
     <use xlink:href="#DejaVuSans-36" x="159.033203"/>
     <use xlink:href="#DejaVuSans-25" x="222.65625"/>
    </g>
   </g>
   <g id="text_35">
    <!-- 0.06% -->
    <g transform="translate(848.992581 427.724078)scale(0.22 -0.22)">
     <use xlink:href="#DejaVuSans-30"/>
     <use xlink:href="#DejaVuSans-2e" x="63.623047"/>
     <use xlink:href="#DejaVuSans-30" x="95.410156"/>
     <use xlink:href="#DejaVuSans-36" x="159.033203"/>
     <use xlink:href="#DejaVuSans-25" x="222.65625"/>
    </g>
   </g>
   <g id="text_36">
    <!-- 0.07% -->
    <g transform="translate(910.071169 382.12128)scale(0.22 -0.22)">
     <use xlink:href="#DejaVuSans-30"/>
     <use xlink:href="#DejaVuSans-2e" x="63.623047"/>
     <use xlink:href="#DejaVuSans-30" x="95.410156"/>
     <use xlink:href="#DejaVuSans-37" x="159.033203"/>
     <use xlink:href="#DejaVuSans-25" x="222.65625"/>
    </g>
   </g>
   <g id="text_37">
    <!-- 0.08% -->
    <g transform="translate(918.796681 336.518482)scale(0.22 -0.22)">
     <defs>
      <path id="DejaVuSans-38" d="M 2034 2216 
Q 1584 2216 1326 1975 
Q 1069 1734 1069 1313 
Q 1069 891 1326 650 
Q 1584 409 2034 409 
Q 2484 409 2743 651 
Q 3003 894 3003 1313 
Q 3003 1734 2745 1975 
Q 2488 2216 2034 2216 
z
M 1403 2484 
Q 997 2584 770 2862 
Q 544 3141 544 3541 
Q 544 4100 942 4425 
Q 1341 4750 2034 4750 
Q 2731 4750 3128 4425 
Q 3525 4100 3525 3541 
Q 3525 3141 3298 2862 
Q 3072 2584 2669 2484 
Q 3125 2378 3379 2068 
Q 3634 1759 3634 1313 
Q 3634 634 3220 271 
Q 2806 -91 2034 -91 
Q 1263 -91 848 271 
Q 434 634 434 1313 
Q 434 1759 690 2068 
Q 947 2378 1403 2484 
z
M 1172 3481 
Q 1172 3119 1398 2916 
Q 1625 2713 2034 2713 
Q 2441 2713 2670 2916 
Q 2900 3119 2900 3481 
Q 2900 3844 2670 4047 
Q 2441 4250 2034 4250 
Q 1625 4250 1398 4047 
Q 1172 3844 1172 3481 
z
" transform="scale(0.015625)"/>
     </defs>
     <use xlink:href="#DejaVuSans-30"/>
     <use xlink:href="#DejaVuSans-2e" x="63.623047"/>
     <use xlink:href="#DejaVuSans-30" x="95.410156"/>
     <use xlink:href="#DejaVuSans-38" x="159.033203"/>
     <use xlink:href="#DejaVuSans-25" x="222.65625"/>
    </g>
   </g>
   <g id="text_38">
    <!-- 0.09% -->
    <g transform="translate(997.326294 290.915684)scale(0.22 -0.22)">
     <defs>
      <path id="DejaVuSans-39" d="M 703 97 
L 703 672 
Q 941 559 1184 500 
Q 1428 441 1663 441 
Q 2288 441 2617 861 
Q 2947 1281 2994 2138 
Q 2813 1869 2534 1725 
Q 2256 1581 1919 1581 
Q 1219 1581 811 2004 
Q 403 2428 403 3163 
Q 403 3881 828 4315 
Q 1253 4750 1959 4750 
Q 2769 4750 3195 4129 
Q 3622 3509 3622 2328 
Q 3622 1225 3098 567 
Q 2575 -91 1691 -91 
Q 1453 -91 1209 -44 
Q 966 3 703 97 
z
M 1959 2075 
Q 2384 2075 2632 2365 
Q 2881 2656 2881 3163 
Q 2881 3666 2632 3958 
Q 2384 4250 1959 4250 
Q 1534 4250 1286 3958 
Q 1038 3666 1038 3163 
Q 1038 2656 1286 2365 
Q 1534 2075 1959 2075 
z
" transform="scale(0.015625)"/>
     </defs>
     <use xlink:href="#DejaVuSans-30"/>
     <use xlink:href="#DejaVuSans-2e" x="63.623047"/>
     <use xlink:href="#DejaVuSans-30" x="95.410156"/>
     <use xlink:href="#DejaVuSans-39" x="159.033203"/>
     <use xlink:href="#DejaVuSans-25" x="222.65625"/>
    </g>
   </g>
   <g id="text_39">
    <!-- 0.09% -->
    <g transform="translate(997.326294 245.312886)scale(0.22 -0.22)">
     <use xlink:href="#DejaVuSans-30"/>
     <use xlink:href="#DejaVuSans-2e" x="63.623047"/>
     <use xlink:href="#DejaVuSans-30" x="95.410156"/>
     <use xlink:href="#DejaVuSans-39" x="159.033203"/>
     <use xlink:href="#DejaVuSans-25" x="222.65625"/>
    </g>
   </g>
   <g id="text_40">
    <!-- 0.10% -->
    <g transform="translate(1006.051806 199.710088)scale(0.22 -0.22)">
     <use xlink:href="#DejaVuSans-30"/>
     <use xlink:href="#DejaVuSans-2e" x="63.623047"/>
     <use xlink:href="#DejaVuSans-31" x="95.410156"/>
     <use xlink:href="#DejaVuSans-30" x="159.033203"/>
     <use xlink:href="#DejaVuSans-25" x="222.65625"/>
    </g>
   </g>
   <g id="text_41">
    <!-- 0.11% -->
    <g transform="translate(1058.404881 154.10729)scale(0.22 -0.22)">
     <use xlink:href="#DejaVuSans-30"/>
     <use xlink:href="#DejaVuSans-2e" x="63.623047"/>
     <use xlink:href="#DejaVuSans-31" x="95.410156"/>
     <use xlink:href="#DejaVuSans-31" x="159.033203"/>
     <use xlink:href="#DejaVuSans-25" x="222.65625"/>
    </g>
   </g>
   <g id="text_42">
    <!-- 0.11% -->
    <g transform="translate(1084.581419 108.504492)scale(0.22 -0.22)">
     <use xlink:href="#DejaVuSans-30"/>
     <use xlink:href="#DejaVuSans-2e" x="63.623047"/>
     <use xlink:href="#DejaVuSans-31" x="95.410156"/>
     <use xlink:href="#DejaVuSans-31" x="159.033203"/>
     <use xlink:href="#DejaVuSans-25" x="222.65625"/>
    </g>
   </g>
   <g id="text_43">
    <!-- 0.13% -->
    <g transform="translate(1136.934494 62.901694)scale(0.22 -0.22)">
     <use xlink:href="#DejaVuSans-30"/>
     <use xlink:href="#DejaVuSans-2e" x="63.623047"/>
     <use xlink:href="#DejaVuSans-31" x="95.410156"/>
     <use xlink:href="#DejaVuSans-33" x="159.033203"/>
     <use xlink:href="#DejaVuSans-25" x="222.65625"/>
    </g>
   </g>
   <g id="text_44">
    <!-- Which analysis do you use or would like to do? -->
    <g transform="translate(606.369219 27.259875)scale(0.264 -0.264)">
     <defs>
      <path id="DejaVuSans-57" d="M 213 4666 
L 850 4666 
L 1831 722 
L 2809 4666 
L 3519 4666 
L 4500 722 
L 5478 4666 
L 6119 4666 
L 4947 0 
L 4153 0 
L 3169 4050 
L 2175 0 
L 1381 0 
L 213 4666 
z
" transform="scale(0.015625)"/>
      <path id="DejaVuSans-77" d="M 269 3500 
L 844 3500 
L 1563 769 
L 2278 3500 
L 2956 3500 
L 3675 769 
L 4391 3500 
L 4966 3500 
L 4050 0 
L 3372 0 
L 2619 2869 
L 1863 0 
L 1184 0 
L 269 3500 
z
" transform="scale(0.015625)"/>
      <path id="DejaVuSans-3f" d="M 1222 794 
L 1856 794 
L 1856 0 
L 1222 0 
L 1222 794 
z
M 1838 1253 
L 1241 1253 
L 1241 1734 
Q 1241 2050 1328 2253 
Q 1416 2456 1697 2725 
L 1978 3003 
Q 2156 3169 2236 3316 
Q 2316 3463 2316 3616 
Q 2316 3894 2111 4066 
Q 1906 4238 1569 4238 
Q 1322 4238 1042 4128 
Q 763 4019 459 3809 
L 459 4397 
Q 753 4575 1054 4662 
Q 1356 4750 1678 4750 
Q 2253 4750 2601 4447 
Q 2950 4144 2950 3647 
Q 2950 3409 2837 3195 
Q 2725 2981 2444 2713 
L 2169 2444 
Q 2022 2297 1961 2214 
Q 1900 2131 1875 2053 
Q 1856 1988 1847 1894 
Q 1838 1800 1838 1638 
L 1838 1253 
z
" transform="scale(0.015625)"/>
     </defs>
     <use xlink:href="#DejaVuSans-57"/>
     <use xlink:href="#DejaVuSans-68" x="98.876953"/>
     <use xlink:href="#DejaVuSans-69" x="162.255859"/>
     <use xlink:href="#DejaVuSans-63" x="190.039062"/>
     <use xlink:href="#DejaVuSans-68" x="245.019531"/>
     <use xlink:href="#DejaVuSans-20" x="308.398438"/>
     <use xlink:href="#DejaVuSans-61" x="340.185547"/>
     <use xlink:href="#DejaVuSans-6e" x="401.464844"/>
     <use xlink:href="#DejaVuSans-61" x="464.84375"/>
     <use xlink:href="#DejaVuSans-6c" x="526.123047"/>
     <use xlink:href="#DejaVuSans-79" x="553.90625"/>
     <use xlink:href="#DejaVuSans-73" x="613.085938"/>
     <use xlink:href="#DejaVuSans-69" x="665.185547"/>
     <use xlink:href="#DejaVuSans-73" x="692.96875"/>
     <use xlink:href="#DejaVuSans-20" x="745.068359"/>
     <use xlink:href="#DejaVuSans-64" x="776.855469"/>
     <use xlink:href="#DejaVuSans-6f" x="840.332031"/>
     <use xlink:href="#DejaVuSans-20" x="901.513672"/>
     <use xlink:href="#DejaVuSans-79" x="933.300781"/>
     <use xlink:href="#DejaVuSans-6f" x="992.480469"/>
     <use xlink:href="#DejaVuSans-75" x="1053.662109"/>
     <use xlink:href="#DejaVuSans-20" x="1117.041016"/>
     <use xlink:href="#DejaVuSans-75" x="1148.828125"/>
     <use xlink:href="#DejaVuSans-73" x="1212.207031"/>
     <use xlink:href="#DejaVuSans-65" x="1264.306641"/>
     <use xlink:href="#DejaVuSans-20" x="1325.830078"/>
     <use xlink:href="#DejaVuSans-6f" x="1357.617188"/>
     <use xlink:href="#DejaVuSans-72" x="1418.798828"/>
     <use xlink:href="#DejaVuSans-20" x="1459.912109"/>
     <use xlink:href="#DejaVuSans-77" x="1491.699219"/>
     <use xlink:href="#DejaVuSans-6f" x="1573.486328"/>
     <use xlink:href="#DejaVuSans-75" x="1634.667969"/>
     <use xlink:href="#DejaVuSans-6c" x="1698.046875"/>
     <use xlink:href="#DejaVuSans-64" x="1725.830078"/>
     <use xlink:href="#DejaVuSans-20" x="1789.306641"/>
     <use xlink:href="#DejaVuSans-6c" x="1821.09375"/>
     <use xlink:href="#DejaVuSans-69" x="1848.876953"/>
     <use xlink:href="#DejaVuSans-6b" x="1876.660156"/>
     <use xlink:href="#DejaVuSans-65" x="1930.945312"/>
     <use xlink:href="#DejaVuSans-20" x="1992.46875"/>
     <use xlink:href="#DejaVuSans-74" x="2024.255859"/>
     <use xlink:href="#DejaVuSans-6f" x="2063.464844"/>
     <use xlink:href="#DejaVuSans-20" x="2124.646484"/>
     <use xlink:href="#DejaVuSans-64" x="2156.433594"/>
     <use xlink:href="#DejaVuSans-6f" x="2219.910156"/>
     <use xlink:href="#DejaVuSans-3f" x="2281.091797"/>
    </g>
   </g>
  </g>
 </g>
 <defs>
  <clipPath id="pe2bfdae6ef">
   <rect x="587.269063" y="33.259875" width="654.413438" height="592.836375"/>
  </clipPath>
 </defs>
</svg>
