<?xml version="1.0" encoding="utf-8" standalone="no"?>
<!DOCTYPE svg PUBLIC "-//W3C//DTD SVG 1.1//EN"
  "http://www.w3.org/Graphics/SVG/1.1/DTD/svg11.dtd">
<svg xmlns:xlink="http://www.w3.org/1999/xlink" width="974.88pt" height="1118.88pt" viewBox="0 0 974.88 1118.88" xmlns="http://www.w3.org/2000/svg" version="1.1">
 <metadata>
  <rdf:RDF xmlns:dc="http://purl.org/dc/elements/1.1/" xmlns:cc="http://creativecommons.org/ns#" xmlns:rdf="http://www.w3.org/1999/02/22-rdf-syntax-ns#">
   <cc:Work>
    <dc:type rdf:resource="http://purl.org/dc/dcmitype/StillImage"/>
    <dc:date>2023-06-23T16:04:32.378333</dc:date>
    <dc:format>image/svg+xml</dc:format>
    <dc:creator>
     <cc:Agent>
      <dc:title>Matplotlib v3.5.3, https://matplotlib.org/</dc:title>
     </cc:Agent>
    </dc:creator>
   </cc:Work>
  </rdf:RDF>
 </metadata>
 <defs>
  <style type="text/css">*{stroke-linejoin: round; stroke-linecap: butt}</style>
 </defs>
 <g id="figure_1">
  <g id="patch_1">
   <path d="M 0 1118.88 
L 974.88 1118.88 
L 974.88 0 
L 0 0 
z
" style="fill: #ffffff"/>
  </g>
  <g id="axes_1">
   <g id="patch_2">
    <path d="M 234.426875 1058.09625 
L 967.68 1058.09625 
L 967.68 33.259875 
L 234.426875 33.259875 
z
" style="fill: #ffffff"/>
   </g>
   <g id="patch_3">
    <path d="M 234.426875 1051.847248 
L 304.260506 1051.847248 
L 304.260506 1039.349243 
L 234.426875 1039.349243 
z
" clip-path="url(#p8752c0e278)" style="fill: #1f77b4"/>
   </g>
   <g id="patch_4">
    <path d="M 234.426875 1026.851239 
L 304.260506 1026.851239 
L 304.260506 1014.353234 
L 234.426875 1014.353234 
z
" clip-path="url(#p8752c0e278)" style="fill: #1f77b4"/>
   </g>
   <g id="patch_5">
    <path d="M 234.426875 1001.855229 
L 304.260506 1001.855229 
L 304.260506 989.357225 
L 234.426875 989.357225 
z
" clip-path="url(#p8752c0e278)" style="fill: #1f77b4"/>
   </g>
   <g id="patch_6">
    <path d="M 234.426875 976.85922 
L 304.260506 976.85922 
L 304.260506 964.361216 
L 234.426875 964.361216 
z
" clip-path="url(#p8752c0e278)" style="fill: #1f77b4"/>
   </g>
   <g id="patch_7">
    <path d="M 234.426875 951.863211 
L 304.260506 951.863211 
L 304.260506 939.365207 
L 234.426875 939.365207 
z
" clip-path="url(#p8752c0e278)" style="fill: #1f77b4"/>
   </g>
   <g id="patch_8">
    <path d="M 234.426875 926.867202 
L 304.260506 926.867202 
L 304.260506 914.369197 
L 234.426875 914.369197 
z
" clip-path="url(#p8752c0e278)" style="fill: #1f77b4"/>
   </g>
   <g id="patch_9">
    <path d="M 234.426875 901.871193 
L 304.260506 901.871193 
L 304.260506 889.373188 
L 234.426875 889.373188 
z
" clip-path="url(#p8752c0e278)" style="fill: #1f77b4"/>
   </g>
   <g id="patch_10">
    <path d="M 234.426875 876.875184 
L 304.260506 876.875184 
L 304.260506 864.377179 
L 234.426875 864.377179 
z
" clip-path="url(#p8752c0e278)" style="fill: #1f77b4"/>
   </g>
   <g id="patch_11">
    <path d="M 234.426875 851.879175 
L 304.260506 851.879175 
L 304.260506 839.38117 
L 234.426875 839.38117 
z
" clip-path="url(#p8752c0e278)" style="fill: #1f77b4"/>
   </g>
   <g id="patch_12">
    <path d="M 234.426875 826.883165 
L 304.260506 826.883165 
L 304.260506 814.385161 
L 234.426875 814.385161 
z
" clip-path="url(#p8752c0e278)" style="fill: #1f77b4"/>
   </g>
   <g id="patch_13">
    <path d="M 234.426875 801.887156 
L 304.260506 801.887156 
L 304.260506 789.389152 
L 234.426875 789.389152 
z
" clip-path="url(#p8752c0e278)" style="fill: #1f77b4"/>
   </g>
   <g id="patch_14">
    <path d="M 234.426875 776.891147 
L 304.260506 776.891147 
L 304.260506 764.393143 
L 234.426875 764.393143 
z
" clip-path="url(#p8752c0e278)" style="fill: #1f77b4"/>
   </g>
   <g id="patch_15">
    <path d="M 234.426875 751.895138 
L 304.260506 751.895138 
L 304.260506 739.397133 
L 234.426875 739.397133 
z
" clip-path="url(#p8752c0e278)" style="fill: #1f77b4"/>
   </g>
   <g id="patch_16">
    <path d="M 234.426875 726.899129 
L 304.260506 726.899129 
L 304.260506 714.401124 
L 234.426875 714.401124 
z
" clip-path="url(#p8752c0e278)" style="fill: #1f77b4"/>
   </g>
   <g id="patch_17">
    <path d="M 234.426875 701.90312 
L 304.260506 701.90312 
L 304.260506 689.405115 
L 234.426875 689.405115 
z
" clip-path="url(#p8752c0e278)" style="fill: #1f77b4"/>
   </g>
   <g id="patch_18">
    <path d="M 234.426875 676.907111 
L 304.260506 676.907111 
L 304.260506 664.409106 
L 234.426875 664.409106 
z
" clip-path="url(#p8752c0e278)" style="fill: #1f77b4"/>
   </g>
   <g id="patch_19">
    <path d="M 234.426875 651.911101 
L 304.260506 651.911101 
L 304.260506 639.413097 
L 234.426875 639.413097 
z
" clip-path="url(#p8752c0e278)" style="fill: #1f77b4"/>
   </g>
   <g id="patch_20">
    <path d="M 234.426875 626.915092 
L 304.260506 626.915092 
L 304.260506 614.417088 
L 234.426875 614.417088 
z
" clip-path="url(#p8752c0e278)" style="fill: #1f77b4"/>
   </g>
   <g id="patch_21">
    <path d="M 234.426875 601.919083 
L 304.260506 601.919083 
L 304.260506 589.421079 
L 234.426875 589.421079 
z
" clip-path="url(#p8752c0e278)" style="fill: #1f77b4"/>
   </g>
   <g id="patch_22">
    <path d="M 234.426875 576.923074 
L 304.260506 576.923074 
L 304.260506 564.425069 
L 234.426875 564.425069 
z
" clip-path="url(#p8752c0e278)" style="fill: #1f77b4"/>
   </g>
   <g id="patch_23">
    <path d="M 234.426875 551.927065 
L 304.260506 551.927065 
L 304.260506 539.42906 
L 234.426875 539.42906 
z
" clip-path="url(#p8752c0e278)" style="fill: #1f77b4"/>
   </g>
   <g id="patch_24">
    <path d="M 234.426875 526.931056 
L 304.260506 526.931056 
L 304.260506 514.433051 
L 234.426875 514.433051 
z
" clip-path="url(#p8752c0e278)" style="fill: #1f77b4"/>
   </g>
   <g id="patch_25">
    <path d="M 234.426875 501.935046 
L 304.260506 501.935046 
L 304.260506 489.437042 
L 234.426875 489.437042 
z
" clip-path="url(#p8752c0e278)" style="fill: #1f77b4"/>
   </g>
   <g id="patch_26">
    <path d="M 234.426875 476.939037 
L 304.260506 476.939037 
L 304.260506 464.441033 
L 234.426875 464.441033 
z
" clip-path="url(#p8752c0e278)" style="fill: #1f77b4"/>
   </g>
   <g id="patch_27">
    <path d="M 234.426875 451.943028 
L 304.260506 451.943028 
L 304.260506 439.445024 
L 234.426875 439.445024 
z
" clip-path="url(#p8752c0e278)" style="fill: #1f77b4"/>
   </g>
   <g id="patch_28">
    <path d="M 234.426875 426.947019 
L 304.260506 426.947019 
L 304.260506 414.449014 
L 234.426875 414.449014 
z
" clip-path="url(#p8752c0e278)" style="fill: #1f77b4"/>
   </g>
   <g id="patch_29">
    <path d="M 234.426875 401.95101 
L 304.260506 401.95101 
L 304.260506 389.453005 
L 234.426875 389.453005 
z
" clip-path="url(#p8752c0e278)" style="fill: #1f77b4"/>
   </g>
   <g id="patch_30">
    <path d="M 234.426875 376.955001 
L 304.260506 376.955001 
L 304.260506 364.456996 
L 234.426875 364.456996 
z
" clip-path="url(#p8752c0e278)" style="fill: #1f77b4"/>
   </g>
   <g id="patch_31">
    <path d="M 234.426875 351.958992 
L 374.094137 351.958992 
L 374.094137 339.460987 
L 234.426875 339.460987 
z
" clip-path="url(#p8752c0e278)" style="fill: #1f77b4"/>
   </g>
   <g id="patch_32">
    <path d="M 234.426875 326.962982 
L 374.094137 326.962982 
L 374.094137 314.464978 
L 234.426875 314.464978 
z
" clip-path="url(#p8752c0e278)" style="fill: #1f77b4"/>
   </g>
   <g id="patch_33">
    <path d="M 234.426875 301.966973 
L 374.094137 301.966973 
L 374.094137 289.468969 
L 234.426875 289.468969 
z
" clip-path="url(#p8752c0e278)" style="fill: #1f77b4"/>
   </g>
   <g id="patch_34">
    <path d="M 234.426875 276.970964 
L 374.094137 276.970964 
L 374.094137 264.47296 
L 234.426875 264.47296 
z
" clip-path="url(#p8752c0e278)" style="fill: #1f77b4"/>
   </g>
   <g id="patch_35">
    <path d="M 234.426875 251.974955 
L 443.927768 251.974955 
L 443.927768 239.47695 
L 234.426875 239.47695 
z
" clip-path="url(#p8752c0e278)" style="fill: #1f77b4"/>
   </g>
   <g id="patch_36">
    <path d="M 234.426875 226.978946 
L 443.927768 226.978946 
L 443.927768 214.480941 
L 234.426875 214.480941 
z
" clip-path="url(#p8752c0e278)" style="fill: #1f77b4"/>
   </g>
   <g id="patch_37">
    <path d="M 234.426875 201.982937 
L 513.761399 201.982937 
L 513.761399 189.484932 
L 234.426875 189.484932 
z
" clip-path="url(#p8752c0e278)" style="fill: #1f77b4"/>
   </g>
   <g id="patch_38">
    <path d="M 234.426875 176.986928 
L 513.761399 176.986928 
L 513.761399 164.488923 
L 234.426875 164.488923 
z
" clip-path="url(#p8752c0e278)" style="fill: #1f77b4"/>
   </g>
   <g id="patch_39">
    <path d="M 234.426875 151.990918 
L 513.761399 151.990918 
L 513.761399 139.492914 
L 234.426875 139.492914 
z
" clip-path="url(#p8752c0e278)" style="fill: #1f77b4"/>
   </g>
   <g id="patch_40">
    <path d="M 234.426875 126.994909 
L 513.761399 126.994909 
L 513.761399 114.496905 
L 234.426875 114.496905 
z
" clip-path="url(#p8752c0e278)" style="fill: #1f77b4"/>
   </g>
   <g id="patch_41">
    <path d="M 234.426875 101.9989 
L 513.761399 101.9989 
L 513.761399 89.500896 
L 234.426875 89.500896 
z
" clip-path="url(#p8752c0e278)" style="fill: #1f77b4"/>
   </g>
   <g id="patch_42">
    <path d="M 234.426875 77.002891 
L 723.262292 77.002891 
L 723.262292 64.504886 
L 234.426875 64.504886 
z
" clip-path="url(#p8752c0e278)" style="fill: #1f77b4"/>
   </g>
   <g id="patch_43">
    <path d="M 234.426875 52.006882 
L 932.763185 52.006882 
L 932.763185 39.508877 
L 234.426875 39.508877 
z
" clip-path="url(#p8752c0e278)" style="fill: #1f77b4"/>
   </g>
   <g id="matplotlib.axis_1">
    <g id="xtick_1">
     <g id="line2d_1">
      <defs>
       <path id="m9de0b491fd" d="M 0 0 
L 0 3.5 
" style="stroke: #000000; stroke-width: 0.8"/>
      </defs>
      <g>
       <use xlink:href="#m9de0b491fd" x="234.426875" y="1058.09625" style="stroke: #000000; stroke-width: 0.8"/>
      </g>
     </g>
     <g id="text_1">
      <!-- 0 -->
      <g transform="translate(227.428125 1081.812812)scale(0.22 -0.22)">
       <defs>
        <path id="DejaVuSans-30" d="M 2034 4250 
Q 1547 4250 1301 3770 
Q 1056 3291 1056 2328 
Q 1056 1369 1301 889 
Q 1547 409 2034 409 
Q 2525 409 2770 889 
Q 3016 1369 3016 2328 
Q 3016 3291 2770 3770 
Q 2525 4250 2034 4250 
z
M 2034 4750 
Q 2819 4750 3233 4129 
Q 3647 3509 3647 2328 
Q 3647 1150 3233 529 
Q 2819 -91 2034 -91 
Q 1250 -91 836 529 
Q 422 1150 422 2328 
Q 422 3509 836 4129 
Q 1250 4750 2034 4750 
z
" transform="scale(0.015625)"/>
       </defs>
       <use xlink:href="#DejaVuSans-30"/>
      </g>
     </g>
    </g>
    <g id="xtick_2">
     <g id="line2d_2">
      <g>
       <use xlink:href="#m9de0b491fd" x="583.59503" y="1058.09625" style="stroke: #000000; stroke-width: 0.8"/>
      </g>
     </g>
     <g id="text_2">
      <!-- 5 -->
      <g transform="translate(576.59628 1081.812812)scale(0.22 -0.22)">
       <defs>
        <path id="DejaVuSans-35" d="M 691 4666 
L 3169 4666 
L 3169 4134 
L 1269 4134 
L 1269 2991 
Q 1406 3038 1543 3061 
Q 1681 3084 1819 3084 
Q 2600 3084 3056 2656 
Q 3513 2228 3513 1497 
Q 3513 744 3044 326 
Q 2575 -91 1722 -91 
Q 1428 -91 1123 -41 
Q 819 9 494 109 
L 494 744 
Q 775 591 1075 516 
Q 1375 441 1709 441 
Q 2250 441 2565 725 
Q 2881 1009 2881 1497 
Q 2881 1984 2565 2268 
Q 2250 2553 1709 2553 
Q 1456 2553 1204 2497 
Q 953 2441 691 2322 
L 691 4666 
z
" transform="scale(0.015625)"/>
       </defs>
       <use xlink:href="#DejaVuSans-35"/>
      </g>
     </g>
    </g>
    <g id="xtick_3">
     <g id="line2d_3">
      <g>
       <use xlink:href="#m9de0b491fd" x="932.763185" y="1058.09625" style="stroke: #000000; stroke-width: 0.8"/>
      </g>
     </g>
     <g id="text_3">
      <!-- 10 -->
      <g transform="translate(918.765685 1081.812812)scale(0.22 -0.22)">
       <defs>
        <path id="DejaVuSans-31" d="M 794 531 
L 1825 531 
L 1825 4091 
L 703 3866 
L 703 4441 
L 1819 4666 
L 2450 4666 
L 2450 531 
L 3481 531 
L 3481 0 
L 794 0 
L 794 531 
z
" transform="scale(0.015625)"/>
       </defs>
       <use xlink:href="#DejaVuSans-31"/>
       <use xlink:href="#DejaVuSans-30" x="63.623047"/>
      </g>
     </g>
    </g>
    <g id="text_4">
     <!-- Number of responses -->
     <g transform="translate(483.582031 1107.104687)scale(0.22 -0.22)">
      <defs>
       <path id="DejaVuSans-4e" d="M 628 4666 
L 1478 4666 
L 3547 763 
L 3547 4666 
L 4159 4666 
L 4159 0 
L 3309 0 
L 1241 3903 
L 1241 0 
L 628 0 
L 628 4666 
z
" transform="scale(0.015625)"/>
       <path id="DejaVuSans-75" d="M 544 1381 
L 544 3500 
L 1119 3500 
L 1119 1403 
Q 1119 906 1312 657 
Q 1506 409 1894 409 
Q 2359 409 2629 706 
Q 2900 1003 2900 1516 
L 2900 3500 
L 3475 3500 
L 3475 0 
L 2900 0 
L 2900 538 
Q 2691 219 2414 64 
Q 2138 -91 1772 -91 
Q 1169 -91 856 284 
Q 544 659 544 1381 
z
M 1991 3584 
L 1991 3584 
z
" transform="scale(0.015625)"/>
       <path id="DejaVuSans-6d" d="M 3328 2828 
Q 3544 3216 3844 3400 
Q 4144 3584 4550 3584 
Q 5097 3584 5394 3201 
Q 5691 2819 5691 2113 
L 5691 0 
L 5113 0 
L 5113 2094 
Q 5113 2597 4934 2840 
Q 4756 3084 4391 3084 
Q 3944 3084 3684 2787 
Q 3425 2491 3425 1978 
L 3425 0 
L 2847 0 
L 2847 2094 
Q 2847 2600 2669 2842 
Q 2491 3084 2119 3084 
Q 1678 3084 1418 2786 
Q 1159 2488 1159 1978 
L 1159 0 
L 581 0 
L 581 3500 
L 1159 3500 
L 1159 2956 
Q 1356 3278 1631 3431 
Q 1906 3584 2284 3584 
Q 2666 3584 2933 3390 
Q 3200 3197 3328 2828 
z
" transform="scale(0.015625)"/>
       <path id="DejaVuSans-62" d="M 3116 1747 
Q 3116 2381 2855 2742 
Q 2594 3103 2138 3103 
Q 1681 3103 1420 2742 
Q 1159 2381 1159 1747 
Q 1159 1113 1420 752 
Q 1681 391 2138 391 
Q 2594 391 2855 752 
Q 3116 1113 3116 1747 
z
M 1159 2969 
Q 1341 3281 1617 3432 
Q 1894 3584 2278 3584 
Q 2916 3584 3314 3078 
Q 3713 2572 3713 1747 
Q 3713 922 3314 415 
Q 2916 -91 2278 -91 
Q 1894 -91 1617 61 
Q 1341 213 1159 525 
L 1159 0 
L 581 0 
L 581 4863 
L 1159 4863 
L 1159 2969 
z
" transform="scale(0.015625)"/>
       <path id="DejaVuSans-65" d="M 3597 1894 
L 3597 1613 
L 953 1613 
Q 991 1019 1311 708 
Q 1631 397 2203 397 
Q 2534 397 2845 478 
Q 3156 559 3463 722 
L 3463 178 
Q 3153 47 2828 -22 
Q 2503 -91 2169 -91 
Q 1331 -91 842 396 
Q 353 884 353 1716 
Q 353 2575 817 3079 
Q 1281 3584 2069 3584 
Q 2775 3584 3186 3129 
Q 3597 2675 3597 1894 
z
M 3022 2063 
Q 3016 2534 2758 2815 
Q 2500 3097 2075 3097 
Q 1594 3097 1305 2825 
Q 1016 2553 972 2059 
L 3022 2063 
z
" transform="scale(0.015625)"/>
       <path id="DejaVuSans-72" d="M 2631 2963 
Q 2534 3019 2420 3045 
Q 2306 3072 2169 3072 
Q 1681 3072 1420 2755 
Q 1159 2438 1159 1844 
L 1159 0 
L 581 0 
L 581 3500 
L 1159 3500 
L 1159 2956 
Q 1341 3275 1631 3429 
Q 1922 3584 2338 3584 
Q 2397 3584 2469 3576 
Q 2541 3569 2628 3553 
L 2631 2963 
z
" transform="scale(0.015625)"/>
       <path id="DejaVuSans-20" transform="scale(0.015625)"/>
       <path id="DejaVuSans-6f" d="M 1959 3097 
Q 1497 3097 1228 2736 
Q 959 2375 959 1747 
Q 959 1119 1226 758 
Q 1494 397 1959 397 
Q 2419 397 2687 759 
Q 2956 1122 2956 1747 
Q 2956 2369 2687 2733 
Q 2419 3097 1959 3097 
z
M 1959 3584 
Q 2709 3584 3137 3096 
Q 3566 2609 3566 1747 
Q 3566 888 3137 398 
Q 2709 -91 1959 -91 
Q 1206 -91 779 398 
Q 353 888 353 1747 
Q 353 2609 779 3096 
Q 1206 3584 1959 3584 
z
" transform="scale(0.015625)"/>
       <path id="DejaVuSans-66" d="M 2375 4863 
L 2375 4384 
L 1825 4384 
Q 1516 4384 1395 4259 
Q 1275 4134 1275 3809 
L 1275 3500 
L 2222 3500 
L 2222 3053 
L 1275 3053 
L 1275 0 
L 697 0 
L 697 3053 
L 147 3053 
L 147 3500 
L 697 3500 
L 697 3744 
Q 697 4328 969 4595 
Q 1241 4863 1831 4863 
L 2375 4863 
z
" transform="scale(0.015625)"/>
       <path id="DejaVuSans-73" d="M 2834 3397 
L 2834 2853 
Q 2591 2978 2328 3040 
Q 2066 3103 1784 3103 
Q 1356 3103 1142 2972 
Q 928 2841 928 2578 
Q 928 2378 1081 2264 
Q 1234 2150 1697 2047 
L 1894 2003 
Q 2506 1872 2764 1633 
Q 3022 1394 3022 966 
Q 3022 478 2636 193 
Q 2250 -91 1575 -91 
Q 1294 -91 989 -36 
Q 684 19 347 128 
L 347 722 
Q 666 556 975 473 
Q 1284 391 1588 391 
Q 1994 391 2212 530 
Q 2431 669 2431 922 
Q 2431 1156 2273 1281 
Q 2116 1406 1581 1522 
L 1381 1569 
Q 847 1681 609 1914 
Q 372 2147 372 2553 
Q 372 3047 722 3315 
Q 1072 3584 1716 3584 
Q 2034 3584 2315 3537 
Q 2597 3491 2834 3397 
z
" transform="scale(0.015625)"/>
       <path id="DejaVuSans-70" d="M 1159 525 
L 1159 -1331 
L 581 -1331 
L 581 3500 
L 1159 3500 
L 1159 2969 
Q 1341 3281 1617 3432 
Q 1894 3584 2278 3584 
Q 2916 3584 3314 3078 
Q 3713 2572 3713 1747 
Q 3713 922 3314 415 
Q 2916 -91 2278 -91 
Q 1894 -91 1617 61 
Q 1341 213 1159 525 
z
M 3116 1747 
Q 3116 2381 2855 2742 
Q 2594 3103 2138 3103 
Q 1681 3103 1420 2742 
Q 1159 2381 1159 1747 
Q 1159 1113 1420 752 
Q 1681 391 2138 391 
Q 2594 391 2855 752 
Q 3116 1113 3116 1747 
z
" transform="scale(0.015625)"/>
       <path id="DejaVuSans-6e" d="M 3513 2113 
L 3513 0 
L 2938 0 
L 2938 2094 
Q 2938 2591 2744 2837 
Q 2550 3084 2163 3084 
Q 1697 3084 1428 2787 
Q 1159 2491 1159 1978 
L 1159 0 
L 581 0 
L 581 3500 
L 1159 3500 
L 1159 2956 
Q 1366 3272 1645 3428 
Q 1925 3584 2291 3584 
Q 2894 3584 3203 3211 
Q 3513 2838 3513 2113 
z
" transform="scale(0.015625)"/>
      </defs>
      <use xlink:href="#DejaVuSans-4e"/>
      <use xlink:href="#DejaVuSans-75" x="74.804688"/>
      <use xlink:href="#DejaVuSans-6d" x="138.183594"/>
      <use xlink:href="#DejaVuSans-62" x="235.595703"/>
      <use xlink:href="#DejaVuSans-65" x="299.072266"/>
      <use xlink:href="#DejaVuSans-72" x="360.595703"/>
      <use xlink:href="#DejaVuSans-20" x="401.708984"/>
      <use xlink:href="#DejaVuSans-6f" x="433.496094"/>
      <use xlink:href="#DejaVuSans-66" x="494.677734"/>
      <use xlink:href="#DejaVuSans-20" x="529.882812"/>
      <use xlink:href="#DejaVuSans-72" x="561.669922"/>
      <use xlink:href="#DejaVuSans-65" x="600.533203"/>
      <use xlink:href="#DejaVuSans-73" x="662.056641"/>
      <use xlink:href="#DejaVuSans-70" x="714.15625"/>
      <use xlink:href="#DejaVuSans-6f" x="777.632812"/>
      <use xlink:href="#DejaVuSans-6e" x="838.814453"/>
      <use xlink:href="#DejaVuSans-73" x="902.193359"/>
      <use xlink:href="#DejaVuSans-65" x="954.292969"/>
      <use xlink:href="#DejaVuSans-73" x="1015.816406"/>
     </g>
    </g>
   </g>
   <g id="matplotlib.axis_2">
    <g id="ytick_1">
     <g id="line2d_4">
      <defs>
       <path id="m2109bad464" d="M 0 0 
L -3.5 0 
" style="stroke: #000000; stroke-width: 0.8"/>
      </defs>
      <g>
       <use xlink:href="#m2109bad464" x="234.426875" y="1045.598245" style="stroke: #000000; stroke-width: 0.8"/>
      </g>
     </g>
     <g id="text_5">
      <!-- Argentina -->
      <g transform="translate(120.111562 1053.956527)scale(0.22 -0.22)">
       <defs>
        <path id="DejaVuSans-41" d="M 2188 4044 
L 1331 1722 
L 3047 1722 
L 2188 4044 
z
M 1831 4666 
L 2547 4666 
L 4325 0 
L 3669 0 
L 3244 1197 
L 1141 1197 
L 716 0 
L 50 0 
L 1831 4666 
z
" transform="scale(0.015625)"/>
        <path id="DejaVuSans-67" d="M 2906 1791 
Q 2906 2416 2648 2759 
Q 2391 3103 1925 3103 
Q 1463 3103 1205 2759 
Q 947 2416 947 1791 
Q 947 1169 1205 825 
Q 1463 481 1925 481 
Q 2391 481 2648 825 
Q 2906 1169 2906 1791 
z
M 3481 434 
Q 3481 -459 3084 -895 
Q 2688 -1331 1869 -1331 
Q 1566 -1331 1297 -1286 
Q 1028 -1241 775 -1147 
L 775 -588 
Q 1028 -725 1275 -790 
Q 1522 -856 1778 -856 
Q 2344 -856 2625 -561 
Q 2906 -266 2906 331 
L 2906 616 
Q 2728 306 2450 153 
Q 2172 0 1784 0 
Q 1141 0 747 490 
Q 353 981 353 1791 
Q 353 2603 747 3093 
Q 1141 3584 1784 3584 
Q 2172 3584 2450 3431 
Q 2728 3278 2906 2969 
L 2906 3500 
L 3481 3500 
L 3481 434 
z
" transform="scale(0.015625)"/>
        <path id="DejaVuSans-74" d="M 1172 4494 
L 1172 3500 
L 2356 3500 
L 2356 3053 
L 1172 3053 
L 1172 1153 
Q 1172 725 1289 603 
Q 1406 481 1766 481 
L 2356 481 
L 2356 0 
L 1766 0 
Q 1100 0 847 248 
Q 594 497 594 1153 
L 594 3053 
L 172 3053 
L 172 3500 
L 594 3500 
L 594 4494 
L 1172 4494 
z
" transform="scale(0.015625)"/>
        <path id="DejaVuSans-69" d="M 603 3500 
L 1178 3500 
L 1178 0 
L 603 0 
L 603 3500 
z
M 603 4863 
L 1178 4863 
L 1178 4134 
L 603 4134 
L 603 4863 
z
" transform="scale(0.015625)"/>
        <path id="DejaVuSans-61" d="M 2194 1759 
Q 1497 1759 1228 1600 
Q 959 1441 959 1056 
Q 959 750 1161 570 
Q 1363 391 1709 391 
Q 2188 391 2477 730 
Q 2766 1069 2766 1631 
L 2766 1759 
L 2194 1759 
z
M 3341 1997 
L 3341 0 
L 2766 0 
L 2766 531 
Q 2569 213 2275 61 
Q 1981 -91 1556 -91 
Q 1019 -91 701 211 
Q 384 513 384 1019 
Q 384 1609 779 1909 
Q 1175 2209 1959 2209 
L 2766 2209 
L 2766 2266 
Q 2766 2663 2505 2880 
Q 2244 3097 1772 3097 
Q 1472 3097 1187 3025 
Q 903 2953 641 2809 
L 641 3341 
Q 956 3463 1253 3523 
Q 1550 3584 1831 3584 
Q 2591 3584 2966 3190 
Q 3341 2797 3341 1997 
z
" transform="scale(0.015625)"/>
       </defs>
       <use xlink:href="#DejaVuSans-41"/>
       <use xlink:href="#DejaVuSans-72" x="68.408203"/>
       <use xlink:href="#DejaVuSans-67" x="107.771484"/>
       <use xlink:href="#DejaVuSans-65" x="171.248047"/>
       <use xlink:href="#DejaVuSans-6e" x="232.771484"/>
       <use xlink:href="#DejaVuSans-74" x="296.150391"/>
       <use xlink:href="#DejaVuSans-69" x="335.359375"/>
       <use xlink:href="#DejaVuSans-6e" x="363.142578"/>
       <use xlink:href="#DejaVuSans-61" x="426.521484"/>
      </g>
     </g>
    </g>
    <g id="ytick_2">
     <g id="line2d_5">
      <g>
       <use xlink:href="#m2109bad464" x="234.426875" y="1020.602236" style="stroke: #000000; stroke-width: 0.8"/>
      </g>
     </g>
     <g id="text_6">
      <!-- malaysia -->
      <g transform="translate(128.84625 1028.960518)scale(0.22 -0.22)">
       <defs>
        <path id="DejaVuSans-6c" d="M 603 4863 
L 1178 4863 
L 1178 0 
L 603 0 
L 603 4863 
z
" transform="scale(0.015625)"/>
        <path id="DejaVuSans-79" d="M 2059 -325 
Q 1816 -950 1584 -1140 
Q 1353 -1331 966 -1331 
L 506 -1331 
L 506 -850 
L 844 -850 
Q 1081 -850 1212 -737 
Q 1344 -625 1503 -206 
L 1606 56 
L 191 3500 
L 800 3500 
L 1894 763 
L 2988 3500 
L 3597 3500 
L 2059 -325 
z
" transform="scale(0.015625)"/>
       </defs>
       <use xlink:href="#DejaVuSans-6d"/>
       <use xlink:href="#DejaVuSans-61" x="97.412109"/>
       <use xlink:href="#DejaVuSans-6c" x="158.691406"/>
       <use xlink:href="#DejaVuSans-61" x="186.474609"/>
       <use xlink:href="#DejaVuSans-79" x="247.753906"/>
       <use xlink:href="#DejaVuSans-73" x="306.933594"/>
       <use xlink:href="#DejaVuSans-69" x="359.033203"/>
       <use xlink:href="#DejaVuSans-61" x="386.816406"/>
      </g>
     </g>
    </g>
    <g id="ytick_3">
     <g id="line2d_6">
      <g>
       <use xlink:href="#m2109bad464" x="234.426875" y="995.606227" style="stroke: #000000; stroke-width: 0.8"/>
      </g>
     </g>
     <g id="text_7">
      <!-- Mauritius -->
      <g transform="translate(125.725 1003.964508)scale(0.22 -0.22)">
       <defs>
        <path id="DejaVuSans-4d" d="M 628 4666 
L 1569 4666 
L 2759 1491 
L 3956 4666 
L 4897 4666 
L 4897 0 
L 4281 0 
L 4281 4097 
L 3078 897 
L 2444 897 
L 1241 4097 
L 1241 0 
L 628 0 
L 628 4666 
z
" transform="scale(0.015625)"/>
       </defs>
       <use xlink:href="#DejaVuSans-4d"/>
       <use xlink:href="#DejaVuSans-61" x="86.279297"/>
       <use xlink:href="#DejaVuSans-75" x="147.558594"/>
       <use xlink:href="#DejaVuSans-72" x="210.9375"/>
       <use xlink:href="#DejaVuSans-69" x="252.050781"/>
       <use xlink:href="#DejaVuSans-74" x="279.833984"/>
       <use xlink:href="#DejaVuSans-69" x="319.042969"/>
       <use xlink:href="#DejaVuSans-75" x="346.826172"/>
       <use xlink:href="#DejaVuSans-73" x="410.205078"/>
      </g>
     </g>
    </g>
    <g id="ytick_4">
     <g id="line2d_7">
      <g>
       <use xlink:href="#m2109bad464" x="234.426875" y="970.610218" style="stroke: #000000; stroke-width: 0.8"/>
      </g>
     </g>
     <g id="text_8">
      <!-- Norway -->
      <g transform="translate(143.967812 978.968499)scale(0.22 -0.22)">
       <defs>
        <path id="DejaVuSans-77" d="M 269 3500 
L 844 3500 
L 1563 769 
L 2278 3500 
L 2956 3500 
L 3675 769 
L 4391 3500 
L 4966 3500 
L 4050 0 
L 3372 0 
L 2619 2869 
L 1863 0 
L 1184 0 
L 269 3500 
z
" transform="scale(0.015625)"/>
       </defs>
       <use xlink:href="#DejaVuSans-4e"/>
       <use xlink:href="#DejaVuSans-6f" x="74.804688"/>
       <use xlink:href="#DejaVuSans-72" x="135.986328"/>
       <use xlink:href="#DejaVuSans-77" x="177.099609"/>
       <use xlink:href="#DejaVuSans-61" x="258.886719"/>
       <use xlink:href="#DejaVuSans-79" x="320.166016"/>
      </g>
     </g>
    </g>
    <g id="ytick_5">
     <g id="line2d_8">
      <g>
       <use xlink:href="#m2109bad464" x="234.426875" y="945.614209" style="stroke: #000000; stroke-width: 0.8"/>
      </g>
     </g>
     <g id="text_9">
      <!-- Peru -->
      <g transform="translate(178.435625 953.97249)scale(0.22 -0.22)">
       <defs>
        <path id="DejaVuSans-50" d="M 1259 4147 
L 1259 2394 
L 2053 2394 
Q 2494 2394 2734 2622 
Q 2975 2850 2975 3272 
Q 2975 3691 2734 3919 
Q 2494 4147 2053 4147 
L 1259 4147 
z
M 628 4666 
L 2053 4666 
Q 2838 4666 3239 4311 
Q 3641 3956 3641 3272 
Q 3641 2581 3239 2228 
Q 2838 1875 2053 1875 
L 1259 1875 
L 1259 0 
L 628 0 
L 628 4666 
z
" transform="scale(0.015625)"/>
       </defs>
       <use xlink:href="#DejaVuSans-50"/>
       <use xlink:href="#DejaVuSans-65" x="56.677734"/>
       <use xlink:href="#DejaVuSans-72" x="118.201172"/>
       <use xlink:href="#DejaVuSans-75" x="159.314453"/>
      </g>
     </g>
    </g>
    <g id="ytick_6">
     <g id="line2d_9">
      <g>
       <use xlink:href="#m2109bad464" x="234.426875" y="920.6182" style="stroke: #000000; stroke-width: 0.8"/>
      </g>
     </g>
     <g id="text_10">
      <!-- Philippines -->
      <g transform="translate(108.898438 928.976481)scale(0.22 -0.22)">
       <defs>
        <path id="DejaVuSans-68" d="M 3513 2113 
L 3513 0 
L 2938 0 
L 2938 2094 
Q 2938 2591 2744 2837 
Q 2550 3084 2163 3084 
Q 1697 3084 1428 2787 
Q 1159 2491 1159 1978 
L 1159 0 
L 581 0 
L 581 4863 
L 1159 4863 
L 1159 2956 
Q 1366 3272 1645 3428 
Q 1925 3584 2291 3584 
Q 2894 3584 3203 3211 
Q 3513 2838 3513 2113 
z
" transform="scale(0.015625)"/>
       </defs>
       <use xlink:href="#DejaVuSans-50"/>
       <use xlink:href="#DejaVuSans-68" x="60.302734"/>
       <use xlink:href="#DejaVuSans-69" x="123.681641"/>
       <use xlink:href="#DejaVuSans-6c" x="151.464844"/>
       <use xlink:href="#DejaVuSans-69" x="179.248047"/>
       <use xlink:href="#DejaVuSans-70" x="207.03125"/>
       <use xlink:href="#DejaVuSans-70" x="270.507812"/>
       <use xlink:href="#DejaVuSans-69" x="333.984375"/>
       <use xlink:href="#DejaVuSans-6e" x="361.767578"/>
       <use xlink:href="#DejaVuSans-65" x="425.146484"/>
       <use xlink:href="#DejaVuSans-73" x="486.669922"/>
      </g>
     </g>
    </g>
    <g id="ytick_7">
     <g id="line2d_10">
      <g>
       <use xlink:href="#m2109bad464" x="234.426875" y="895.622191" style="stroke: #000000; stroke-width: 0.8"/>
      </g>
     </g>
     <g id="text_11">
      <!-- Poland -->
      <g transform="translate(153.995 903.980472)scale(0.22 -0.22)">
       <defs>
        <path id="DejaVuSans-64" d="M 2906 2969 
L 2906 4863 
L 3481 4863 
L 3481 0 
L 2906 0 
L 2906 525 
Q 2725 213 2448 61 
Q 2172 -91 1784 -91 
Q 1150 -91 751 415 
Q 353 922 353 1747 
Q 353 2572 751 3078 
Q 1150 3584 1784 3584 
Q 2172 3584 2448 3432 
Q 2725 3281 2906 2969 
z
M 947 1747 
Q 947 1113 1208 752 
Q 1469 391 1925 391 
Q 2381 391 2643 752 
Q 2906 1113 2906 1747 
Q 2906 2381 2643 2742 
Q 2381 3103 1925 3103 
Q 1469 3103 1208 2742 
Q 947 2381 947 1747 
z
" transform="scale(0.015625)"/>
       </defs>
       <use xlink:href="#DejaVuSans-50"/>
       <use xlink:href="#DejaVuSans-6f" x="56.677734"/>
       <use xlink:href="#DejaVuSans-6c" x="117.859375"/>
       <use xlink:href="#DejaVuSans-61" x="145.642578"/>
       <use xlink:href="#DejaVuSans-6e" x="206.921875"/>
       <use xlink:href="#DejaVuSans-64" x="270.300781"/>
      </g>
     </g>
    </g>
    <g id="ytick_8">
     <g id="line2d_11">
      <g>
       <use xlink:href="#m2109bad464" x="234.426875" y="870.626181" style="stroke: #000000; stroke-width: 0.8"/>
      </g>
     </g>
     <g id="text_12">
      <!-- Portugal -->
      <g transform="translate(136.32625 878.984463)scale(0.22 -0.22)">
       <use xlink:href="#DejaVuSans-50"/>
       <use xlink:href="#DejaVuSans-6f" x="56.677734"/>
       <use xlink:href="#DejaVuSans-72" x="117.859375"/>
       <use xlink:href="#DejaVuSans-74" x="158.972656"/>
       <use xlink:href="#DejaVuSans-75" x="198.181641"/>
       <use xlink:href="#DejaVuSans-67" x="261.560547"/>
       <use xlink:href="#DejaVuSans-61" x="325.037109"/>
       <use xlink:href="#DejaVuSans-6c" x="386.316406"/>
      </g>
     </g>
    </g>
    <g id="ytick_9">
     <g id="line2d_12">
      <g>
       <use xlink:href="#m2109bad464" x="234.426875" y="845.630172" style="stroke: #000000; stroke-width: 0.8"/>
      </g>
     </g>
     <g id="text_13">
      <!-- Saudi Arabia -->
      <g transform="translate(87.83 853.988454)scale(0.22 -0.22)">
       <defs>
        <path id="DejaVuSans-53" d="M 3425 4513 
L 3425 3897 
Q 3066 4069 2747 4153 
Q 2428 4238 2131 4238 
Q 1616 4238 1336 4038 
Q 1056 3838 1056 3469 
Q 1056 3159 1242 3001 
Q 1428 2844 1947 2747 
L 2328 2669 
Q 3034 2534 3370 2195 
Q 3706 1856 3706 1288 
Q 3706 609 3251 259 
Q 2797 -91 1919 -91 
Q 1588 -91 1214 -16 
Q 841 59 441 206 
L 441 856 
Q 825 641 1194 531 
Q 1563 422 1919 422 
Q 2459 422 2753 634 
Q 3047 847 3047 1241 
Q 3047 1584 2836 1778 
Q 2625 1972 2144 2069 
L 1759 2144 
Q 1053 2284 737 2584 
Q 422 2884 422 3419 
Q 422 4038 858 4394 
Q 1294 4750 2059 4750 
Q 2388 4750 2728 4690 
Q 3069 4631 3425 4513 
z
" transform="scale(0.015625)"/>
       </defs>
       <use xlink:href="#DejaVuSans-53"/>
       <use xlink:href="#DejaVuSans-61" x="63.476562"/>
       <use xlink:href="#DejaVuSans-75" x="124.755859"/>
       <use xlink:href="#DejaVuSans-64" x="188.134766"/>
       <use xlink:href="#DejaVuSans-69" x="251.611328"/>
       <use xlink:href="#DejaVuSans-20" x="279.394531"/>
       <use xlink:href="#DejaVuSans-41" x="311.181641"/>
       <use xlink:href="#DejaVuSans-72" x="379.589844"/>
       <use xlink:href="#DejaVuSans-61" x="420.703125"/>
       <use xlink:href="#DejaVuSans-62" x="481.982422"/>
       <use xlink:href="#DejaVuSans-69" x="545.458984"/>
       <use xlink:href="#DejaVuSans-61" x="573.242188"/>
      </g>
     </g>
    </g>
    <g id="ytick_10">
     <g id="line2d_13">
      <g>
       <use xlink:href="#m2109bad464" x="234.426875" y="820.634163" style="stroke: #000000; stroke-width: 0.8"/>
      </g>
     </g>
     <g id="text_14">
      <!-- Singapore -->
      <g transform="translate(116.44375 828.992444)scale(0.22 -0.22)">
       <use xlink:href="#DejaVuSans-53"/>
       <use xlink:href="#DejaVuSans-69" x="63.476562"/>
       <use xlink:href="#DejaVuSans-6e" x="91.259766"/>
       <use xlink:href="#DejaVuSans-67" x="154.638672"/>
       <use xlink:href="#DejaVuSans-61" x="218.115234"/>
       <use xlink:href="#DejaVuSans-70" x="279.394531"/>
       <use xlink:href="#DejaVuSans-6f" x="342.871094"/>
       <use xlink:href="#DejaVuSans-72" x="404.052734"/>
       <use xlink:href="#DejaVuSans-65" x="442.916016"/>
      </g>
     </g>
    </g>
    <g id="ytick_11">
     <g id="line2d_14">
      <g>
       <use xlink:href="#m2109bad464" x="234.426875" y="795.638154" style="stroke: #000000; stroke-width: 0.8"/>
      </g>
     </g>
     <g id="text_15">
      <!-- South Korea -->
      <g transform="translate(94.14125 803.996435)scale(0.22 -0.22)">
       <defs>
        <path id="DejaVuSans-4b" d="M 628 4666 
L 1259 4666 
L 1259 2694 
L 3353 4666 
L 4166 4666 
L 1850 2491 
L 4331 0 
L 3500 0 
L 1259 2247 
L 1259 0 
L 628 0 
L 628 4666 
z
" transform="scale(0.015625)"/>
       </defs>
       <use xlink:href="#DejaVuSans-53"/>
       <use xlink:href="#DejaVuSans-6f" x="63.476562"/>
       <use xlink:href="#DejaVuSans-75" x="124.658203"/>
       <use xlink:href="#DejaVuSans-74" x="188.037109"/>
       <use xlink:href="#DejaVuSans-68" x="227.246094"/>
       <use xlink:href="#DejaVuSans-20" x="290.625"/>
       <use xlink:href="#DejaVuSans-4b" x="322.412109"/>
       <use xlink:href="#DejaVuSans-6f" x="382.988281"/>
       <use xlink:href="#DejaVuSans-72" x="444.169922"/>
       <use xlink:href="#DejaVuSans-65" x="483.033203"/>
       <use xlink:href="#DejaVuSans-61" x="544.556641"/>
      </g>
     </g>
    </g>
    <g id="ytick_12">
     <g id="line2d_15">
      <g>
       <use xlink:href="#m2109bad464" x="234.426875" y="770.642145" style="stroke: #000000; stroke-width: 0.8"/>
      </g>
     </g>
     <g id="text_16">
      <!-- Tanzania -->
      <g transform="translate(131.630625 779.000426)scale(0.22 -0.22)">
       <defs>
        <path id="DejaVuSans-54" d="M -19 4666 
L 3928 4666 
L 3928 4134 
L 2272 4134 
L 2272 0 
L 1638 0 
L 1638 4134 
L -19 4134 
L -19 4666 
z
" transform="scale(0.015625)"/>
        <path id="DejaVuSans-7a" d="M 353 3500 
L 3084 3500 
L 3084 2975 
L 922 459 
L 3084 459 
L 3084 0 
L 275 0 
L 275 525 
L 2438 3041 
L 353 3041 
L 353 3500 
z
" transform="scale(0.015625)"/>
       </defs>
       <use xlink:href="#DejaVuSans-54"/>
       <use xlink:href="#DejaVuSans-61" x="44.583984"/>
       <use xlink:href="#DejaVuSans-6e" x="105.863281"/>
       <use xlink:href="#DejaVuSans-7a" x="169.242188"/>
       <use xlink:href="#DejaVuSans-61" x="221.732422"/>
       <use xlink:href="#DejaVuSans-6e" x="283.011719"/>
       <use xlink:href="#DejaVuSans-69" x="346.390625"/>
       <use xlink:href="#DejaVuSans-61" x="374.173828"/>
      </g>
     </g>
    </g>
    <g id="ytick_13">
     <g id="line2d_16">
      <g>
       <use xlink:href="#m2109bad464" x="234.426875" y="745.646136" style="stroke: #000000; stroke-width: 0.8"/>
      </g>
     </g>
     <g id="text_17">
      <!-- Thailand -->
      <g transform="translate(132.950625 754.004417)scale(0.22 -0.22)">
       <use xlink:href="#DejaVuSans-54"/>
       <use xlink:href="#DejaVuSans-68" x="61.083984"/>
       <use xlink:href="#DejaVuSans-61" x="124.462891"/>
       <use xlink:href="#DejaVuSans-69" x="185.742188"/>
       <use xlink:href="#DejaVuSans-6c" x="213.525391"/>
       <use xlink:href="#DejaVuSans-61" x="241.308594"/>
       <use xlink:href="#DejaVuSans-6e" x="302.587891"/>
       <use xlink:href="#DejaVuSans-64" x="365.966797"/>
      </g>
     </g>
    </g>
    <g id="ytick_14">
     <g id="line2d_17">
      <g>
       <use xlink:href="#m2109bad464" x="234.426875" y="720.650127" style="stroke: #000000; stroke-width: 0.8"/>
      </g>
     </g>
     <g id="text_18">
      <!-- Trinidad and Tobago -->
      <g transform="translate(7.2 729.008408)scale(0.22 -0.22)">
       <use xlink:href="#DejaVuSans-54"/>
       <use xlink:href="#DejaVuSans-72" x="46.333984"/>
       <use xlink:href="#DejaVuSans-69" x="87.447266"/>
       <use xlink:href="#DejaVuSans-6e" x="115.230469"/>
       <use xlink:href="#DejaVuSans-69" x="178.609375"/>
       <use xlink:href="#DejaVuSans-64" x="206.392578"/>
       <use xlink:href="#DejaVuSans-61" x="269.869141"/>
       <use xlink:href="#DejaVuSans-64" x="331.148438"/>
       <use xlink:href="#DejaVuSans-20" x="394.625"/>
       <use xlink:href="#DejaVuSans-61" x="426.412109"/>
       <use xlink:href="#DejaVuSans-6e" x="487.691406"/>
       <use xlink:href="#DejaVuSans-64" x="551.070312"/>
       <use xlink:href="#DejaVuSans-20" x="614.546875"/>
       <use xlink:href="#DejaVuSans-54" x="646.333984"/>
       <use xlink:href="#DejaVuSans-6f" x="690.417969"/>
       <use xlink:href="#DejaVuSans-62" x="751.599609"/>
       <use xlink:href="#DejaVuSans-61" x="815.076172"/>
       <use xlink:href="#DejaVuSans-67" x="876.355469"/>
       <use xlink:href="#DejaVuSans-6f" x="939.832031"/>
      </g>
     </g>
    </g>
    <g id="ytick_15">
     <g id="line2d_18">
      <g>
       <use xlink:href="#m2109bad464" x="234.426875" y="695.654117" style="stroke: #000000; stroke-width: 0.8"/>
      </g>
     </g>
     <g id="text_19">
      <!-- Tunisia -->
      <g transform="translate(152.265938 704.012399)scale(0.22 -0.22)">
       <use xlink:href="#DejaVuSans-54"/>
       <use xlink:href="#DejaVuSans-75" x="45.958984"/>
       <use xlink:href="#DejaVuSans-6e" x="109.337891"/>
       <use xlink:href="#DejaVuSans-69" x="172.716797"/>
       <use xlink:href="#DejaVuSans-73" x="200.5"/>
       <use xlink:href="#DejaVuSans-69" x="252.599609"/>
       <use xlink:href="#DejaVuSans-61" x="280.382812"/>
      </g>
     </g>
    </g>
    <g id="ytick_16">
     <g id="line2d_19">
      <g>
       <use xlink:href="#m2109bad464" x="234.426875" y="670.658108" style="stroke: #000000; stroke-width: 0.8"/>
      </g>
     </g>
     <g id="text_20">
      <!-- United States -->
      <g transform="translate(78.455938 679.016389)scale(0.22 -0.22)">
       <defs>
        <path id="DejaVuSans-55" d="M 556 4666 
L 1191 4666 
L 1191 1831 
Q 1191 1081 1462 751 
Q 1734 422 2344 422 
Q 2950 422 3222 751 
Q 3494 1081 3494 1831 
L 3494 4666 
L 4128 4666 
L 4128 1753 
Q 4128 841 3676 375 
Q 3225 -91 2344 -91 
Q 1459 -91 1007 375 
Q 556 841 556 1753 
L 556 4666 
z
" transform="scale(0.015625)"/>
       </defs>
       <use xlink:href="#DejaVuSans-55"/>
       <use xlink:href="#DejaVuSans-6e" x="73.193359"/>
       <use xlink:href="#DejaVuSans-69" x="136.572266"/>
       <use xlink:href="#DejaVuSans-74" x="164.355469"/>
       <use xlink:href="#DejaVuSans-65" x="203.564453"/>
       <use xlink:href="#DejaVuSans-64" x="265.087891"/>
       <use xlink:href="#DejaVuSans-20" x="328.564453"/>
       <use xlink:href="#DejaVuSans-53" x="360.351562"/>
       <use xlink:href="#DejaVuSans-74" x="423.828125"/>
       <use xlink:href="#DejaVuSans-61" x="463.037109"/>
       <use xlink:href="#DejaVuSans-74" x="524.316406"/>
       <use xlink:href="#DejaVuSans-65" x="563.525391"/>
       <use xlink:href="#DejaVuSans-73" x="625.048828"/>
      </g>
     </g>
    </g>
    <g id="ytick_17">
     <g id="line2d_20">
      <g>
       <use xlink:href="#m2109bad464" x="234.426875" y="645.662099" style="stroke: #000000; stroke-width: 0.8"/>
      </g>
     </g>
     <g id="text_21">
      <!-- Ivory Coast -->
      <g transform="translate(103.006563 654.02038)scale(0.22 -0.22)">
       <defs>
        <path id="DejaVuSans-49" d="M 628 4666 
L 1259 4666 
L 1259 0 
L 628 0 
L 628 4666 
z
" transform="scale(0.015625)"/>
        <path id="DejaVuSans-76" d="M 191 3500 
L 800 3500 
L 1894 563 
L 2988 3500 
L 3597 3500 
L 2284 0 
L 1503 0 
L 191 3500 
z
" transform="scale(0.015625)"/>
        <path id="DejaVuSans-43" d="M 4122 4306 
L 4122 3641 
Q 3803 3938 3442 4084 
Q 3081 4231 2675 4231 
Q 1875 4231 1450 3742 
Q 1025 3253 1025 2328 
Q 1025 1406 1450 917 
Q 1875 428 2675 428 
Q 3081 428 3442 575 
Q 3803 722 4122 1019 
L 4122 359 
Q 3791 134 3420 21 
Q 3050 -91 2638 -91 
Q 1578 -91 968 557 
Q 359 1206 359 2328 
Q 359 3453 968 4101 
Q 1578 4750 2638 4750 
Q 3056 4750 3426 4639 
Q 3797 4528 4122 4306 
z
" transform="scale(0.015625)"/>
       </defs>
       <use xlink:href="#DejaVuSans-49"/>
       <use xlink:href="#DejaVuSans-76" x="29.492188"/>
       <use xlink:href="#DejaVuSans-6f" x="88.671875"/>
       <use xlink:href="#DejaVuSans-72" x="149.853516"/>
       <use xlink:href="#DejaVuSans-79" x="190.966797"/>
       <use xlink:href="#DejaVuSans-20" x="250.146484"/>
       <use xlink:href="#DejaVuSans-43" x="281.933594"/>
       <use xlink:href="#DejaVuSans-6f" x="351.757812"/>
       <use xlink:href="#DejaVuSans-61" x="412.939453"/>
       <use xlink:href="#DejaVuSans-73" x="474.21875"/>
       <use xlink:href="#DejaVuSans-74" x="526.318359"/>
      </g>
     </g>
    </g>
    <g id="ytick_18">
     <g id="line2d_21">
      <g>
       <use xlink:href="#m2109bad464" x="234.426875" y="620.66609" style="stroke: #000000; stroke-width: 0.8"/>
      </g>
     </g>
     <g id="text_22">
      <!-- Italy  -->
      <g transform="translate(172.705312 629.024371)scale(0.22 -0.22)">
       <use xlink:href="#DejaVuSans-49"/>
       <use xlink:href="#DejaVuSans-74" x="29.492188"/>
       <use xlink:href="#DejaVuSans-61" x="68.701172"/>
       <use xlink:href="#DejaVuSans-6c" x="129.980469"/>
       <use xlink:href="#DejaVuSans-79" x="157.763672"/>
       <use xlink:href="#DejaVuSans-20" x="216.943359"/>
      </g>
     </g>
    </g>
    <g id="ytick_19">
     <g id="line2d_22">
      <g>
       <use xlink:href="#m2109bad464" x="234.426875" y="595.670081" style="stroke: #000000; stroke-width: 0.8"/>
      </g>
     </g>
     <g id="text_23">
      <!-- Malaysia -->
      <g transform="translate(131.29375 604.028362)scale(0.22 -0.22)">
       <use xlink:href="#DejaVuSans-4d"/>
       <use xlink:href="#DejaVuSans-61" x="86.279297"/>
       <use xlink:href="#DejaVuSans-6c" x="147.558594"/>
       <use xlink:href="#DejaVuSans-61" x="175.341797"/>
       <use xlink:href="#DejaVuSans-79" x="236.621094"/>
       <use xlink:href="#DejaVuSans-73" x="295.800781"/>
       <use xlink:href="#DejaVuSans-69" x="347.900391"/>
       <use xlink:href="#DejaVuSans-61" x="375.683594"/>
      </g>
     </g>
    </g>
    <g id="ytick_20">
     <g id="line2d_23">
      <g>
       <use xlink:href="#m2109bad464" x="234.426875" y="570.674072" style="stroke: #000000; stroke-width: 0.8"/>
      </g>
     </g>
     <g id="text_24">
      <!-- Ireland -->
      <g transform="translate(151.348125 579.032353)scale(0.22 -0.22)">
       <use xlink:href="#DejaVuSans-49"/>
       <use xlink:href="#DejaVuSans-72" x="29.492188"/>
       <use xlink:href="#DejaVuSans-65" x="68.355469"/>
       <use xlink:href="#DejaVuSans-6c" x="129.878906"/>
       <use xlink:href="#DejaVuSans-61" x="157.662109"/>
       <use xlink:href="#DejaVuSans-6e" x="218.941406"/>
       <use xlink:href="#DejaVuSans-64" x="282.320312"/>
      </g>
     </g>
    </g>
    <g id="ytick_21">
     <g id="line2d_24">
      <g>
       <use xlink:href="#m2109bad464" x="234.426875" y="545.678062" style="stroke: #000000; stroke-width: 0.8"/>
      </g>
     </g>
     <g id="text_25">
      <!-- Australia  -->
      <g transform="translate(123.12625 554.036344)scale(0.22 -0.22)">
       <use xlink:href="#DejaVuSans-41"/>
       <use xlink:href="#DejaVuSans-75" x="68.408203"/>
       <use xlink:href="#DejaVuSans-73" x="131.787109"/>
       <use xlink:href="#DejaVuSans-74" x="183.886719"/>
       <use xlink:href="#DejaVuSans-72" x="223.095703"/>
       <use xlink:href="#DejaVuSans-61" x="264.208984"/>
       <use xlink:href="#DejaVuSans-6c" x="325.488281"/>
       <use xlink:href="#DejaVuSans-69" x="353.271484"/>
       <use xlink:href="#DejaVuSans-61" x="381.054688"/>
       <use xlink:href="#DejaVuSans-20" x="442.333984"/>
      </g>
     </g>
    </g>
    <g id="ytick_22">
     <g id="line2d_25">
      <g>
       <use xlink:href="#m2109bad464" x="234.426875" y="520.682053" style="stroke: #000000; stroke-width: 0.8"/>
      </g>
     </g>
     <g id="text_26">
      <!-- Belgium -->
      <g transform="translate(137.23375 529.040335)scale(0.22 -0.22)">
       <defs>
        <path id="DejaVuSans-42" d="M 1259 2228 
L 1259 519 
L 2272 519 
Q 2781 519 3026 730 
Q 3272 941 3272 1375 
Q 3272 1813 3026 2020 
Q 2781 2228 2272 2228 
L 1259 2228 
z
M 1259 4147 
L 1259 2741 
L 2194 2741 
Q 2656 2741 2882 2914 
Q 3109 3088 3109 3444 
Q 3109 3797 2882 3972 
Q 2656 4147 2194 4147 
L 1259 4147 
z
M 628 4666 
L 2241 4666 
Q 2963 4666 3353 4366 
Q 3744 4066 3744 3513 
Q 3744 3084 3544 2831 
Q 3344 2578 2956 2516 
Q 3422 2416 3680 2098 
Q 3938 1781 3938 1306 
Q 3938 681 3513 340 
Q 3088 0 2303 0 
L 628 0 
L 628 4666 
z
" transform="scale(0.015625)"/>
       </defs>
       <use xlink:href="#DejaVuSans-42"/>
       <use xlink:href="#DejaVuSans-65" x="68.603516"/>
       <use xlink:href="#DejaVuSans-6c" x="130.126953"/>
       <use xlink:href="#DejaVuSans-67" x="157.910156"/>
       <use xlink:href="#DejaVuSans-69" x="221.386719"/>
       <use xlink:href="#DejaVuSans-75" x="249.169922"/>
       <use xlink:href="#DejaVuSans-6d" x="312.548828"/>
      </g>
     </g>
    </g>
    <g id="ytick_23">
     <g id="line2d_26">
      <g>
       <use xlink:href="#m2109bad464" x="234.426875" y="495.686044" style="stroke: #000000; stroke-width: 0.8"/>
      </g>
     </g>
     <g id="text_27">
      <!-- Czech Republic -->
      <g transform="translate(59.920938 504.044325)scale(0.22 -0.22)">
       <defs>
        <path id="DejaVuSans-63" d="M 3122 3366 
L 3122 2828 
Q 2878 2963 2633 3030 
Q 2388 3097 2138 3097 
Q 1578 3097 1268 2742 
Q 959 2388 959 1747 
Q 959 1106 1268 751 
Q 1578 397 2138 397 
Q 2388 397 2633 464 
Q 2878 531 3122 666 
L 3122 134 
Q 2881 22 2623 -34 
Q 2366 -91 2075 -91 
Q 1284 -91 818 406 
Q 353 903 353 1747 
Q 353 2603 823 3093 
Q 1294 3584 2113 3584 
Q 2378 3584 2631 3529 
Q 2884 3475 3122 3366 
z
" transform="scale(0.015625)"/>
        <path id="DejaVuSans-52" d="M 2841 2188 
Q 3044 2119 3236 1894 
Q 3428 1669 3622 1275 
L 4263 0 
L 3584 0 
L 2988 1197 
Q 2756 1666 2539 1819 
Q 2322 1972 1947 1972 
L 1259 1972 
L 1259 0 
L 628 0 
L 628 4666 
L 2053 4666 
Q 2853 4666 3247 4331 
Q 3641 3997 3641 3322 
Q 3641 2881 3436 2590 
Q 3231 2300 2841 2188 
z
M 1259 4147 
L 1259 2491 
L 2053 2491 
Q 2509 2491 2742 2702 
Q 2975 2913 2975 3322 
Q 2975 3731 2742 3939 
Q 2509 4147 2053 4147 
L 1259 4147 
z
" transform="scale(0.015625)"/>
       </defs>
       <use xlink:href="#DejaVuSans-43"/>
       <use xlink:href="#DejaVuSans-7a" x="69.824219"/>
       <use xlink:href="#DejaVuSans-65" x="122.314453"/>
       <use xlink:href="#DejaVuSans-63" x="183.837891"/>
       <use xlink:href="#DejaVuSans-68" x="238.818359"/>
       <use xlink:href="#DejaVuSans-20" x="302.197266"/>
       <use xlink:href="#DejaVuSans-52" x="333.984375"/>
       <use xlink:href="#DejaVuSans-65" x="398.966797"/>
       <use xlink:href="#DejaVuSans-70" x="460.490234"/>
       <use xlink:href="#DejaVuSans-75" x="523.966797"/>
       <use xlink:href="#DejaVuSans-62" x="587.345703"/>
       <use xlink:href="#DejaVuSans-6c" x="650.822266"/>
       <use xlink:href="#DejaVuSans-69" x="678.605469"/>
       <use xlink:href="#DejaVuSans-63" x="706.388672"/>
      </g>
     </g>
    </g>
    <g id="ytick_24">
     <g id="line2d_27">
      <g>
       <use xlink:href="#m2109bad464" x="234.426875" y="470.690035" style="stroke: #000000; stroke-width: 0.8"/>
      </g>
     </g>
     <g id="text_28">
      <!-- Denmark -->
      <g transform="translate(126.312812 479.048316)scale(0.22 -0.22)">
       <defs>
        <path id="DejaVuSans-44" d="M 1259 4147 
L 1259 519 
L 2022 519 
Q 2988 519 3436 956 
Q 3884 1394 3884 2338 
Q 3884 3275 3436 3711 
Q 2988 4147 2022 4147 
L 1259 4147 
z
M 628 4666 
L 1925 4666 
Q 3281 4666 3915 4102 
Q 4550 3538 4550 2338 
Q 4550 1131 3912 565 
Q 3275 0 1925 0 
L 628 0 
L 628 4666 
z
" transform="scale(0.015625)"/>
        <path id="DejaVuSans-6b" d="M 581 4863 
L 1159 4863 
L 1159 1991 
L 2875 3500 
L 3609 3500 
L 1753 1863 
L 3688 0 
L 2938 0 
L 1159 1709 
L 1159 0 
L 581 0 
L 581 4863 
z
" transform="scale(0.015625)"/>
       </defs>
       <use xlink:href="#DejaVuSans-44"/>
       <use xlink:href="#DejaVuSans-65" x="77.001953"/>
       <use xlink:href="#DejaVuSans-6e" x="138.525391"/>
       <use xlink:href="#DejaVuSans-6d" x="201.904297"/>
       <use xlink:href="#DejaVuSans-61" x="299.316406"/>
       <use xlink:href="#DejaVuSans-72" x="360.595703"/>
       <use xlink:href="#DejaVuSans-6b" x="401.708984"/>
      </g>
     </g>
    </g>
    <g id="ytick_25">
     <g id="line2d_28">
      <g>
       <use xlink:href="#m2109bad464" x="234.426875" y="445.694026" style="stroke: #000000; stroke-width: 0.8"/>
      </g>
     </g>
     <g id="text_29">
      <!-- Ecuador  -->
      <g transform="translate(130.540937 454.052307)scale(0.22 -0.22)">
       <defs>
        <path id="DejaVuSans-45" d="M 628 4666 
L 3578 4666 
L 3578 4134 
L 1259 4134 
L 1259 2753 
L 3481 2753 
L 3481 2222 
L 1259 2222 
L 1259 531 
L 3634 531 
L 3634 0 
L 628 0 
L 628 4666 
z
" transform="scale(0.015625)"/>
       </defs>
       <use xlink:href="#DejaVuSans-45"/>
       <use xlink:href="#DejaVuSans-63" x="63.183594"/>
       <use xlink:href="#DejaVuSans-75" x="118.164062"/>
       <use xlink:href="#DejaVuSans-61" x="181.542969"/>
       <use xlink:href="#DejaVuSans-64" x="242.822266"/>
       <use xlink:href="#DejaVuSans-6f" x="306.298828"/>
       <use xlink:href="#DejaVuSans-72" x="367.480469"/>
       <use xlink:href="#DejaVuSans-20" x="408.59375"/>
      </g>
     </g>
    </g>
    <g id="ytick_26">
     <g id="line2d_29">
      <g>
       <use xlink:href="#m2109bad464" x="234.426875" y="420.698017" style="stroke: #000000; stroke-width: 0.8"/>
      </g>
     </g>
     <g id="text_30">
      <!-- China -->
      <g transform="translate(164.585938 429.056298)scale(0.22 -0.22)">
       <use xlink:href="#DejaVuSans-43"/>
       <use xlink:href="#DejaVuSans-68" x="69.824219"/>
       <use xlink:href="#DejaVuSans-69" x="133.203125"/>
       <use xlink:href="#DejaVuSans-6e" x="160.986328"/>
       <use xlink:href="#DejaVuSans-61" x="224.365234"/>
      </g>
     </g>
    </g>
    <g id="ytick_27">
     <g id="line2d_30">
      <g>
       <use xlink:href="#m2109bad464" x="234.426875" y="395.702008" style="stroke: #000000; stroke-width: 0.8"/>
      </g>
     </g>
     <g id="text_31">
      <!-- Greece -->
      <g transform="translate(149.124062 404.060289)scale(0.22 -0.22)">
       <defs>
        <path id="DejaVuSans-47" d="M 3809 666 
L 3809 1919 
L 2778 1919 
L 2778 2438 
L 4434 2438 
L 4434 434 
Q 4069 175 3628 42 
Q 3188 -91 2688 -91 
Q 1594 -91 976 548 
Q 359 1188 359 2328 
Q 359 3472 976 4111 
Q 1594 4750 2688 4750 
Q 3144 4750 3555 4637 
Q 3966 4525 4313 4306 
L 4313 3634 
Q 3963 3931 3569 4081 
Q 3175 4231 2741 4231 
Q 1884 4231 1454 3753 
Q 1025 3275 1025 2328 
Q 1025 1384 1454 906 
Q 1884 428 2741 428 
Q 3075 428 3337 486 
Q 3600 544 3809 666 
z
" transform="scale(0.015625)"/>
       </defs>
       <use xlink:href="#DejaVuSans-47"/>
       <use xlink:href="#DejaVuSans-72" x="77.490234"/>
       <use xlink:href="#DejaVuSans-65" x="116.353516"/>
       <use xlink:href="#DejaVuSans-65" x="177.876953"/>
       <use xlink:href="#DejaVuSans-63" x="239.400391"/>
       <use xlink:href="#DejaVuSans-65" x="294.380859"/>
      </g>
     </g>
    </g>
    <g id="ytick_28">
     <g id="line2d_31">
      <g>
       <use xlink:href="#m2109bad464" x="234.426875" y="370.705998" style="stroke: #000000; stroke-width: 0.8"/>
      </g>
     </g>
     <g id="text_32">
      <!-- saudi arabia -->
      <g transform="translate(91.903437 379.06428)scale(0.22 -0.22)">
       <use xlink:href="#DejaVuSans-73"/>
       <use xlink:href="#DejaVuSans-61" x="52.099609"/>
       <use xlink:href="#DejaVuSans-75" x="113.378906"/>
       <use xlink:href="#DejaVuSans-64" x="176.757812"/>
       <use xlink:href="#DejaVuSans-69" x="240.234375"/>
       <use xlink:href="#DejaVuSans-20" x="268.017578"/>
       <use xlink:href="#DejaVuSans-61" x="299.804688"/>
       <use xlink:href="#DejaVuSans-72" x="361.083984"/>
       <use xlink:href="#DejaVuSans-61" x="402.197266"/>
       <use xlink:href="#DejaVuSans-62" x="463.476562"/>
       <use xlink:href="#DejaVuSans-69" x="526.953125"/>
       <use xlink:href="#DejaVuSans-61" x="554.736328"/>
      </g>
     </g>
    </g>
    <g id="ytick_29">
     <g id="line2d_32">
      <g>
       <use xlink:href="#m2109bad464" x="234.426875" y="345.709989" style="stroke: #000000; stroke-width: 0.8"/>
      </g>
     </g>
     <g id="text_33">
      <!-- Hungary -->
      <g transform="translate(133.483437 354.068271)scale(0.22 -0.22)">
       <defs>
        <path id="DejaVuSans-48" d="M 628 4666 
L 1259 4666 
L 1259 2753 
L 3553 2753 
L 3553 4666 
L 4184 4666 
L 4184 0 
L 3553 0 
L 3553 2222 
L 1259 2222 
L 1259 0 
L 628 0 
L 628 4666 
z
" transform="scale(0.015625)"/>
       </defs>
       <use xlink:href="#DejaVuSans-48"/>
       <use xlink:href="#DejaVuSans-75" x="75.195312"/>
       <use xlink:href="#DejaVuSans-6e" x="138.574219"/>
       <use xlink:href="#DejaVuSans-67" x="201.953125"/>
       <use xlink:href="#DejaVuSans-61" x="265.429688"/>
       <use xlink:href="#DejaVuSans-72" x="326.708984"/>
       <use xlink:href="#DejaVuSans-79" x="367.822266"/>
      </g>
     </g>
    </g>
    <g id="ytick_30">
     <g id="line2d_33">
      <g>
       <use xlink:href="#m2109bad464" x="234.426875" y="320.71398" style="stroke: #000000; stroke-width: 0.8"/>
      </g>
     </g>
     <g id="text_34">
      <!-- Bangladesh -->
      <g transform="translate(98.441563 329.072261)scale(0.22 -0.22)">
       <use xlink:href="#DejaVuSans-42"/>
       <use xlink:href="#DejaVuSans-61" x="68.603516"/>
       <use xlink:href="#DejaVuSans-6e" x="129.882812"/>
       <use xlink:href="#DejaVuSans-67" x="193.261719"/>
       <use xlink:href="#DejaVuSans-6c" x="256.738281"/>
       <use xlink:href="#DejaVuSans-61" x="284.521484"/>
       <use xlink:href="#DejaVuSans-64" x="345.800781"/>
       <use xlink:href="#DejaVuSans-65" x="409.277344"/>
       <use xlink:href="#DejaVuSans-73" x="470.800781"/>
       <use xlink:href="#DejaVuSans-68" x="522.900391"/>
      </g>
     </g>
    </g>
    <g id="ytick_31">
     <g id="line2d_34">
      <g>
       <use xlink:href="#m2109bad464" x="234.426875" y="295.717971" style="stroke: #000000; stroke-width: 0.8"/>
      </g>
     </g>
     <g id="text_35">
      <!-- India  -->
      <g transform="translate(166.442187 304.076252)scale(0.22 -0.22)">
       <use xlink:href="#DejaVuSans-49"/>
       <use xlink:href="#DejaVuSans-6e" x="29.492188"/>
       <use xlink:href="#DejaVuSans-64" x="92.871094"/>
       <use xlink:href="#DejaVuSans-69" x="156.347656"/>
       <use xlink:href="#DejaVuSans-61" x="184.130859"/>
       <use xlink:href="#DejaVuSans-20" x="245.410156"/>
      </g>
     </g>
    </g>
    <g id="ytick_32">
     <g id="line2d_35">
      <g>
       <use xlink:href="#m2109bad464" x="234.426875" y="270.721962" style="stroke: #000000; stroke-width: 0.8"/>
      </g>
     </g>
     <g id="text_36">
      <!-- Turkey -->
      <g transform="translate(155.830625 279.080243)scale(0.22 -0.22)">
       <use xlink:href="#DejaVuSans-54"/>
       <use xlink:href="#DejaVuSans-75" x="45.958984"/>
       <use xlink:href="#DejaVuSans-72" x="109.337891"/>
       <use xlink:href="#DejaVuSans-6b" x="150.451172"/>
       <use xlink:href="#DejaVuSans-65" x="204.736328"/>
       <use xlink:href="#DejaVuSans-79" x="266.259766"/>
      </g>
     </g>
    </g>
    <g id="ytick_33">
     <g id="line2d_36">
      <g>
       <use xlink:href="#m2109bad464" x="234.426875" y="245.725953" style="stroke: #000000; stroke-width: 0.8"/>
      </g>
     </g>
     <g id="text_37">
      <!-- Brazil -->
      <g transform="translate(166.036563 254.084234)scale(0.22 -0.22)">
       <use xlink:href="#DejaVuSans-42"/>
       <use xlink:href="#DejaVuSans-72" x="68.603516"/>
       <use xlink:href="#DejaVuSans-61" x="109.716797"/>
       <use xlink:href="#DejaVuSans-7a" x="170.996094"/>
       <use xlink:href="#DejaVuSans-69" x="223.486328"/>
       <use xlink:href="#DejaVuSans-6c" x="251.269531"/>
      </g>
     </g>
    </g>
    <g id="ytick_34">
     <g id="line2d_37">
      <g>
       <use xlink:href="#m2109bad464" x="234.426875" y="220.729944" style="stroke: #000000; stroke-width: 0.8"/>
      </g>
     </g>
     <g id="text_38">
      <!-- United Kingdom -->
      <g transform="translate(50.845937 229.088225)scale(0.22 -0.22)">
       <use xlink:href="#DejaVuSans-55"/>
       <use xlink:href="#DejaVuSans-6e" x="73.193359"/>
       <use xlink:href="#DejaVuSans-69" x="136.572266"/>
       <use xlink:href="#DejaVuSans-74" x="164.355469"/>
       <use xlink:href="#DejaVuSans-65" x="203.564453"/>
       <use xlink:href="#DejaVuSans-64" x="265.087891"/>
       <use xlink:href="#DejaVuSans-20" x="328.564453"/>
       <use xlink:href="#DejaVuSans-4b" x="360.351562"/>
       <use xlink:href="#DejaVuSans-69" x="425.927734"/>
       <use xlink:href="#DejaVuSans-6e" x="453.710938"/>
       <use xlink:href="#DejaVuSans-67" x="517.089844"/>
       <use xlink:href="#DejaVuSans-64" x="580.566406"/>
       <use xlink:href="#DejaVuSans-6f" x="644.042969"/>
       <use xlink:href="#DejaVuSans-6d" x="705.224609"/>
      </g>
     </g>
    </g>
    <g id="ytick_35">
     <g id="line2d_38">
      <g>
       <use xlink:href="#m2109bad464" x="234.426875" y="195.733934" style="stroke: #000000; stroke-width: 0.8"/>
      </g>
     </g>
     <g id="text_39">
      <!-- Germany -->
      <g transform="translate(126.309375 204.092216)scale(0.22 -0.22)">
       <use xlink:href="#DejaVuSans-47"/>
       <use xlink:href="#DejaVuSans-65" x="77.490234"/>
       <use xlink:href="#DejaVuSans-72" x="139.013672"/>
       <use xlink:href="#DejaVuSans-6d" x="178.376953"/>
       <use xlink:href="#DejaVuSans-61" x="275.789062"/>
       <use xlink:href="#DejaVuSans-6e" x="337.068359"/>
       <use xlink:href="#DejaVuSans-79" x="400.447266"/>
      </g>
     </g>
    </g>
    <g id="ytick_36">
     <g id="line2d_39">
      <g>
       <use xlink:href="#m2109bad464" x="234.426875" y="170.737925" style="stroke: #000000; stroke-width: 0.8"/>
      </g>
     </g>
     <g id="text_40">
      <!-- Italy -->
      <g transform="translate(179.697187 179.096207)scale(0.22 -0.22)">
       <use xlink:href="#DejaVuSans-49"/>
       <use xlink:href="#DejaVuSans-74" x="29.492188"/>
       <use xlink:href="#DejaVuSans-61" x="68.701172"/>
       <use xlink:href="#DejaVuSans-6c" x="129.980469"/>
       <use xlink:href="#DejaVuSans-79" x="157.763672"/>
      </g>
     </g>
    </g>
    <g id="ytick_37">
     <g id="line2d_40">
      <g>
       <use xlink:href="#m2109bad464" x="234.426875" y="145.741916" style="stroke: #000000; stroke-width: 0.8"/>
      </g>
     </g>
     <g id="text_41">
      <!-- Spain -->
      <g transform="translate(165.9575 154.100197)scale(0.22 -0.22)">
       <use xlink:href="#DejaVuSans-53"/>
       <use xlink:href="#DejaVuSans-70" x="63.476562"/>
       <use xlink:href="#DejaVuSans-61" x="126.953125"/>
       <use xlink:href="#DejaVuSans-69" x="188.232422"/>
       <use xlink:href="#DejaVuSans-6e" x="216.015625"/>
      </g>
     </g>
    </g>
    <g id="ytick_38">
     <g id="line2d_41">
      <g>
       <use xlink:href="#m2109bad464" x="234.426875" y="120.745907" style="stroke: #000000; stroke-width: 0.8"/>
      </g>
     </g>
     <g id="text_42">
      <!-- USA -->
      <g transform="translate(181.897188 129.104188)scale(0.22 -0.22)">
       <use xlink:href="#DejaVuSans-55"/>
       <use xlink:href="#DejaVuSans-53" x="73.193359"/>
       <use xlink:href="#DejaVuSans-41" x="138.544922"/>
      </g>
     </g>
    </g>
    <g id="ytick_39">
     <g id="line2d_42">
      <g>
       <use xlink:href="#m2109bad464" x="234.426875" y="95.749898" style="stroke: #000000; stroke-width: 0.8"/>
      </g>
     </g>
     <g id="text_43">
      <!-- Australia -->
      <g transform="translate(130.118125 104.108179)scale(0.22 -0.22)">
       <use xlink:href="#DejaVuSans-41"/>
       <use xlink:href="#DejaVuSans-75" x="68.408203"/>
       <use xlink:href="#DejaVuSans-73" x="131.787109"/>
       <use xlink:href="#DejaVuSans-74" x="183.886719"/>
       <use xlink:href="#DejaVuSans-72" x="223.095703"/>
       <use xlink:href="#DejaVuSans-61" x="264.208984"/>
       <use xlink:href="#DejaVuSans-6c" x="325.488281"/>
       <use xlink:href="#DejaVuSans-69" x="353.271484"/>
       <use xlink:href="#DejaVuSans-61" x="381.054688"/>
      </g>
     </g>
    </g>
    <g id="ytick_40">
     <g id="line2d_43">
      <g>
       <use xlink:href="#m2109bad464" x="234.426875" y="70.753889" style="stroke: #000000; stroke-width: 0.8"/>
      </g>
     </g>
     <g id="text_44">
      <!-- France -->
      <g transform="translate(154.266562 79.11217)scale(0.22 -0.22)">
       <defs>
        <path id="DejaVuSans-46" d="M 628 4666 
L 3309 4666 
L 3309 4134 
L 1259 4134 
L 1259 2759 
L 3109 2759 
L 3109 2228 
L 1259 2228 
L 1259 0 
L 628 0 
L 628 4666 
z
" transform="scale(0.015625)"/>
       </defs>
       <use xlink:href="#DejaVuSans-46"/>
       <use xlink:href="#DejaVuSans-72" x="50.269531"/>
       <use xlink:href="#DejaVuSans-61" x="91.382812"/>
       <use xlink:href="#DejaVuSans-6e" x="152.662109"/>
       <use xlink:href="#DejaVuSans-63" x="216.041016"/>
       <use xlink:href="#DejaVuSans-65" x="271.021484"/>
      </g>
     </g>
    </g>
    <g id="ytick_41">
     <g id="line2d_44">
      <g>
       <use xlink:href="#m2109bad464" x="234.426875" y="45.75788" style="stroke: #000000; stroke-width: 0.8"/>
      </g>
     </g>
     <g id="text_45">
      <!-- India -->
      <g transform="translate(173.434062 54.116161)scale(0.22 -0.22)">
       <use xlink:href="#DejaVuSans-49"/>
       <use xlink:href="#DejaVuSans-6e" x="29.492188"/>
       <use xlink:href="#DejaVuSans-64" x="92.871094"/>
       <use xlink:href="#DejaVuSans-69" x="156.347656"/>
       <use xlink:href="#DejaVuSans-61" x="184.130859"/>
      </g>
     </g>
    </g>
   </g>
   <g id="patch_44">
    <path d="M 234.426875 1058.09625 
L 234.426875 33.259875 
" style="fill: none; stroke: #000000; stroke-width: 0.8; stroke-linejoin: miter; stroke-linecap: square"/>
   </g>
   <g id="patch_45">
    <path d="M 967.68 1058.09625 
L 967.68 33.259875 
" style="fill: none; stroke: #000000; stroke-width: 0.8; stroke-linejoin: miter; stroke-linecap: square"/>
   </g>
   <g id="patch_46">
    <path d="M 234.426875 1058.09625 
L 967.68 1058.09625 
" style="fill: none; stroke: #000000; stroke-width: 0.8; stroke-linejoin: miter; stroke-linecap: square"/>
   </g>
   <g id="patch_47">
    <path d="M 234.426875 33.259875 
L 967.68 33.259875 
" style="fill: none; stroke: #000000; stroke-width: 0.8; stroke-linejoin: miter; stroke-linecap: square"/>
   </g>
   <g id="text_46">
    <!-- 1 -->
    <g transform="translate(311.228482 1051.847248)scale(0.22 -0.22)">
     <use xlink:href="#DejaVuSans-31"/>
    </g>
   </g>
   <g id="text_47">
    <!-- 1 -->
    <g transform="translate(311.228482 1026.851239)scale(0.22 -0.22)">
     <use xlink:href="#DejaVuSans-31"/>
    </g>
   </g>
   <g id="text_48">
    <!-- 1 -->
    <g transform="translate(311.228482 1001.855229)scale(0.22 -0.22)">
     <use xlink:href="#DejaVuSans-31"/>
    </g>
   </g>
   <g id="text_49">
    <!-- 1 -->
    <g transform="translate(311.228482 976.85922)scale(0.22 -0.22)">
     <use xlink:href="#DejaVuSans-31"/>
    </g>
   </g>
   <g id="text_50">
    <!-- 1 -->
    <g transform="translate(311.228482 951.863211)scale(0.22 -0.22)">
     <use xlink:href="#DejaVuSans-31"/>
    </g>
   </g>
   <g id="text_51">
    <!-- 1 -->
    <g transform="translate(311.228482 926.867202)scale(0.22 -0.22)">
     <use xlink:href="#DejaVuSans-31"/>
    </g>
   </g>
   <g id="text_52">
    <!-- 1 -->
    <g transform="translate(311.228482 901.871193)scale(0.22 -0.22)">
     <use xlink:href="#DejaVuSans-31"/>
    </g>
   </g>
   <g id="text_53">
    <!-- 1 -->
    <g transform="translate(311.228482 876.875184)scale(0.22 -0.22)">
     <use xlink:href="#DejaVuSans-31"/>
    </g>
   </g>
   <g id="text_54">
    <!-- 1 -->
    <g transform="translate(311.228482 851.879175)scale(0.22 -0.22)">
     <use xlink:href="#DejaVuSans-31"/>
    </g>
   </g>
   <g id="text_55">
    <!-- 1 -->
    <g transform="translate(311.228482 826.883165)scale(0.22 -0.22)">
     <use xlink:href="#DejaVuSans-31"/>
    </g>
   </g>
   <g id="text_56">
    <!-- 1 -->
    <g transform="translate(311.228482 801.887156)scale(0.22 -0.22)">
     <use xlink:href="#DejaVuSans-31"/>
    </g>
   </g>
   <g id="text_57">
    <!-- 1 -->
    <g transform="translate(311.228482 776.891147)scale(0.22 -0.22)">
     <use xlink:href="#DejaVuSans-31"/>
    </g>
   </g>
   <g id="text_58">
    <!-- 1 -->
    <g transform="translate(311.228482 751.895138)scale(0.22 -0.22)">
     <use xlink:href="#DejaVuSans-31"/>
    </g>
   </g>
   <g id="text_59">
    <!-- 1 -->
    <g transform="translate(311.228482 726.899129)scale(0.22 -0.22)">
     <use xlink:href="#DejaVuSans-31"/>
    </g>
   </g>
   <g id="text_60">
    <!-- 1 -->
    <g transform="translate(311.228482 701.90312)scale(0.22 -0.22)">
     <use xlink:href="#DejaVuSans-31"/>
    </g>
   </g>
   <g id="text_61">
    <!-- 1 -->
    <g transform="translate(311.228482 676.907111)scale(0.22 -0.22)">
     <use xlink:href="#DejaVuSans-31"/>
    </g>
   </g>
   <g id="text_62">
    <!-- 1 -->
    <g transform="translate(311.228482 651.911101)scale(0.22 -0.22)">
     <use xlink:href="#DejaVuSans-31"/>
    </g>
   </g>
   <g id="text_63">
    <!-- 1 -->
    <g transform="translate(311.228482 626.915092)scale(0.22 -0.22)">
     <use xlink:href="#DejaVuSans-31"/>
    </g>
   </g>
   <g id="text_64">
    <!-- 1 -->
    <g transform="translate(311.228482 601.919083)scale(0.22 -0.22)">
     <use xlink:href="#DejaVuSans-31"/>
    </g>
   </g>
   <g id="text_65">
    <!-- 1 -->
    <g transform="translate(311.228482 576.923074)scale(0.22 -0.22)">
     <use xlink:href="#DejaVuSans-31"/>
    </g>
   </g>
   <g id="text_66">
    <!-- 1 -->
    <g transform="translate(311.228482 551.927065)scale(0.22 -0.22)">
     <use xlink:href="#DejaVuSans-31"/>
    </g>
   </g>
   <g id="text_67">
    <!-- 1 -->
    <g transform="translate(311.228482 526.931056)scale(0.22 -0.22)">
     <use xlink:href="#DejaVuSans-31"/>
    </g>
   </g>
   <g id="text_68">
    <!-- 1 -->
    <g transform="translate(311.228482 501.935046)scale(0.22 -0.22)">
     <use xlink:href="#DejaVuSans-31"/>
    </g>
   </g>
   <g id="text_69">
    <!-- 1 -->
    <g transform="translate(311.228482 476.939037)scale(0.22 -0.22)">
     <use xlink:href="#DejaVuSans-31"/>
    </g>
   </g>
   <g id="text_70">
    <!-- 1 -->
    <g transform="translate(311.228482 451.943028)scale(0.22 -0.22)">
     <use xlink:href="#DejaVuSans-31"/>
    </g>
   </g>
   <g id="text_71">
    <!-- 1 -->
    <g transform="translate(311.228482 426.947019)scale(0.22 -0.22)">
     <use xlink:href="#DejaVuSans-31"/>
    </g>
   </g>
   <g id="text_72">
    <!-- 1 -->
    <g transform="translate(311.228482 401.95101)scale(0.22 -0.22)">
     <use xlink:href="#DejaVuSans-31"/>
    </g>
   </g>
   <g id="text_73">
    <!-- 1 -->
    <g transform="translate(311.228482 376.955001)scale(0.22 -0.22)">
     <use xlink:href="#DejaVuSans-31"/>
    </g>
   </g>
   <g id="text_74">
    <!-- 2 -->
    <g transform="translate(381.062113 351.958992)scale(0.22 -0.22)">
     <defs>
      <path id="DejaVuSans-32" d="M 1228 531 
L 3431 531 
L 3431 0 
L 469 0 
L 469 531 
Q 828 903 1448 1529 
Q 2069 2156 2228 2338 
Q 2531 2678 2651 2914 
Q 2772 3150 2772 3378 
Q 2772 3750 2511 3984 
Q 2250 4219 1831 4219 
Q 1534 4219 1204 4116 
Q 875 4013 500 3803 
L 500 4441 
Q 881 4594 1212 4672 
Q 1544 4750 1819 4750 
Q 2544 4750 2975 4387 
Q 3406 4025 3406 3419 
Q 3406 3131 3298 2873 
Q 3191 2616 2906 2266 
Q 2828 2175 2409 1742 
Q 1991 1309 1228 531 
z
" transform="scale(0.015625)"/>
     </defs>
     <use xlink:href="#DejaVuSans-32"/>
    </g>
   </g>
   <g id="text_75">
    <!-- 2 -->
    <g transform="translate(381.062113 326.962982)scale(0.22 -0.22)">
     <use xlink:href="#DejaVuSans-32"/>
    </g>
   </g>
   <g id="text_76">
    <!-- 2 -->
    <g transform="translate(381.062113 301.966973)scale(0.22 -0.22)">
     <use xlink:href="#DejaVuSans-32"/>
    </g>
   </g>
   <g id="text_77">
    <!-- 2 -->
    <g transform="translate(381.062113 276.970964)scale(0.22 -0.22)">
     <use xlink:href="#DejaVuSans-32"/>
    </g>
   </g>
   <g id="text_78">
    <!-- 3 -->
    <g transform="translate(450.895744 251.974955)scale(0.22 -0.22)">
     <defs>
      <path id="DejaVuSans-33" d="M 2597 2516 
Q 3050 2419 3304 2112 
Q 3559 1806 3559 1356 
Q 3559 666 3084 287 
Q 2609 -91 1734 -91 
Q 1441 -91 1130 -33 
Q 819 25 488 141 
L 488 750 
Q 750 597 1062 519 
Q 1375 441 1716 441 
Q 2309 441 2620 675 
Q 2931 909 2931 1356 
Q 2931 1769 2642 2001 
Q 2353 2234 1838 2234 
L 1294 2234 
L 1294 2753 
L 1863 2753 
Q 2328 2753 2575 2939 
Q 2822 3125 2822 3475 
Q 2822 3834 2567 4026 
Q 2313 4219 1838 4219 
Q 1578 4219 1281 4162 
Q 984 4106 628 3988 
L 628 4550 
Q 988 4650 1302 4700 
Q 1616 4750 1894 4750 
Q 2613 4750 3031 4423 
Q 3450 4097 3450 3541 
Q 3450 3153 3228 2886 
Q 3006 2619 2597 2516 
z
" transform="scale(0.015625)"/>
     </defs>
     <use xlink:href="#DejaVuSans-33"/>
    </g>
   </g>
   <g id="text_79">
    <!-- 3 -->
    <g transform="translate(450.895744 226.978946)scale(0.22 -0.22)">
     <use xlink:href="#DejaVuSans-33"/>
    </g>
   </g>
   <g id="text_80">
    <!-- 4 -->
    <g transform="translate(520.729375 201.982937)scale(0.22 -0.22)">
     <defs>
      <path id="DejaVuSans-34" d="M 2419 4116 
L 825 1625 
L 2419 1625 
L 2419 4116 
z
M 2253 4666 
L 3047 4666 
L 3047 1625 
L 3713 1625 
L 3713 1100 
L 3047 1100 
L 3047 0 
L 2419 0 
L 2419 1100 
L 313 1100 
L 313 1709 
L 2253 4666 
z
" transform="scale(0.015625)"/>
     </defs>
     <use xlink:href="#DejaVuSans-34"/>
    </g>
   </g>
   <g id="text_81">
    <!-- 4 -->
    <g transform="translate(520.729375 176.986928)scale(0.22 -0.22)">
     <use xlink:href="#DejaVuSans-34"/>
    </g>
   </g>
   <g id="text_82">
    <!-- 4 -->
    <g transform="translate(520.729375 151.990918)scale(0.22 -0.22)">
     <use xlink:href="#DejaVuSans-34"/>
    </g>
   </g>
   <g id="text_83">
    <!-- 4 -->
    <g transform="translate(520.729375 126.994909)scale(0.22 -0.22)">
     <use xlink:href="#DejaVuSans-34"/>
    </g>
   </g>
   <g id="text_84">
    <!-- 4 -->
    <g transform="translate(520.729375 101.9989)scale(0.22 -0.22)">
     <use xlink:href="#DejaVuSans-34"/>
    </g>
   </g>
   <g id="text_85">
    <!-- 7 -->
    <g transform="translate(730.230268 77.002891)scale(0.22 -0.22)">
     <defs>
      <path id="DejaVuSans-37" d="M 525 4666 
L 3525 4666 
L 3525 4397 
L 1831 0 
L 1172 0 
L 2766 4134 
L 525 4134 
L 525 4666 
z
" transform="scale(0.015625)"/>
     </defs>
     <use xlink:href="#DejaVuSans-37"/>
    </g>
   </g>
   <g id="text_86">
    <!-- 10 -->
    <g transform="translate(932.732411 52.006882)scale(0.22 -0.22)">
     <use xlink:href="#DejaVuSans-31"/>
     <use xlink:href="#DejaVuSans-30" x="63.623047"/>
    </g>
   </g>
   <g id="text_87">
    <!-- Which country are you based in? -->
    <g transform="translate(384.408437 27.259875)scale(0.264 -0.264)">
     <defs>
      <path id="DejaVuSans-57" d="M 213 4666 
L 850 4666 
L 1831 722 
L 2809 4666 
L 3519 4666 
L 4500 722 
L 5478 4666 
L 6119 4666 
L 4947 0 
L 4153 0 
L 3169 4050 
L 2175 0 
L 1381 0 
L 213 4666 
z
" transform="scale(0.015625)"/>
      <path id="DejaVuSans-3f" d="M 1222 794 
L 1856 794 
L 1856 0 
L 1222 0 
L 1222 794 
z
M 1838 1253 
L 1241 1253 
L 1241 1734 
Q 1241 2050 1328 2253 
Q 1416 2456 1697 2725 
L 1978 3003 
Q 2156 3169 2236 3316 
Q 2316 3463 2316 3616 
Q 2316 3894 2111 4066 
Q 1906 4238 1569 4238 
Q 1322 4238 1042 4128 
Q 763 4019 459 3809 
L 459 4397 
Q 753 4575 1054 4662 
Q 1356 4750 1678 4750 
Q 2253 4750 2601 4447 
Q 2950 4144 2950 3647 
Q 2950 3409 2837 3195 
Q 2725 2981 2444 2713 
L 2169 2444 
Q 2022 2297 1961 2214 
Q 1900 2131 1875 2053 
Q 1856 1988 1847 1894 
Q 1838 1800 1838 1638 
L 1838 1253 
z
" transform="scale(0.015625)"/>
     </defs>
     <use xlink:href="#DejaVuSans-57"/>
     <use xlink:href="#DejaVuSans-68" x="98.876953"/>
     <use xlink:href="#DejaVuSans-69" x="162.255859"/>
     <use xlink:href="#DejaVuSans-63" x="190.039062"/>
     <use xlink:href="#DejaVuSans-68" x="245.019531"/>
     <use xlink:href="#DejaVuSans-20" x="308.398438"/>
     <use xlink:href="#DejaVuSans-63" x="340.185547"/>
     <use xlink:href="#DejaVuSans-6f" x="395.166016"/>
     <use xlink:href="#DejaVuSans-75" x="456.347656"/>
     <use xlink:href="#DejaVuSans-6e" x="519.726562"/>
     <use xlink:href="#DejaVuSans-74" x="583.105469"/>
     <use xlink:href="#DejaVuSans-72" x="622.314453"/>
     <use xlink:href="#DejaVuSans-79" x="663.427734"/>
     <use xlink:href="#DejaVuSans-20" x="722.607422"/>
     <use xlink:href="#DejaVuSans-61" x="754.394531"/>
     <use xlink:href="#DejaVuSans-72" x="815.673828"/>
     <use xlink:href="#DejaVuSans-65" x="854.537109"/>
     <use xlink:href="#DejaVuSans-20" x="916.060547"/>
     <use xlink:href="#DejaVuSans-79" x="947.847656"/>
     <use xlink:href="#DejaVuSans-6f" x="1007.027344"/>
     <use xlink:href="#DejaVuSans-75" x="1068.208984"/>
     <use xlink:href="#DejaVuSans-20" x="1131.587891"/>
     <use xlink:href="#DejaVuSans-62" x="1163.375"/>
     <use xlink:href="#DejaVuSans-61" x="1226.851562"/>
     <use xlink:href="#DejaVuSans-73" x="1288.130859"/>
     <use xlink:href="#DejaVuSans-65" x="1340.230469"/>
     <use xlink:href="#DejaVuSans-64" x="1401.753906"/>
     <use xlink:href="#DejaVuSans-20" x="1465.230469"/>
     <use xlink:href="#DejaVuSans-69" x="1497.017578"/>
     <use xlink:href="#DejaVuSans-6e" x="1524.800781"/>
     <use xlink:href="#DejaVuSans-3f" x="1588.179688"/>
    </g>
   </g>
  </g>
 </g>
 <defs>
  <clipPath id="p8752c0e278">
   <rect x="234.426875" y="33.259875" width="733.253125" height="1024.836375"/>
  </clipPath>
 </defs>
</svg>
