<?xml version="1.0" encoding="utf-8" standalone="no"?>
<!DOCTYPE svg PUBLIC "-//W3C//DTD SVG 1.1//EN"
  "http://www.w3.org/Graphics/SVG/1.1/DTD/svg11.dtd">
<svg xmlns:xlink="http://www.w3.org/1999/xlink" width="1164.22725pt" height="686.88pt" viewBox="0 0 1164.22725 686.88" xmlns="http://www.w3.org/2000/svg" version="1.1">
 <metadata>
  <rdf:RDF xmlns:dc="http://purl.org/dc/elements/1.1/" xmlns:cc="http://creativecommons.org/ns#" xmlns:rdf="http://www.w3.org/1999/02/22-rdf-syntax-ns#">
   <cc:Work>
    <dc:type rdf:resource="http://purl.org/dc/dcmitype/StillImage"/>
    <dc:date>2023-06-23T16:04:11.323308</dc:date>
    <dc:format>image/svg+xml</dc:format>
    <dc:creator>
     <cc:Agent>
      <dc:title>Matplotlib v3.5.3, https://matplotlib.org/</dc:title>
     </cc:Agent>
    </dc:creator>
   </cc:Work>
  </rdf:RDF>
 </metadata>
 <defs>
  <style type="text/css">*{stroke-linejoin: round; stroke-linecap: butt}</style>
 </defs>
 <g id="figure_1">
  <g id="patch_1">
   <path d="M 0 686.88 
L 1164.22725 686.88 
L 1164.22725 0 
L 0 0 
z
" style="fill: #ffffff"/>
  </g>
  <g id="axes_1">
   <g id="patch_2">
    <path d="M 264.256437 626.09625 
L 899.970813 626.09625 
L 899.970813 33.259875 
L 264.256437 33.259875 
z
" style="fill: #ffffff"/>
   </g>
   <g id="patch_3">
    <path d="M 264.256437 618.295771 
L 292.51041 618.295771 
L 292.51041 602.694814 
L 264.256437 602.694814 
z
" clip-path="url(#p3619d0f891)" style="fill: #1f77b4"/>
   </g>
   <g id="patch_4">
    <path d="M 264.256437 587.093857 
L 292.51041 587.093857 
L 292.51041 571.4929 
L 264.256437 571.4929 
z
" clip-path="url(#p3619d0f891)" style="fill: #1f77b4"/>
   </g>
   <g id="patch_5">
    <path d="M 264.256437 555.891942 
L 292.51041 555.891942 
L 292.51041 540.290985 
L 264.256437 540.290985 
z
" clip-path="url(#p3619d0f891)" style="fill: #1f77b4"/>
   </g>
   <g id="patch_6">
    <path d="M 264.256437 524.690028 
L 292.51041 524.690028 
L 292.51041 509.089071 
L 264.256437 509.089071 
z
" clip-path="url(#p3619d0f891)" style="fill: #1f77b4"/>
   </g>
   <g id="patch_7">
    <path d="M 264.256437 493.488113 
L 292.51041 493.488113 
L 292.51041 477.887156 
L 264.256437 477.887156 
z
" clip-path="url(#p3619d0f891)" style="fill: #1f77b4"/>
   </g>
   <g id="patch_8">
    <path d="M 264.256437 462.286199 
L 292.51041 462.286199 
L 292.51041 446.685242 
L 264.256437 446.685242 
z
" clip-path="url(#p3619d0f891)" style="fill: #1f77b4"/>
   </g>
   <g id="patch_9">
    <path d="M 264.256437 431.084285 
L 292.51041 431.084285 
L 292.51041 415.483327 
L 264.256437 415.483327 
z
" clip-path="url(#p3619d0f891)" style="fill: #1f77b4"/>
   </g>
   <g id="patch_10">
    <path d="M 264.256437 399.88237 
L 292.51041 399.88237 
L 292.51041 384.281413 
L 264.256437 384.281413 
z
" clip-path="url(#p3619d0f891)" style="fill: #1f77b4"/>
   </g>
   <g id="patch_11">
    <path d="M 264.256437 368.680456 
L 292.51041 368.680456 
L 292.51041 353.079498 
L 264.256437 353.079498 
z
" clip-path="url(#p3619d0f891)" style="fill: #1f77b4"/>
   </g>
   <g id="patch_12">
    <path d="M 264.256437 337.478541 
L 306.637396 337.478541 
L 306.637396 321.877584 
L 264.256437 321.877584 
z
" clip-path="url(#p3619d0f891)" style="fill: #1f77b4"/>
   </g>
   <g id="patch_13">
    <path d="M 264.256437 306.276627 
L 306.637396 306.276627 
L 306.637396 290.675669 
L 264.256437 290.675669 
z
" clip-path="url(#p3619d0f891)" style="fill: #1f77b4"/>
   </g>
   <g id="patch_14">
    <path d="M 264.256437 275.074712 
L 306.637396 275.074712 
L 306.637396 259.473755 
L 264.256437 259.473755 
z
" clip-path="url(#p3619d0f891)" style="fill: #1f77b4"/>
   </g>
   <g id="patch_15">
    <path d="M 264.256437 243.872798 
L 320.764382 243.872798 
L 320.764382 228.27184 
L 264.256437 228.27184 
z
" clip-path="url(#p3619d0f891)" style="fill: #1f77b4"/>
   </g>
   <g id="patch_16">
    <path d="M 264.256437 212.670883 
L 334.891368 212.670883 
L 334.891368 197.069926 
L 264.256437 197.069926 
z
" clip-path="url(#p3619d0f891)" style="fill: #1f77b4"/>
   </g>
   <g id="patch_17">
    <path d="M 264.256437 181.468969 
L 334.891368 181.468969 
L 334.891368 165.868012 
L 264.256437 165.868012 
z
" clip-path="url(#p3619d0f891)" style="fill: #1f77b4"/>
   </g>
   <g id="patch_18">
    <path d="M 264.256437 150.267054 
L 349.018354 150.267054 
L 349.018354 134.666097 
L 264.256437 134.666097 
z
" clip-path="url(#p3619d0f891)" style="fill: #1f77b4"/>
   </g>
   <g id="patch_19">
    <path d="M 264.256437 119.06514 
L 363.14534 119.06514 
L 363.14534 103.464183 
L 264.256437 103.464183 
z
" clip-path="url(#p3619d0f891)" style="fill: #1f77b4"/>
   </g>
   <g id="patch_20">
    <path d="M 264.256437 87.863225 
L 433.780271 87.863225 
L 433.780271 72.262268 
L 264.256437 72.262268 
z
" clip-path="url(#p3619d0f891)" style="fill: #1f77b4"/>
   </g>
   <g id="patch_21">
    <path d="M 264.256437 56.661311 
L 843.462868 56.661311 
L 843.462868 41.060354 
L 264.256437 41.060354 
z
" clip-path="url(#p3619d0f891)" style="fill: #1f77b4"/>
   </g>
   <g id="matplotlib.axis_1">
    <g id="xtick_1">
     <g id="line2d_1">
      <defs>
       <path id="m9b3838452e" d="M 0 0 
L 0 3.5 
" style="stroke: #000000; stroke-width: 0.8"/>
      </defs>
      <g>
       <use xlink:href="#m9b3838452e" x="264.256437" y="626.09625" style="stroke: #000000; stroke-width: 0.8"/>
      </g>
     </g>
     <g id="text_1">
      <!-- 0 -->
      <g transform="translate(257.257687 649.812812)scale(0.22 -0.22)">
       <defs>
        <path id="DejaVuSans-30" d="M 2034 4250 
Q 1547 4250 1301 3770 
Q 1056 3291 1056 2328 
Q 1056 1369 1301 889 
Q 1547 409 2034 409 
Q 2525 409 2770 889 
Q 3016 1369 3016 2328 
Q 3016 3291 2770 3770 
Q 2525 4250 2034 4250 
z
M 2034 4750 
Q 2819 4750 3233 4129 
Q 3647 3509 3647 2328 
Q 3647 1150 3233 529 
Q 2819 -91 2034 -91 
Q 1250 -91 836 529 
Q 422 1150 422 2328 
Q 422 3509 836 4129 
Q 1250 4750 2034 4750 
z
" transform="scale(0.015625)"/>
       </defs>
       <use xlink:href="#DejaVuSans-30"/>
      </g>
     </g>
    </g>
    <g id="xtick_2">
     <g id="line2d_2">
      <g>
       <use xlink:href="#m9b3838452e" x="334.891368" y="626.09625" style="stroke: #000000; stroke-width: 0.8"/>
      </g>
     </g>
     <g id="text_2">
      <!-- 5 -->
      <g transform="translate(327.892618 649.812812)scale(0.22 -0.22)">
       <defs>
        <path id="DejaVuSans-35" d="M 691 4666 
L 3169 4666 
L 3169 4134 
L 1269 4134 
L 1269 2991 
Q 1406 3038 1543 3061 
Q 1681 3084 1819 3084 
Q 2600 3084 3056 2656 
Q 3513 2228 3513 1497 
Q 3513 744 3044 326 
Q 2575 -91 1722 -91 
Q 1428 -91 1123 -41 
Q 819 9 494 109 
L 494 744 
Q 775 591 1075 516 
Q 1375 441 1709 441 
Q 2250 441 2565 725 
Q 2881 1009 2881 1497 
Q 2881 1984 2565 2268 
Q 2250 2553 1709 2553 
Q 1456 2553 1204 2497 
Q 953 2441 691 2322 
L 691 4666 
z
" transform="scale(0.015625)"/>
       </defs>
       <use xlink:href="#DejaVuSans-35"/>
      </g>
     </g>
    </g>
    <g id="xtick_3">
     <g id="line2d_3">
      <g>
       <use xlink:href="#m9b3838452e" x="405.526299" y="626.09625" style="stroke: #000000; stroke-width: 0.8"/>
      </g>
     </g>
     <g id="text_3">
      <!-- 10 -->
      <g transform="translate(391.528799 649.812812)scale(0.22 -0.22)">
       <defs>
        <path id="DejaVuSans-31" d="M 794 531 
L 1825 531 
L 1825 4091 
L 703 3866 
L 703 4441 
L 1819 4666 
L 2450 4666 
L 2450 531 
L 3481 531 
L 3481 0 
L 794 0 
L 794 531 
z
" transform="scale(0.015625)"/>
       </defs>
       <use xlink:href="#DejaVuSans-31"/>
       <use xlink:href="#DejaVuSans-30" x="63.623047"/>
      </g>
     </g>
    </g>
    <g id="xtick_4">
     <g id="line2d_4">
      <g>
       <use xlink:href="#m9b3838452e" x="476.161229" y="626.09625" style="stroke: #000000; stroke-width: 0.8"/>
      </g>
     </g>
     <g id="text_4">
      <!-- 15 -->
      <g transform="translate(462.163729 649.812812)scale(0.22 -0.22)">
       <use xlink:href="#DejaVuSans-31"/>
       <use xlink:href="#DejaVuSans-35" x="63.623047"/>
      </g>
     </g>
    </g>
    <g id="xtick_5">
     <g id="line2d_5">
      <g>
       <use xlink:href="#m9b3838452e" x="546.79616" y="626.09625" style="stroke: #000000; stroke-width: 0.8"/>
      </g>
     </g>
     <g id="text_5">
      <!-- 20 -->
      <g transform="translate(532.79866 649.812812)scale(0.22 -0.22)">
       <defs>
        <path id="DejaVuSans-32" d="M 1228 531 
L 3431 531 
L 3431 0 
L 469 0 
L 469 531 
Q 828 903 1448 1529 
Q 2069 2156 2228 2338 
Q 2531 2678 2651 2914 
Q 2772 3150 2772 3378 
Q 2772 3750 2511 3984 
Q 2250 4219 1831 4219 
Q 1534 4219 1204 4116 
Q 875 4013 500 3803 
L 500 4441 
Q 881 4594 1212 4672 
Q 1544 4750 1819 4750 
Q 2544 4750 2975 4387 
Q 3406 4025 3406 3419 
Q 3406 3131 3298 2873 
Q 3191 2616 2906 2266 
Q 2828 2175 2409 1742 
Q 1991 1309 1228 531 
z
" transform="scale(0.015625)"/>
       </defs>
       <use xlink:href="#DejaVuSans-32"/>
       <use xlink:href="#DejaVuSans-30" x="63.623047"/>
      </g>
     </g>
    </g>
    <g id="xtick_6">
     <g id="line2d_6">
      <g>
       <use xlink:href="#m9b3838452e" x="617.43109" y="626.09625" style="stroke: #000000; stroke-width: 0.8"/>
      </g>
     </g>
     <g id="text_6">
      <!-- 25 -->
      <g transform="translate(603.43359 649.812812)scale(0.22 -0.22)">
       <use xlink:href="#DejaVuSans-32"/>
       <use xlink:href="#DejaVuSans-35" x="63.623047"/>
      </g>
     </g>
    </g>
    <g id="xtick_7">
     <g id="line2d_7">
      <g>
       <use xlink:href="#m9b3838452e" x="688.066021" y="626.09625" style="stroke: #000000; stroke-width: 0.8"/>
      </g>
     </g>
     <g id="text_7">
      <!-- 30 -->
      <g transform="translate(674.068521 649.812812)scale(0.22 -0.22)">
       <defs>
        <path id="DejaVuSans-33" d="M 2597 2516 
Q 3050 2419 3304 2112 
Q 3559 1806 3559 1356 
Q 3559 666 3084 287 
Q 2609 -91 1734 -91 
Q 1441 -91 1130 -33 
Q 819 25 488 141 
L 488 750 
Q 750 597 1062 519 
Q 1375 441 1716 441 
Q 2309 441 2620 675 
Q 2931 909 2931 1356 
Q 2931 1769 2642 2001 
Q 2353 2234 1838 2234 
L 1294 2234 
L 1294 2753 
L 1863 2753 
Q 2328 2753 2575 2939 
Q 2822 3125 2822 3475 
Q 2822 3834 2567 4026 
Q 2313 4219 1838 4219 
Q 1578 4219 1281 4162 
Q 984 4106 628 3988 
L 628 4550 
Q 988 4650 1302 4700 
Q 1616 4750 1894 4750 
Q 2613 4750 3031 4423 
Q 3450 4097 3450 3541 
Q 3450 3153 3228 2886 
Q 3006 2619 2597 2516 
z
" transform="scale(0.015625)"/>
       </defs>
       <use xlink:href="#DejaVuSans-33"/>
       <use xlink:href="#DejaVuSans-30" x="63.623047"/>
      </g>
     </g>
    </g>
    <g id="xtick_8">
     <g id="line2d_8">
      <g>
       <use xlink:href="#m9b3838452e" x="758.700951" y="626.09625" style="stroke: #000000; stroke-width: 0.8"/>
      </g>
     </g>
     <g id="text_8">
      <!-- 35 -->
      <g transform="translate(744.703451 649.812812)scale(0.22 -0.22)">
       <use xlink:href="#DejaVuSans-33"/>
       <use xlink:href="#DejaVuSans-35" x="63.623047"/>
      </g>
     </g>
    </g>
    <g id="xtick_9">
     <g id="line2d_9">
      <g>
       <use xlink:href="#m9b3838452e" x="829.335882" y="626.09625" style="stroke: #000000; stroke-width: 0.8"/>
      </g>
     </g>
     <g id="text_9">
      <!-- 40 -->
      <g transform="translate(815.338382 649.812812)scale(0.22 -0.22)">
       <defs>
        <path id="DejaVuSans-34" d="M 2419 4116 
L 825 1625 
L 2419 1625 
L 2419 4116 
z
M 2253 4666 
L 3047 4666 
L 3047 1625 
L 3713 1625 
L 3713 1100 
L 3047 1100 
L 3047 0 
L 2419 0 
L 2419 1100 
L 313 1100 
L 313 1709 
L 2253 4666 
z
" transform="scale(0.015625)"/>
       </defs>
       <use xlink:href="#DejaVuSans-34"/>
       <use xlink:href="#DejaVuSans-30" x="63.623047"/>
      </g>
     </g>
    </g>
    <g id="xtick_10">
     <g id="line2d_10">
      <g>
       <use xlink:href="#m9b3838452e" x="899.970813" y="626.09625" style="stroke: #000000; stroke-width: 0.8"/>
      </g>
     </g>
     <g id="text_10">
      <!-- 45 -->
      <g transform="translate(885.973313 649.812812)scale(0.22 -0.22)">
       <use xlink:href="#DejaVuSans-34"/>
       <use xlink:href="#DejaVuSans-35" x="63.623047"/>
      </g>
     </g>
    </g>
    <g id="text_11">
     <!-- Number of responses -->
     <g transform="translate(464.642219 675.104687)scale(0.22 -0.22)">
      <defs>
       <path id="DejaVuSans-4e" d="M 628 4666 
L 1478 4666 
L 3547 763 
L 3547 4666 
L 4159 4666 
L 4159 0 
L 3309 0 
L 1241 3903 
L 1241 0 
L 628 0 
L 628 4666 
z
" transform="scale(0.015625)"/>
       <path id="DejaVuSans-75" d="M 544 1381 
L 544 3500 
L 1119 3500 
L 1119 1403 
Q 1119 906 1312 657 
Q 1506 409 1894 409 
Q 2359 409 2629 706 
Q 2900 1003 2900 1516 
L 2900 3500 
L 3475 3500 
L 3475 0 
L 2900 0 
L 2900 538 
Q 2691 219 2414 64 
Q 2138 -91 1772 -91 
Q 1169 -91 856 284 
Q 544 659 544 1381 
z
M 1991 3584 
L 1991 3584 
z
" transform="scale(0.015625)"/>
       <path id="DejaVuSans-6d" d="M 3328 2828 
Q 3544 3216 3844 3400 
Q 4144 3584 4550 3584 
Q 5097 3584 5394 3201 
Q 5691 2819 5691 2113 
L 5691 0 
L 5113 0 
L 5113 2094 
Q 5113 2597 4934 2840 
Q 4756 3084 4391 3084 
Q 3944 3084 3684 2787 
Q 3425 2491 3425 1978 
L 3425 0 
L 2847 0 
L 2847 2094 
Q 2847 2600 2669 2842 
Q 2491 3084 2119 3084 
Q 1678 3084 1418 2786 
Q 1159 2488 1159 1978 
L 1159 0 
L 581 0 
L 581 3500 
L 1159 3500 
L 1159 2956 
Q 1356 3278 1631 3431 
Q 1906 3584 2284 3584 
Q 2666 3584 2933 3390 
Q 3200 3197 3328 2828 
z
" transform="scale(0.015625)"/>
       <path id="DejaVuSans-62" d="M 3116 1747 
Q 3116 2381 2855 2742 
Q 2594 3103 2138 3103 
Q 1681 3103 1420 2742 
Q 1159 2381 1159 1747 
Q 1159 1113 1420 752 
Q 1681 391 2138 391 
Q 2594 391 2855 752 
Q 3116 1113 3116 1747 
z
M 1159 2969 
Q 1341 3281 1617 3432 
Q 1894 3584 2278 3584 
Q 2916 3584 3314 3078 
Q 3713 2572 3713 1747 
Q 3713 922 3314 415 
Q 2916 -91 2278 -91 
Q 1894 -91 1617 61 
Q 1341 213 1159 525 
L 1159 0 
L 581 0 
L 581 4863 
L 1159 4863 
L 1159 2969 
z
" transform="scale(0.015625)"/>
       <path id="DejaVuSans-65" d="M 3597 1894 
L 3597 1613 
L 953 1613 
Q 991 1019 1311 708 
Q 1631 397 2203 397 
Q 2534 397 2845 478 
Q 3156 559 3463 722 
L 3463 178 
Q 3153 47 2828 -22 
Q 2503 -91 2169 -91 
Q 1331 -91 842 396 
Q 353 884 353 1716 
Q 353 2575 817 3079 
Q 1281 3584 2069 3584 
Q 2775 3584 3186 3129 
Q 3597 2675 3597 1894 
z
M 3022 2063 
Q 3016 2534 2758 2815 
Q 2500 3097 2075 3097 
Q 1594 3097 1305 2825 
Q 1016 2553 972 2059 
L 3022 2063 
z
" transform="scale(0.015625)"/>
       <path id="DejaVuSans-72" d="M 2631 2963 
Q 2534 3019 2420 3045 
Q 2306 3072 2169 3072 
Q 1681 3072 1420 2755 
Q 1159 2438 1159 1844 
L 1159 0 
L 581 0 
L 581 3500 
L 1159 3500 
L 1159 2956 
Q 1341 3275 1631 3429 
Q 1922 3584 2338 3584 
Q 2397 3584 2469 3576 
Q 2541 3569 2628 3553 
L 2631 2963 
z
" transform="scale(0.015625)"/>
       <path id="DejaVuSans-20" transform="scale(0.015625)"/>
       <path id="DejaVuSans-6f" d="M 1959 3097 
Q 1497 3097 1228 2736 
Q 959 2375 959 1747 
Q 959 1119 1226 758 
Q 1494 397 1959 397 
Q 2419 397 2687 759 
Q 2956 1122 2956 1747 
Q 2956 2369 2687 2733 
Q 2419 3097 1959 3097 
z
M 1959 3584 
Q 2709 3584 3137 3096 
Q 3566 2609 3566 1747 
Q 3566 888 3137 398 
Q 2709 -91 1959 -91 
Q 1206 -91 779 398 
Q 353 888 353 1747 
Q 353 2609 779 3096 
Q 1206 3584 1959 3584 
z
" transform="scale(0.015625)"/>
       <path id="DejaVuSans-66" d="M 2375 4863 
L 2375 4384 
L 1825 4384 
Q 1516 4384 1395 4259 
Q 1275 4134 1275 3809 
L 1275 3500 
L 2222 3500 
L 2222 3053 
L 1275 3053 
L 1275 0 
L 697 0 
L 697 3053 
L 147 3053 
L 147 3500 
L 697 3500 
L 697 3744 
Q 697 4328 969 4595 
Q 1241 4863 1831 4863 
L 2375 4863 
z
" transform="scale(0.015625)"/>
       <path id="DejaVuSans-73" d="M 2834 3397 
L 2834 2853 
Q 2591 2978 2328 3040 
Q 2066 3103 1784 3103 
Q 1356 3103 1142 2972 
Q 928 2841 928 2578 
Q 928 2378 1081 2264 
Q 1234 2150 1697 2047 
L 1894 2003 
Q 2506 1872 2764 1633 
Q 3022 1394 3022 966 
Q 3022 478 2636 193 
Q 2250 -91 1575 -91 
Q 1294 -91 989 -36 
Q 684 19 347 128 
L 347 722 
Q 666 556 975 473 
Q 1284 391 1588 391 
Q 1994 391 2212 530 
Q 2431 669 2431 922 
Q 2431 1156 2273 1281 
Q 2116 1406 1581 1522 
L 1381 1569 
Q 847 1681 609 1914 
Q 372 2147 372 2553 
Q 372 3047 722 3315 
Q 1072 3584 1716 3584 
Q 2034 3584 2315 3537 
Q 2597 3491 2834 3397 
z
" transform="scale(0.015625)"/>
       <path id="DejaVuSans-70" d="M 1159 525 
L 1159 -1331 
L 581 -1331 
L 581 3500 
L 1159 3500 
L 1159 2969 
Q 1341 3281 1617 3432 
Q 1894 3584 2278 3584 
Q 2916 3584 3314 3078 
Q 3713 2572 3713 1747 
Q 3713 922 3314 415 
Q 2916 -91 2278 -91 
Q 1894 -91 1617 61 
Q 1341 213 1159 525 
z
M 3116 1747 
Q 3116 2381 2855 2742 
Q 2594 3103 2138 3103 
Q 1681 3103 1420 2742 
Q 1159 2381 1159 1747 
Q 1159 1113 1420 752 
Q 1681 391 2138 391 
Q 2594 391 2855 752 
Q 3116 1113 3116 1747 
z
" transform="scale(0.015625)"/>
       <path id="DejaVuSans-6e" d="M 3513 2113 
L 3513 0 
L 2938 0 
L 2938 2094 
Q 2938 2591 2744 2837 
Q 2550 3084 2163 3084 
Q 1697 3084 1428 2787 
Q 1159 2491 1159 1978 
L 1159 0 
L 581 0 
L 581 3500 
L 1159 3500 
L 1159 2956 
Q 1366 3272 1645 3428 
Q 1925 3584 2291 3584 
Q 2894 3584 3203 3211 
Q 3513 2838 3513 2113 
z
" transform="scale(0.015625)"/>
      </defs>
      <use xlink:href="#DejaVuSans-4e"/>
      <use xlink:href="#DejaVuSans-75" x="74.804688"/>
      <use xlink:href="#DejaVuSans-6d" x="138.183594"/>
      <use xlink:href="#DejaVuSans-62" x="235.595703"/>
      <use xlink:href="#DejaVuSans-65" x="299.072266"/>
      <use xlink:href="#DejaVuSans-72" x="360.595703"/>
      <use xlink:href="#DejaVuSans-20" x="401.708984"/>
      <use xlink:href="#DejaVuSans-6f" x="433.496094"/>
      <use xlink:href="#DejaVuSans-66" x="494.677734"/>
      <use xlink:href="#DejaVuSans-20" x="529.882812"/>
      <use xlink:href="#DejaVuSans-72" x="561.669922"/>
      <use xlink:href="#DejaVuSans-65" x="600.533203"/>
      <use xlink:href="#DejaVuSans-73" x="662.056641"/>
      <use xlink:href="#DejaVuSans-70" x="714.15625"/>
      <use xlink:href="#DejaVuSans-6f" x="777.632812"/>
      <use xlink:href="#DejaVuSans-6e" x="838.814453"/>
      <use xlink:href="#DejaVuSans-73" x="902.193359"/>
      <use xlink:href="#DejaVuSans-65" x="954.292969"/>
      <use xlink:href="#DejaVuSans-73" x="1015.816406"/>
     </g>
    </g>
   </g>
   <g id="matplotlib.axis_2">
    <g id="ytick_1">
     <g id="line2d_11">
      <defs>
       <path id="mdbc920d247" d="M 0 0 
L -3.5 0 
" style="stroke: #000000; stroke-width: 0.8"/>
      </defs>
      <g>
       <use xlink:href="#mdbc920d247" x="264.256437" y="610.495293" style="stroke: #000000; stroke-width: 0.8"/>
      </g>
     </g>
     <g id="text_12">
      <!-- Linux -->
      <g transform="translate(197.980187 618.853574)scale(0.22 -0.22)">
       <defs>
        <path id="DejaVuSans-4c" d="M 628 4666 
L 1259 4666 
L 1259 531 
L 3531 531 
L 3531 0 
L 628 0 
L 628 4666 
z
" transform="scale(0.015625)"/>
        <path id="DejaVuSans-69" d="M 603 3500 
L 1178 3500 
L 1178 0 
L 603 0 
L 603 3500 
z
M 603 4863 
L 1178 4863 
L 1178 4134 
L 603 4134 
L 603 4863 
z
" transform="scale(0.015625)"/>
        <path id="DejaVuSans-78" d="M 3513 3500 
L 2247 1797 
L 3578 0 
L 2900 0 
L 1881 1375 
L 863 0 
L 184 0 
L 1544 1831 
L 300 3500 
L 978 3500 
L 1906 2253 
L 2834 3500 
L 3513 3500 
z
" transform="scale(0.015625)"/>
       </defs>
       <use xlink:href="#DejaVuSans-4c"/>
       <use xlink:href="#DejaVuSans-69" x="55.712891"/>
       <use xlink:href="#DejaVuSans-6e" x="83.496094"/>
       <use xlink:href="#DejaVuSans-75" x="146.875"/>
       <use xlink:href="#DejaVuSans-78" x="210.253906"/>
      </g>
     </g>
    </g>
    <g id="ytick_2">
     <g id="line2d_12">
      <g>
       <use xlink:href="#mdbc920d247" x="264.256437" y="579.293378" style="stroke: #000000; stroke-width: 0.8"/>
      </g>
     </g>
     <g id="text_13">
      <!-- Bash -->
      <g transform="translate(203.277375 587.65166)scale(0.22 -0.22)">
       <defs>
        <path id="DejaVuSans-42" d="M 1259 2228 
L 1259 519 
L 2272 519 
Q 2781 519 3026 730 
Q 3272 941 3272 1375 
Q 3272 1813 3026 2020 
Q 2781 2228 2272 2228 
L 1259 2228 
z
M 1259 4147 
L 1259 2741 
L 2194 2741 
Q 2656 2741 2882 2914 
Q 3109 3088 3109 3444 
Q 3109 3797 2882 3972 
Q 2656 4147 2194 4147 
L 1259 4147 
z
M 628 4666 
L 2241 4666 
Q 2963 4666 3353 4366 
Q 3744 4066 3744 3513 
Q 3744 3084 3544 2831 
Q 3344 2578 2956 2516 
Q 3422 2416 3680 2098 
Q 3938 1781 3938 1306 
Q 3938 681 3513 340 
Q 3088 0 2303 0 
L 628 0 
L 628 4666 
z
" transform="scale(0.015625)"/>
        <path id="DejaVuSans-61" d="M 2194 1759 
Q 1497 1759 1228 1600 
Q 959 1441 959 1056 
Q 959 750 1161 570 
Q 1363 391 1709 391 
Q 2188 391 2477 730 
Q 2766 1069 2766 1631 
L 2766 1759 
L 2194 1759 
z
M 3341 1997 
L 3341 0 
L 2766 0 
L 2766 531 
Q 2569 213 2275 61 
Q 1981 -91 1556 -91 
Q 1019 -91 701 211 
Q 384 513 384 1019 
Q 384 1609 779 1909 
Q 1175 2209 1959 2209 
L 2766 2209 
L 2766 2266 
Q 2766 2663 2505 2880 
Q 2244 3097 1772 3097 
Q 1472 3097 1187 3025 
Q 903 2953 641 2809 
L 641 3341 
Q 956 3463 1253 3523 
Q 1550 3584 1831 3584 
Q 2591 3584 2966 3190 
Q 3341 2797 3341 1997 
z
" transform="scale(0.015625)"/>
        <path id="DejaVuSans-68" d="M 3513 2113 
L 3513 0 
L 2938 0 
L 2938 2094 
Q 2938 2591 2744 2837 
Q 2550 3084 2163 3084 
Q 1697 3084 1428 2787 
Q 1159 2491 1159 1978 
L 1159 0 
L 581 0 
L 581 4863 
L 1159 4863 
L 1159 2956 
Q 1366 3272 1645 3428 
Q 1925 3584 2291 3584 
Q 2894 3584 3203 3211 
Q 3513 2838 3513 2113 
z
" transform="scale(0.015625)"/>
       </defs>
       <use xlink:href="#DejaVuSans-42"/>
       <use xlink:href="#DejaVuSans-61" x="68.603516"/>
       <use xlink:href="#DejaVuSans-73" x="129.882812"/>
       <use xlink:href="#DejaVuSans-68" x="181.982422"/>
      </g>
     </g>
    </g>
    <g id="ytick_3">
     <g id="line2d_13">
      <g>
       <use xlink:href="#mdbc920d247" x="264.256437" y="548.091464" style="stroke: #000000; stroke-width: 0.8"/>
      </g>
     </g>
     <g id="text_14">
      <!-- Command line -->
      <g transform="translate(97.488312 556.449745)scale(0.22 -0.22)">
       <defs>
        <path id="DejaVuSans-43" d="M 4122 4306 
L 4122 3641 
Q 3803 3938 3442 4084 
Q 3081 4231 2675 4231 
Q 1875 4231 1450 3742 
Q 1025 3253 1025 2328 
Q 1025 1406 1450 917 
Q 1875 428 2675 428 
Q 3081 428 3442 575 
Q 3803 722 4122 1019 
L 4122 359 
Q 3791 134 3420 21 
Q 3050 -91 2638 -91 
Q 1578 -91 968 557 
Q 359 1206 359 2328 
Q 359 3453 968 4101 
Q 1578 4750 2638 4750 
Q 3056 4750 3426 4639 
Q 3797 4528 4122 4306 
z
" transform="scale(0.015625)"/>
        <path id="DejaVuSans-64" d="M 2906 2969 
L 2906 4863 
L 3481 4863 
L 3481 0 
L 2906 0 
L 2906 525 
Q 2725 213 2448 61 
Q 2172 -91 1784 -91 
Q 1150 -91 751 415 
Q 353 922 353 1747 
Q 353 2572 751 3078 
Q 1150 3584 1784 3584 
Q 2172 3584 2448 3432 
Q 2725 3281 2906 2969 
z
M 947 1747 
Q 947 1113 1208 752 
Q 1469 391 1925 391 
Q 2381 391 2643 752 
Q 2906 1113 2906 1747 
Q 2906 2381 2643 2742 
Q 2381 3103 1925 3103 
Q 1469 3103 1208 2742 
Q 947 2381 947 1747 
z
" transform="scale(0.015625)"/>
        <path id="DejaVuSans-6c" d="M 603 4863 
L 1178 4863 
L 1178 0 
L 603 0 
L 603 4863 
z
" transform="scale(0.015625)"/>
       </defs>
       <use xlink:href="#DejaVuSans-43"/>
       <use xlink:href="#DejaVuSans-6f" x="69.824219"/>
       <use xlink:href="#DejaVuSans-6d" x="131.005859"/>
       <use xlink:href="#DejaVuSans-6d" x="228.417969"/>
       <use xlink:href="#DejaVuSans-61" x="325.830078"/>
       <use xlink:href="#DejaVuSans-6e" x="387.109375"/>
       <use xlink:href="#DejaVuSans-64" x="450.488281"/>
       <use xlink:href="#DejaVuSans-20" x="513.964844"/>
       <use xlink:href="#DejaVuSans-6c" x="545.751953"/>
       <use xlink:href="#DejaVuSans-69" x="573.535156"/>
       <use xlink:href="#DejaVuSans-6e" x="601.318359"/>
       <use xlink:href="#DejaVuSans-65" x="664.697266"/>
      </g>
     </g>
    </g>
    <g id="ytick_4">
     <g id="line2d_14">
      <g>
       <use xlink:href="#mdbc920d247" x="264.256437" y="516.889549" style="stroke: #000000; stroke-width: 0.8"/>
      </g>
     </g>
     <g id="text_15">
      <!-- ResFinder -->
      <g transform="translate(150.302062 525.247831)scale(0.22 -0.22)">
       <defs>
        <path id="DejaVuSans-52" d="M 2841 2188 
Q 3044 2119 3236 1894 
Q 3428 1669 3622 1275 
L 4263 0 
L 3584 0 
L 2988 1197 
Q 2756 1666 2539 1819 
Q 2322 1972 1947 1972 
L 1259 1972 
L 1259 0 
L 628 0 
L 628 4666 
L 2053 4666 
Q 2853 4666 3247 4331 
Q 3641 3997 3641 3322 
Q 3641 2881 3436 2590 
Q 3231 2300 2841 2188 
z
M 1259 4147 
L 1259 2491 
L 2053 2491 
Q 2509 2491 2742 2702 
Q 2975 2913 2975 3322 
Q 2975 3731 2742 3939 
Q 2509 4147 2053 4147 
L 1259 4147 
z
" transform="scale(0.015625)"/>
        <path id="DejaVuSans-46" d="M 628 4666 
L 3309 4666 
L 3309 4134 
L 1259 4134 
L 1259 2759 
L 3109 2759 
L 3109 2228 
L 1259 2228 
L 1259 0 
L 628 0 
L 628 4666 
z
" transform="scale(0.015625)"/>
       </defs>
       <use xlink:href="#DejaVuSans-52"/>
       <use xlink:href="#DejaVuSans-65" x="64.982422"/>
       <use xlink:href="#DejaVuSans-73" x="126.505859"/>
       <use xlink:href="#DejaVuSans-46" x="178.605469"/>
       <use xlink:href="#DejaVuSans-69" x="228.875"/>
       <use xlink:href="#DejaVuSans-6e" x="256.658203"/>
       <use xlink:href="#DejaVuSans-64" x="320.037109"/>
       <use xlink:href="#DejaVuSans-65" x="383.513672"/>
       <use xlink:href="#DejaVuSans-72" x="445.037109"/>
      </g>
     </g>
    </g>
    <g id="ytick_5">
     <g id="line2d_15">
      <g>
       <use xlink:href="#mdbc920d247" x="264.256437" y="485.687635" style="stroke: #000000; stroke-width: 0.8"/>
      </g>
     </g>
     <g id="text_16">
      <!-- HUMAnN -->
      <g transform="translate(160.178 494.045916)scale(0.22 -0.22)">
       <defs>
        <path id="DejaVuSans-48" d="M 628 4666 
L 1259 4666 
L 1259 2753 
L 3553 2753 
L 3553 4666 
L 4184 4666 
L 4184 0 
L 3553 0 
L 3553 2222 
L 1259 2222 
L 1259 0 
L 628 0 
L 628 4666 
z
" transform="scale(0.015625)"/>
        <path id="DejaVuSans-55" d="M 556 4666 
L 1191 4666 
L 1191 1831 
Q 1191 1081 1462 751 
Q 1734 422 2344 422 
Q 2950 422 3222 751 
Q 3494 1081 3494 1831 
L 3494 4666 
L 4128 4666 
L 4128 1753 
Q 4128 841 3676 375 
Q 3225 -91 2344 -91 
Q 1459 -91 1007 375 
Q 556 841 556 1753 
L 556 4666 
z
" transform="scale(0.015625)"/>
        <path id="DejaVuSans-4d" d="M 628 4666 
L 1569 4666 
L 2759 1491 
L 3956 4666 
L 4897 4666 
L 4897 0 
L 4281 0 
L 4281 4097 
L 3078 897 
L 2444 897 
L 1241 4097 
L 1241 0 
L 628 0 
L 628 4666 
z
" transform="scale(0.015625)"/>
        <path id="DejaVuSans-41" d="M 2188 4044 
L 1331 1722 
L 3047 1722 
L 2188 4044 
z
M 1831 4666 
L 2547 4666 
L 4325 0 
L 3669 0 
L 3244 1197 
L 1141 1197 
L 716 0 
L 50 0 
L 1831 4666 
z
" transform="scale(0.015625)"/>
       </defs>
       <use xlink:href="#DejaVuSans-48"/>
       <use xlink:href="#DejaVuSans-55" x="75.195312"/>
       <use xlink:href="#DejaVuSans-4d" x="148.388672"/>
       <use xlink:href="#DejaVuSans-41" x="234.667969"/>
       <use xlink:href="#DejaVuSans-6e" x="303.076172"/>
       <use xlink:href="#DejaVuSans-4e" x="366.455078"/>
      </g>
     </g>
    </g>
    <g id="ytick_6">
     <g id="line2d_16">
      <g>
       <use xlink:href="#mdbc920d247" x="264.256437" y="454.48572" style="stroke: #000000; stroke-width: 0.8"/>
      </g>
     </g>
     <g id="text_17">
      <!-- KEGG -->
      <g transform="translate(194.834875 462.844002)scale(0.22 -0.22)">
       <defs>
        <path id="DejaVuSans-4b" d="M 628 4666 
L 1259 4666 
L 1259 2694 
L 3353 4666 
L 4166 4666 
L 1850 2491 
L 4331 0 
L 3500 0 
L 1259 2247 
L 1259 0 
L 628 0 
L 628 4666 
z
" transform="scale(0.015625)"/>
        <path id="DejaVuSans-45" d="M 628 4666 
L 3578 4666 
L 3578 4134 
L 1259 4134 
L 1259 2753 
L 3481 2753 
L 3481 2222 
L 1259 2222 
L 1259 531 
L 3634 531 
L 3634 0 
L 628 0 
L 628 4666 
z
" transform="scale(0.015625)"/>
        <path id="DejaVuSans-47" d="M 3809 666 
L 3809 1919 
L 2778 1919 
L 2778 2438 
L 4434 2438 
L 4434 434 
Q 4069 175 3628 42 
Q 3188 -91 2688 -91 
Q 1594 -91 976 548 
Q 359 1188 359 2328 
Q 359 3472 976 4111 
Q 1594 4750 2688 4750 
Q 3144 4750 3555 4637 
Q 3966 4525 4313 4306 
L 4313 3634 
Q 3963 3931 3569 4081 
Q 3175 4231 2741 4231 
Q 1884 4231 1454 3753 
Q 1025 3275 1025 2328 
Q 1025 1384 1454 906 
Q 1884 428 2741 428 
Q 3075 428 3337 486 
Q 3600 544 3809 666 
z
" transform="scale(0.015625)"/>
       </defs>
       <use xlink:href="#DejaVuSans-4b"/>
       <use xlink:href="#DejaVuSans-45" x="65.576172"/>
       <use xlink:href="#DejaVuSans-47" x="128.759766"/>
       <use xlink:href="#DejaVuSans-47" x="206.25"/>
      </g>
     </g>
    </g>
    <g id="ytick_7">
     <g id="line2d_17">
      <g>
       <use xlink:href="#mdbc920d247" x="264.256437" y="423.283806" style="stroke: #000000; stroke-width: 0.8"/>
      </g>
     </g>
     <g id="text_18">
      <!-- Trimmomatic -->
      <g transform="translate(113.843937 431.642087)scale(0.22 -0.22)">
       <defs>
        <path id="DejaVuSans-54" d="M -19 4666 
L 3928 4666 
L 3928 4134 
L 2272 4134 
L 2272 0 
L 1638 0 
L 1638 4134 
L -19 4134 
L -19 4666 
z
" transform="scale(0.015625)"/>
        <path id="DejaVuSans-74" d="M 1172 4494 
L 1172 3500 
L 2356 3500 
L 2356 3053 
L 1172 3053 
L 1172 1153 
Q 1172 725 1289 603 
Q 1406 481 1766 481 
L 2356 481 
L 2356 0 
L 1766 0 
Q 1100 0 847 248 
Q 594 497 594 1153 
L 594 3053 
L 172 3053 
L 172 3500 
L 594 3500 
L 594 4494 
L 1172 4494 
z
" transform="scale(0.015625)"/>
        <path id="DejaVuSans-63" d="M 3122 3366 
L 3122 2828 
Q 2878 2963 2633 3030 
Q 2388 3097 2138 3097 
Q 1578 3097 1268 2742 
Q 959 2388 959 1747 
Q 959 1106 1268 751 
Q 1578 397 2138 397 
Q 2388 397 2633 464 
Q 2878 531 3122 666 
L 3122 134 
Q 2881 22 2623 -34 
Q 2366 -91 2075 -91 
Q 1284 -91 818 406 
Q 353 903 353 1747 
Q 353 2603 823 3093 
Q 1294 3584 2113 3584 
Q 2378 3584 2631 3529 
Q 2884 3475 3122 3366 
z
" transform="scale(0.015625)"/>
       </defs>
       <use xlink:href="#DejaVuSans-54"/>
       <use xlink:href="#DejaVuSans-72" x="46.333984"/>
       <use xlink:href="#DejaVuSans-69" x="87.447266"/>
       <use xlink:href="#DejaVuSans-6d" x="115.230469"/>
       <use xlink:href="#DejaVuSans-6d" x="212.642578"/>
       <use xlink:href="#DejaVuSans-6f" x="310.054688"/>
       <use xlink:href="#DejaVuSans-6d" x="371.236328"/>
       <use xlink:href="#DejaVuSans-61" x="468.648438"/>
       <use xlink:href="#DejaVuSans-74" x="529.927734"/>
       <use xlink:href="#DejaVuSans-69" x="569.136719"/>
       <use xlink:href="#DejaVuSans-63" x="596.919922"/>
      </g>
     </g>
    </g>
    <g id="ytick_8">
     <g id="line2d_18">
      <g>
       <use xlink:href="#mdbc920d247" x="264.256437" y="392.081891" style="stroke: #000000; stroke-width: 0.8"/>
      </g>
     </g>
     <g id="text_19">
      <!-- MetaPhlAn -->
      <g transform="translate(140.319562 400.440173)scale(0.22 -0.22)">
       <defs>
        <path id="DejaVuSans-50" d="M 1259 4147 
L 1259 2394 
L 2053 2394 
Q 2494 2394 2734 2622 
Q 2975 2850 2975 3272 
Q 2975 3691 2734 3919 
Q 2494 4147 2053 4147 
L 1259 4147 
z
M 628 4666 
L 2053 4666 
Q 2838 4666 3239 4311 
Q 3641 3956 3641 3272 
Q 3641 2581 3239 2228 
Q 2838 1875 2053 1875 
L 1259 1875 
L 1259 0 
L 628 0 
L 628 4666 
z
" transform="scale(0.015625)"/>
       </defs>
       <use xlink:href="#DejaVuSans-4d"/>
       <use xlink:href="#DejaVuSans-65" x="86.279297"/>
       <use xlink:href="#DejaVuSans-74" x="147.802734"/>
       <use xlink:href="#DejaVuSans-61" x="187.011719"/>
       <use xlink:href="#DejaVuSans-50" x="248.291016"/>
       <use xlink:href="#DejaVuSans-68" x="308.59375"/>
       <use xlink:href="#DejaVuSans-6c" x="371.972656"/>
       <use xlink:href="#DejaVuSans-41" x="399.755859"/>
       <use xlink:href="#DejaVuSans-6e" x="468.164062"/>
      </g>
     </g>
    </g>
    <g id="ytick_9">
     <g id="line2d_19">
      <g>
       <use xlink:href="#mdbc920d247" x="264.256437" y="360.879977" style="stroke: #000000; stroke-width: 0.8"/>
      </g>
     </g>
     <g id="text_20">
      <!-- QIIME2 -->
      <g transform="translate(180.077687 369.238258)scale(0.22 -0.22)">
       <defs>
        <path id="DejaVuSans-51" d="M 2522 4238 
Q 1834 4238 1429 3725 
Q 1025 3213 1025 2328 
Q 1025 1447 1429 934 
Q 1834 422 2522 422 
Q 3209 422 3611 934 
Q 4013 1447 4013 2328 
Q 4013 3213 3611 3725 
Q 3209 4238 2522 4238 
z
M 3406 84 
L 4238 -825 
L 3475 -825 
L 2784 -78 
Q 2681 -84 2626 -87 
Q 2572 -91 2522 -91 
Q 1538 -91 948 567 
Q 359 1225 359 2328 
Q 359 3434 948 4092 
Q 1538 4750 2522 4750 
Q 3503 4750 4090 4092 
Q 4678 3434 4678 2328 
Q 4678 1516 4351 937 
Q 4025 359 3406 84 
z
" transform="scale(0.015625)"/>
        <path id="DejaVuSans-49" d="M 628 4666 
L 1259 4666 
L 1259 0 
L 628 0 
L 628 4666 
z
" transform="scale(0.015625)"/>
       </defs>
       <use xlink:href="#DejaVuSans-51"/>
       <use xlink:href="#DejaVuSans-49" x="78.710938"/>
       <use xlink:href="#DejaVuSans-49" x="108.203125"/>
       <use xlink:href="#DejaVuSans-4d" x="137.695312"/>
       <use xlink:href="#DejaVuSans-45" x="223.974609"/>
       <use xlink:href="#DejaVuSans-32" x="287.158203"/>
      </g>
     </g>
    </g>
    <g id="ytick_10">
     <g id="line2d_20">
      <g>
       <use xlink:href="#mdbc920d247" x="264.256437" y="329.678062" style="stroke: #000000; stroke-width: 0.8"/>
      </g>
     </g>
     <g id="text_21">
      <!-- BLAST -->
      <g transform="translate(186.956125 338.036344)scale(0.22 -0.22)">
       <defs>
        <path id="DejaVuSans-53" d="M 3425 4513 
L 3425 3897 
Q 3066 4069 2747 4153 
Q 2428 4238 2131 4238 
Q 1616 4238 1336 4038 
Q 1056 3838 1056 3469 
Q 1056 3159 1242 3001 
Q 1428 2844 1947 2747 
L 2328 2669 
Q 3034 2534 3370 2195 
Q 3706 1856 3706 1288 
Q 3706 609 3251 259 
Q 2797 -91 1919 -91 
Q 1588 -91 1214 -16 
Q 841 59 441 206 
L 441 856 
Q 825 641 1194 531 
Q 1563 422 1919 422 
Q 2459 422 2753 634 
Q 3047 847 3047 1241 
Q 3047 1584 2836 1778 
Q 2625 1972 2144 2069 
L 1759 2144 
Q 1053 2284 737 2584 
Q 422 2884 422 3419 
Q 422 4038 858 4394 
Q 1294 4750 2059 4750 
Q 2388 4750 2728 4690 
Q 3069 4631 3425 4513 
z
" transform="scale(0.015625)"/>
       </defs>
       <use xlink:href="#DejaVuSans-42"/>
       <use xlink:href="#DejaVuSans-4c" x="68.603516"/>
       <use xlink:href="#DejaVuSans-41" x="126.566406"/>
       <use xlink:href="#DejaVuSans-53" x="194.974609"/>
       <use xlink:href="#DejaVuSans-54" x="258.451172"/>
      </g>
     </g>
    </g>
    <g id="ytick_11">
     <g id="line2d_21">
      <g>
       <use xlink:href="#mdbc920d247" x="264.256437" y="298.476148" style="stroke: #000000; stroke-width: 0.8"/>
      </g>
     </g>
     <g id="text_22">
      <!-- BioPython -->
      <g transform="translate(146.33175 306.834429)scale(0.22 -0.22)">
       <defs>
        <path id="DejaVuSans-79" d="M 2059 -325 
Q 1816 -950 1584 -1140 
Q 1353 -1331 966 -1331 
L 506 -1331 
L 506 -850 
L 844 -850 
Q 1081 -850 1212 -737 
Q 1344 -625 1503 -206 
L 1606 56 
L 191 3500 
L 800 3500 
L 1894 763 
L 2988 3500 
L 3597 3500 
L 2059 -325 
z
" transform="scale(0.015625)"/>
       </defs>
       <use xlink:href="#DejaVuSans-42"/>
       <use xlink:href="#DejaVuSans-69" x="68.603516"/>
       <use xlink:href="#DejaVuSans-6f" x="96.386719"/>
       <use xlink:href="#DejaVuSans-50" x="157.568359"/>
       <use xlink:href="#DejaVuSans-79" x="217.871094"/>
       <use xlink:href="#DejaVuSans-74" x="277.050781"/>
       <use xlink:href="#DejaVuSans-68" x="316.259766"/>
       <use xlink:href="#DejaVuSans-6f" x="379.638672"/>
       <use xlink:href="#DejaVuSans-6e" x="440.820312"/>
      </g>
     </g>
    </g>
    <g id="ytick_12">
     <g id="line2d_22">
      <g>
       <use xlink:href="#mdbc920d247" x="264.256437" y="267.274234" style="stroke: #000000; stroke-width: 0.8"/>
      </g>
     </g>
     <g id="text_23">
      <!-- Bowtie -->
      <g transform="translate(182.435812 275.632515)scale(0.22 -0.22)">
       <defs>
        <path id="DejaVuSans-77" d="M 269 3500 
L 844 3500 
L 1563 769 
L 2278 3500 
L 2956 3500 
L 3675 769 
L 4391 3500 
L 4966 3500 
L 4050 0 
L 3372 0 
L 2619 2869 
L 1863 0 
L 1184 0 
L 269 3500 
z
" transform="scale(0.015625)"/>
       </defs>
       <use xlink:href="#DejaVuSans-42"/>
       <use xlink:href="#DejaVuSans-6f" x="68.603516"/>
       <use xlink:href="#DejaVuSans-77" x="129.785156"/>
       <use xlink:href="#DejaVuSans-74" x="211.572266"/>
       <use xlink:href="#DejaVuSans-69" x="250.78125"/>
       <use xlink:href="#DejaVuSans-65" x="278.564453"/>
      </g>
     </g>
    </g>
    <g id="ytick_13">
     <g id="line2d_23">
      <g>
       <use xlink:href="#mdbc920d247" x="264.256437" y="236.072319" style="stroke: #000000; stroke-width: 0.8"/>
      </g>
     </g>
     <g id="text_24">
      <!-- Anvi'o -->
      <g transform="translate(189.623625 244.4306)scale(0.22 -0.22)">
       <defs>
        <path id="DejaVuSans-76" d="M 191 3500 
L 800 3500 
L 1894 563 
L 2988 3500 
L 3597 3500 
L 2284 0 
L 1503 0 
L 191 3500 
z
" transform="scale(0.015625)"/>
        <path id="DejaVuSans-27" d="M 1147 4666 
L 1147 2931 
L 616 2931 
L 616 4666 
L 1147 4666 
z
" transform="scale(0.015625)"/>
       </defs>
       <use xlink:href="#DejaVuSans-41"/>
       <use xlink:href="#DejaVuSans-6e" x="68.408203"/>
       <use xlink:href="#DejaVuSans-76" x="131.787109"/>
       <use xlink:href="#DejaVuSans-69" x="190.966797"/>
       <use xlink:href="#DejaVuSans-27" x="218.75"/>
       <use xlink:href="#DejaVuSans-6f" x="246.240234"/>
      </g>
     </g>
    </g>
    <g id="ytick_14">
     <g id="line2d_24">
      <g>
       <use xlink:href="#mdbc920d247" x="264.256437" y="204.870405" style="stroke: #000000; stroke-width: 0.8"/>
      </g>
     </g>
     <g id="text_25">
      <!-- R -->
      <g transform="translate(241.969875 213.228686)scale(0.22 -0.22)">
       <use xlink:href="#DejaVuSans-52"/>
      </g>
     </g>
    </g>
    <g id="ytick_15">
     <g id="line2d_25">
      <g>
       <use xlink:href="#mdbc920d247" x="264.256437" y="173.66849" style="stroke: #000000; stroke-width: 0.8"/>
      </g>
     </g>
     <g id="text_26">
      <!-- nr -->
      <g transform="translate(234.269875 182.026771)scale(0.22 -0.22)">
       <use xlink:href="#DejaVuSans-6e"/>
       <use xlink:href="#DejaVuSans-72" x="63.378906"/>
      </g>
     </g>
    </g>
    <g id="ytick_16">
     <g id="line2d_26">
      <g>
       <use xlink:href="#mdbc920d247" x="264.256437" y="142.466576" style="stroke: #000000; stroke-width: 0.8"/>
      </g>
     </g>
     <g id="text_27">
      <!-- NCBI -->
      <g transform="translate(203.851437 150.824857)scale(0.22 -0.22)">
       <use xlink:href="#DejaVuSans-4e"/>
       <use xlink:href="#DejaVuSans-43" x="74.804688"/>
       <use xlink:href="#DejaVuSans-42" x="144.628906"/>
       <use xlink:href="#DejaVuSans-49" x="213.232422"/>
      </g>
     </g>
    </g>
    <g id="ytick_17">
     <g id="line2d_27">
      <g>
       <use xlink:href="#mdbc920d247" x="264.256437" y="111.264661" style="stroke: #000000; stroke-width: 0.8"/>
      </g>
     </g>
     <g id="text_28">
      <!-- Python -->
      <g transform="translate(180.998937 119.622942)scale(0.22 -0.22)">
       <use xlink:href="#DejaVuSans-50"/>
       <use xlink:href="#DejaVuSans-79" x="60.302734"/>
       <use xlink:href="#DejaVuSans-74" x="119.482422"/>
       <use xlink:href="#DejaVuSans-68" x="158.691406"/>
       <use xlink:href="#DejaVuSans-6f" x="222.070312"/>
       <use xlink:href="#DejaVuSans-6e" x="283.251953"/>
      </g>
     </g>
    </g>
    <g id="ytick_18">
     <g id="line2d_28">
      <g>
       <use xlink:href="#mdbc920d247" x="264.256437" y="80.062747" style="stroke: #000000; stroke-width: 0.8"/>
      </g>
     </g>
     <g id="text_29">
      <!-- Galaxy -->
      <g transform="translate(181.09175 88.421028)scale(0.22 -0.22)">
       <use xlink:href="#DejaVuSans-47"/>
       <use xlink:href="#DejaVuSans-61" x="77.490234"/>
       <use xlink:href="#DejaVuSans-6c" x="138.769531"/>
       <use xlink:href="#DejaVuSans-61" x="166.552734"/>
       <use xlink:href="#DejaVuSans-78" x="227.832031"/>
       <use xlink:href="#DejaVuSans-79" x="287.011719"/>
      </g>
     </g>
    </g>
    <g id="ytick_19">
     <g id="line2d_29">
      <g>
       <use xlink:href="#mdbc920d247" x="264.256437" y="48.860832" style="stroke: #000000; stroke-width: 0.8"/>
      </g>
     </g>
     <g id="text_30">
      <!-- RStudio -->
      <g transform="translate(171.896437 57.219113)scale(0.22 -0.22)">
       <use xlink:href="#DejaVuSans-52"/>
       <use xlink:href="#DejaVuSans-53" x="69.482422"/>
       <use xlink:href="#DejaVuSans-74" x="132.958984"/>
       <use xlink:href="#DejaVuSans-75" x="172.167969"/>
       <use xlink:href="#DejaVuSans-64" x="235.546875"/>
       <use xlink:href="#DejaVuSans-69" x="299.023438"/>
       <use xlink:href="#DejaVuSans-6f" x="326.806641"/>
      </g>
     </g>
    </g>
   </g>
   <g id="patch_22">
    <path d="M 264.256437 626.09625 
L 264.256437 33.259875 
" style="fill: none; stroke: #000000; stroke-width: 0.8; stroke-linejoin: miter; stroke-linecap: square"/>
   </g>
   <g id="patch_23">
    <path d="M 899.970813 626.09625 
L 899.970813 33.259875 
" style="fill: none; stroke: #000000; stroke-width: 0.8; stroke-linejoin: miter; stroke-linecap: square"/>
   </g>
   <g id="patch_24">
    <path d="M 264.256437 626.09625 
L 899.970813 626.09625 
" style="fill: none; stroke: #000000; stroke-width: 0.8; stroke-linejoin: miter; stroke-linecap: square"/>
   </g>
   <g id="patch_25">
    <path d="M 264.256437 33.259875 
L 899.970813 33.259875 
" style="fill: none; stroke: #000000; stroke-width: 0.8; stroke-linejoin: miter; stroke-linecap: square"/>
   </g>
   <g id="text_31">
    <!-- 2 -->
    <g transform="translate(299.638646 618.295771)scale(0.22 -0.22)">
     <use xlink:href="#DejaVuSans-32"/>
    </g>
   </g>
   <g id="text_32">
    <!-- 2 -->
    <g transform="translate(299.638646 587.093857)scale(0.22 -0.22)">
     <use xlink:href="#DejaVuSans-32"/>
    </g>
   </g>
   <g id="text_33">
    <!-- 2 -->
    <g transform="translate(299.638646 555.891942)scale(0.22 -0.22)">
     <use xlink:href="#DejaVuSans-32"/>
    </g>
   </g>
   <g id="text_34">
    <!-- 2 -->
    <g transform="translate(299.638646 524.690028)scale(0.22 -0.22)">
     <use xlink:href="#DejaVuSans-32"/>
    </g>
   </g>
   <g id="text_35">
    <!-- 2 -->
    <g transform="translate(299.638646 493.488113)scale(0.22 -0.22)">
     <use xlink:href="#DejaVuSans-32"/>
    </g>
   </g>
   <g id="text_36">
    <!-- 2 -->
    <g transform="translate(299.638646 462.286199)scale(0.22 -0.22)">
     <use xlink:href="#DejaVuSans-32"/>
    </g>
   </g>
   <g id="text_37">
    <!-- 2 -->
    <g transform="translate(299.638646 431.084285)scale(0.22 -0.22)">
     <use xlink:href="#DejaVuSans-32"/>
    </g>
   </g>
   <g id="text_38">
    <!-- 2 -->
    <g transform="translate(299.638646 399.88237)scale(0.22 -0.22)">
     <use xlink:href="#DejaVuSans-32"/>
    </g>
   </g>
   <g id="text_39">
    <!-- 2 -->
    <g transform="translate(299.638646 368.680456)scale(0.22 -0.22)">
     <use xlink:href="#DejaVuSans-32"/>
    </g>
   </g>
   <g id="text_40">
    <!-- 3 -->
    <g transform="translate(313.765632 337.478541)scale(0.22 -0.22)">
     <use xlink:href="#DejaVuSans-33"/>
    </g>
   </g>
   <g id="text_41">
    <!-- 3 -->
    <g transform="translate(313.765632 306.276627)scale(0.22 -0.22)">
     <use xlink:href="#DejaVuSans-33"/>
    </g>
   </g>
   <g id="text_42">
    <!-- 3 -->
    <g transform="translate(313.765632 275.074712)scale(0.22 -0.22)">
     <use xlink:href="#DejaVuSans-33"/>
    </g>
   </g>
   <g id="text_43">
    <!-- 4 -->
    <g transform="translate(327.892618 243.872798)scale(0.22 -0.22)">
     <use xlink:href="#DejaVuSans-34"/>
    </g>
   </g>
   <g id="text_44">
    <!-- 5 -->
    <g transform="translate(342.019604 212.670883)scale(0.22 -0.22)">
     <use xlink:href="#DejaVuSans-35"/>
    </g>
   </g>
   <g id="text_45">
    <!-- 5 -->
    <g transform="translate(342.019604 181.468969)scale(0.22 -0.22)">
     <use xlink:href="#DejaVuSans-35"/>
    </g>
   </g>
   <g id="text_46">
    <!-- 6 -->
    <g transform="translate(356.14659 150.267054)scale(0.22 -0.22)">
     <defs>
      <path id="DejaVuSans-36" d="M 2113 2584 
Q 1688 2584 1439 2293 
Q 1191 2003 1191 1497 
Q 1191 994 1439 701 
Q 1688 409 2113 409 
Q 2538 409 2786 701 
Q 3034 994 3034 1497 
Q 3034 2003 2786 2293 
Q 2538 2584 2113 2584 
z
M 3366 4563 
L 3366 3988 
Q 3128 4100 2886 4159 
Q 2644 4219 2406 4219 
Q 1781 4219 1451 3797 
Q 1122 3375 1075 2522 
Q 1259 2794 1537 2939 
Q 1816 3084 2150 3084 
Q 2853 3084 3261 2657 
Q 3669 2231 3669 1497 
Q 3669 778 3244 343 
Q 2819 -91 2113 -91 
Q 1303 -91 875 529 
Q 447 1150 447 2328 
Q 447 3434 972 4092 
Q 1497 4750 2381 4750 
Q 2619 4750 2861 4703 
Q 3103 4656 3366 4563 
z
" transform="scale(0.015625)"/>
     </defs>
     <use xlink:href="#DejaVuSans-36"/>
    </g>
   </g>
   <g id="text_47">
    <!-- 7 -->
    <g transform="translate(370.273576 119.06514)scale(0.22 -0.22)">
     <defs>
      <path id="DejaVuSans-37" d="M 525 4666 
L 3525 4666 
L 3525 4397 
L 1831 0 
L 1172 0 
L 2766 4134 
L 525 4134 
L 525 4666 
z
" transform="scale(0.015625)"/>
     </defs>
     <use xlink:href="#DejaVuSans-37"/>
    </g>
   </g>
   <g id="text_48">
    <!-- 12 -->
    <g transform="translate(433.909757 87.863225)scale(0.22 -0.22)">
     <use xlink:href="#DejaVuSans-31"/>
     <use xlink:href="#DejaVuSans-32" x="63.623047"/>
    </g>
   </g>
   <g id="text_49">
    <!-- 41 -->
    <g transform="translate(843.592354 56.661311)scale(0.22 -0.22)">
     <use xlink:href="#DejaVuSans-34"/>
     <use xlink:href="#DejaVuSans-31" x="63.623047"/>
    </g>
   </g>
   <g id="text_50">
    <!-- Which tools, platforms or databases are you using to conduct your research analyses ? -->
    <g transform="translate(7.2 27.259875)scale(0.264 -0.264)">
     <defs>
      <path id="DejaVuSans-57" d="M 213 4666 
L 850 4666 
L 1831 722 
L 2809 4666 
L 3519 4666 
L 4500 722 
L 5478 4666 
L 6119 4666 
L 4947 0 
L 4153 0 
L 3169 4050 
L 2175 0 
L 1381 0 
L 213 4666 
z
" transform="scale(0.015625)"/>
      <path id="DejaVuSans-2c" d="M 750 794 
L 1409 794 
L 1409 256 
L 897 -744 
L 494 -744 
L 750 256 
L 750 794 
z
" transform="scale(0.015625)"/>
      <path id="DejaVuSans-67" d="M 2906 1791 
Q 2906 2416 2648 2759 
Q 2391 3103 1925 3103 
Q 1463 3103 1205 2759 
Q 947 2416 947 1791 
Q 947 1169 1205 825 
Q 1463 481 1925 481 
Q 2391 481 2648 825 
Q 2906 1169 2906 1791 
z
M 3481 434 
Q 3481 -459 3084 -895 
Q 2688 -1331 1869 -1331 
Q 1566 -1331 1297 -1286 
Q 1028 -1241 775 -1147 
L 775 -588 
Q 1028 -725 1275 -790 
Q 1522 -856 1778 -856 
Q 2344 -856 2625 -561 
Q 2906 -266 2906 331 
L 2906 616 
Q 2728 306 2450 153 
Q 2172 0 1784 0 
Q 1141 0 747 490 
Q 353 981 353 1791 
Q 353 2603 747 3093 
Q 1141 3584 1784 3584 
Q 2172 3584 2450 3431 
Q 2728 3278 2906 2969 
L 2906 3500 
L 3481 3500 
L 3481 434 
z
" transform="scale(0.015625)"/>
      <path id="DejaVuSans-3f" d="M 1222 794 
L 1856 794 
L 1856 0 
L 1222 0 
L 1222 794 
z
M 1838 1253 
L 1241 1253 
L 1241 1734 
Q 1241 2050 1328 2253 
Q 1416 2456 1697 2725 
L 1978 3003 
Q 2156 3169 2236 3316 
Q 2316 3463 2316 3616 
Q 2316 3894 2111 4066 
Q 1906 4238 1569 4238 
Q 1322 4238 1042 4128 
Q 763 4019 459 3809 
L 459 4397 
Q 753 4575 1054 4662 
Q 1356 4750 1678 4750 
Q 2253 4750 2601 4447 
Q 2950 4144 2950 3647 
Q 2950 3409 2837 3195 
Q 2725 2981 2444 2713 
L 2169 2444 
Q 2022 2297 1961 2214 
Q 1900 2131 1875 2053 
Q 1856 1988 1847 1894 
Q 1838 1800 1838 1638 
L 1838 1253 
z
" transform="scale(0.015625)"/>
     </defs>
     <use xlink:href="#DejaVuSans-57"/>
     <use xlink:href="#DejaVuSans-68" x="98.876953"/>
     <use xlink:href="#DejaVuSans-69" x="162.255859"/>
     <use xlink:href="#DejaVuSans-63" x="190.039062"/>
     <use xlink:href="#DejaVuSans-68" x="245.019531"/>
     <use xlink:href="#DejaVuSans-20" x="308.398438"/>
     <use xlink:href="#DejaVuSans-74" x="340.185547"/>
     <use xlink:href="#DejaVuSans-6f" x="379.394531"/>
     <use xlink:href="#DejaVuSans-6f" x="440.576172"/>
     <use xlink:href="#DejaVuSans-6c" x="501.757812"/>
     <use xlink:href="#DejaVuSans-73" x="529.541016"/>
     <use xlink:href="#DejaVuSans-2c" x="581.640625"/>
     <use xlink:href="#DejaVuSans-20" x="613.427734"/>
     <use xlink:href="#DejaVuSans-70" x="645.214844"/>
     <use xlink:href="#DejaVuSans-6c" x="708.691406"/>
     <use xlink:href="#DejaVuSans-61" x="736.474609"/>
     <use xlink:href="#DejaVuSans-74" x="797.753906"/>
     <use xlink:href="#DejaVuSans-66" x="836.962891"/>
     <use xlink:href="#DejaVuSans-6f" x="872.167969"/>
     <use xlink:href="#DejaVuSans-72" x="933.349609"/>
     <use xlink:href="#DejaVuSans-6d" x="972.712891"/>
     <use xlink:href="#DejaVuSans-73" x="1070.125"/>
     <use xlink:href="#DejaVuSans-20" x="1122.224609"/>
     <use xlink:href="#DejaVuSans-6f" x="1154.011719"/>
     <use xlink:href="#DejaVuSans-72" x="1215.193359"/>
     <use xlink:href="#DejaVuSans-20" x="1256.306641"/>
     <use xlink:href="#DejaVuSans-64" x="1288.09375"/>
     <use xlink:href="#DejaVuSans-61" x="1351.570312"/>
     <use xlink:href="#DejaVuSans-74" x="1412.849609"/>
     <use xlink:href="#DejaVuSans-61" x="1452.058594"/>
     <use xlink:href="#DejaVuSans-62" x="1513.337891"/>
     <use xlink:href="#DejaVuSans-61" x="1576.814453"/>
     <use xlink:href="#DejaVuSans-73" x="1638.09375"/>
     <use xlink:href="#DejaVuSans-65" x="1690.193359"/>
     <use xlink:href="#DejaVuSans-73" x="1751.716797"/>
     <use xlink:href="#DejaVuSans-20" x="1803.816406"/>
     <use xlink:href="#DejaVuSans-61" x="1835.603516"/>
     <use xlink:href="#DejaVuSans-72" x="1896.882812"/>
     <use xlink:href="#DejaVuSans-65" x="1935.746094"/>
     <use xlink:href="#DejaVuSans-20" x="1997.269531"/>
     <use xlink:href="#DejaVuSans-79" x="2029.056641"/>
     <use xlink:href="#DejaVuSans-6f" x="2088.236328"/>
     <use xlink:href="#DejaVuSans-75" x="2149.417969"/>
     <use xlink:href="#DejaVuSans-20" x="2212.796875"/>
     <use xlink:href="#DejaVuSans-75" x="2244.583984"/>
     <use xlink:href="#DejaVuSans-73" x="2307.962891"/>
     <use xlink:href="#DejaVuSans-69" x="2360.0625"/>
     <use xlink:href="#DejaVuSans-6e" x="2387.845703"/>
     <use xlink:href="#DejaVuSans-67" x="2451.224609"/>
     <use xlink:href="#DejaVuSans-20" x="2514.701172"/>
     <use xlink:href="#DejaVuSans-74" x="2546.488281"/>
     <use xlink:href="#DejaVuSans-6f" x="2585.697266"/>
     <use xlink:href="#DejaVuSans-20" x="2646.878906"/>
     <use xlink:href="#DejaVuSans-63" x="2678.666016"/>
     <use xlink:href="#DejaVuSans-6f" x="2733.646484"/>
     <use xlink:href="#DejaVuSans-6e" x="2794.828125"/>
     <use xlink:href="#DejaVuSans-64" x="2858.207031"/>
     <use xlink:href="#DejaVuSans-75" x="2921.683594"/>
     <use xlink:href="#DejaVuSans-63" x="2985.0625"/>
     <use xlink:href="#DejaVuSans-74" x="3040.042969"/>
     <use xlink:href="#DejaVuSans-20" x="3079.251953"/>
     <use xlink:href="#DejaVuSans-79" x="3111.039062"/>
     <use xlink:href="#DejaVuSans-6f" x="3170.21875"/>
     <use xlink:href="#DejaVuSans-75" x="3231.400391"/>
     <use xlink:href="#DejaVuSans-72" x="3294.779297"/>
     <use xlink:href="#DejaVuSans-20" x="3335.892578"/>
     <use xlink:href="#DejaVuSans-72" x="3367.679688"/>
     <use xlink:href="#DejaVuSans-65" x="3406.542969"/>
     <use xlink:href="#DejaVuSans-73" x="3468.066406"/>
     <use xlink:href="#DejaVuSans-65" x="3520.166016"/>
     <use xlink:href="#DejaVuSans-61" x="3581.689453"/>
     <use xlink:href="#DejaVuSans-72" x="3642.96875"/>
     <use xlink:href="#DejaVuSans-63" x="3681.832031"/>
     <use xlink:href="#DejaVuSans-68" x="3736.8125"/>
     <use xlink:href="#DejaVuSans-20" x="3800.191406"/>
     <use xlink:href="#DejaVuSans-61" x="3831.978516"/>
     <use xlink:href="#DejaVuSans-6e" x="3893.257812"/>
     <use xlink:href="#DejaVuSans-61" x="3956.636719"/>
     <use xlink:href="#DejaVuSans-6c" x="4017.916016"/>
     <use xlink:href="#DejaVuSans-79" x="4045.699219"/>
     <use xlink:href="#DejaVuSans-73" x="4104.878906"/>
     <use xlink:href="#DejaVuSans-65" x="4156.978516"/>
     <use xlink:href="#DejaVuSans-73" x="4218.501953"/>
     <use xlink:href="#DejaVuSans-20" x="4270.601562"/>
     <use xlink:href="#DejaVuSans-3f" x="4302.388672"/>
    </g>
   </g>
  </g>
 </g>
 <defs>
  <clipPath id="p3619d0f891">
   <rect x="264.256437" y="33.259875" width="635.714375" height="592.836375"/>
  </clipPath>
 </defs>
</svg>
